<svg width="289" height="36" viewBox="0 0 289 36" fill="none" xmlns="http://www.w3.org/2000/svg">
<g clip-path="url(#clip0_1718_730)">
<path d="M164.79 23.73C164.79 23.73 164.79 23.73 169.14 24.36C166.63 25.95 161.22 28.2 156.93 26.69C152.25 25.04 152.17 19.55 156.45 13.2C160.74 6.84 170.24 3.86 174.89 4.03C179.54 4.2 185.12 5.15 185.35 12.68C185.35 12.68 186.96 2.27 173.26 2.32C158.99 2.37 144.83 16.61 148.22 25.29C151.03 32.47 166.85 30.85 174.39 21.02L164.79 23.73Z" fill="white"/>
<path d="M166.88 11.69C166.88 11.69 166.88 11.69 162.53 11.06C165.04 9.47001 170.45 7.22001 174.74 8.73001C179.42 10.38 179.5 15.87 175.22 22.22C170.93 28.58 161.43 31.56 156.78 31.39C152.13 31.22 146.55 30.27 146.32 22.74C146.32 22.74 144.71 33.15 158.41 33.1C172.68 33.05 186.84 18.81 183.45 10.13C180.64 2.95001 164.82 4.57001 157.28 14.4L166.88 11.69Z" fill="#A39862"/>
<path d="M159.79 15.17H162.54L162.4 16.07H160.7L160.53 17.19H162.14L162 18.1H160.39L160.2 19.35H161.85L161.71 20.25H159L159.79 15.17Z" fill="white"/>
<path d="M166.82 15.71L166.25 16.45C166.06 16.31 165.9 16.21 165.77 16.14C165.64 16.07 165.52 16.04 165.39 16.04C165.2 16.04 165.04 16.1 164.92 16.21C164.8 16.32 164.74 16.46 164.74 16.64C164.74 16.79 164.81 16.93 164.94 17.04C165.07 17.15 165.3 17.28 165.62 17.42C165.88 17.58 166.05 17.71 166.15 17.79C166.25 17.88 166.34 18.01 166.42 18.18C166.5 18.35 166.55 18.54 166.55 18.74C166.55 19.18 166.39 19.55 166.06 19.86C165.73 20.17 165.33 20.32 164.87 20.32C164.31 20.32 163.77 20.1 163.25 19.66L163.85 18.92C163.98 19.01 164.14 19.12 164.31 19.23C164.48 19.34 164.65 19.4 164.82 19.4C165.01 19.4 165.16 19.34 165.3 19.22C165.43 19.1 165.5 18.95 165.5 18.78C165.5 18.62 165.43 18.48 165.3 18.37C165.17 18.25 164.97 18.14 164.71 18.03C164.45 17.92 164.26 17.83 164.15 17.74C164.04 17.66 163.93 17.53 163.82 17.35C163.71 17.17 163.66 16.95 163.66 16.68C163.66 16.23 163.82 15.85 164.15 15.56C164.48 15.26 164.9 15.11 165.4 15.11C165.89 15.1 166.37 15.3 166.82 15.71Z" fill="white"/>
<path d="M168.7 15.17H169.66C170.3 15.17 170.79 15.3 171.13 15.56C171.47 15.82 171.64 16.2 171.64 16.7C171.64 17.09 171.55 17.43 171.37 17.73C171.19 18.03 170.88 18.23 170.45 18.32L171.44 20.25H170.38L169.44 18.41H169.28L169 20.25H167.95L168.7 15.17ZM169.62 16.07L169.41 17.51L169.62 17.52C169.89 17.52 170.11 17.45 170.3 17.3C170.48 17.15 170.58 16.97 170.58 16.76C170.58 16.52 170.5 16.35 170.35 16.24C170.18 16.12 169.94 16.07 169.62 16.07Z" fill="white"/>
<path d="M187.23 9.64999H189.52L189.41 10.4H187.99L187.85 11.34H189.19L189.07 12.1H187.73L187.57 13.14H188.94L188.83 13.89H186.58L187.23 9.64999Z" fill="white"/>
<path d="M190.56 9.64999H191.37L191.81 12.03L193 9.64999H193.81V13.89H193.03V11.36L191.74 13.89H191.33L190.85 11.25L189.96 13.89H189.13L190.56 9.64999Z" fill="white"/>
<path d="M194.84 9.64999H195.72C196.78 9.64999 197.31 10.1 197.31 10.99C197.31 11.22 197.26 11.44 197.15 11.64C197.04 11.84 196.91 12 196.75 12.1C196.59 12.2 196.42 12.27 196.25 12.3C196.08 12.33 195.77 12.34 195.33 12.35L195.1 13.89H194.22L194.84 9.64999ZM195.61 10.39L195.43 11.58H195.67C195.88 11.58 196.05 11.52 196.19 11.39C196.33 11.27 196.4 11.11 196.4 10.93C196.4 10.78 196.34 10.65 196.23 10.54C196.11 10.43 195.97 10.38 195.8 10.38H195.61V10.39Z" fill="white"/>
<path d="M198.17 9.64999H198.97C199.51 9.64999 199.91 9.75999 200.19 9.97999C200.47 10.2 200.61 10.51 200.61 10.93C200.61 11.25 200.53 11.54 200.38 11.79C200.23 12.04 199.97 12.2 199.61 12.29L200.43 13.9H199.55L198.76 12.37H198.63L198.4 13.9H197.52L198.17 9.64999ZM198.93 10.39L198.75 11.59L198.93 11.6C199.15 11.6 199.34 11.54 199.49 11.42C199.64 11.3 199.72 11.15 199.72 10.97C199.72 10.77 199.66 10.63 199.53 10.54C199.4 10.44 199.2 10.4 198.93 10.39Z" fill="white"/>
<path d="M201.61 9.64999H203.9L203.79 10.4H202.37L202.23 11.34H203.57L203.45 12.1H202.11L201.95 13.14H203.32L203.21 13.89H200.96L201.61 9.64999Z" fill="white"/>
<path d="M206.6 10.09L206.13 10.71C205.97 10.6 205.83 10.51 205.73 10.45C205.62 10.39 205.52 10.36 205.41 10.36C205.25 10.36 205.12 10.41 205.01 10.5C204.91 10.59 204.86 10.71 204.86 10.86C204.86 10.99 204.92 11.1 205.03 11.19C205.14 11.28 205.33 11.39 205.6 11.51C205.82 11.65 205.96 11.75 206.04 11.82C206.12 11.89 206.19 12 206.26 12.14C206.33 12.28 206.36 12.44 206.36 12.61C206.36 12.98 206.22 13.29 205.95 13.54C205.68 13.8 205.34 13.93 204.95 13.93C204.48 13.93 204.03 13.75 203.6 13.38L204.1 12.77C204.21 12.85 204.34 12.93 204.48 13.03C204.62 13.12 204.77 13.17 204.91 13.17C205.06 13.17 205.2 13.12 205.31 13.02C205.42 12.92 205.47 12.79 205.47 12.65C205.47 12.52 205.42 12.4 205.31 12.3C205.2 12.2 205.04 12.11 204.82 12.02C204.6 11.93 204.45 11.85 204.36 11.78C204.27 11.71 204.18 11.6 204.09 11.45C204 11.3 203.95 11.12 203.95 10.89C203.95 10.51 204.09 10.2 204.36 9.95C204.63 9.7 204.98 9.58 205.4 9.58C205.83 9.59 206.23 9.76 206.6 10.09Z" fill="white"/>
<path d="M208.71 9.64999H209.32L210.4 13.89H209.58L209.37 13.04H207.8L207.34 13.89H206.44L208.71 9.64999ZM208.86 11.04L208.19 12.29H209.17L208.86 11.04Z" fill="white"/>
<path d="M187.21 21.54H188.01C188.55 21.54 188.95 21.65 189.23 21.87C189.51 22.09 189.65 22.4 189.65 22.82C189.65 23.14 189.57 23.43 189.42 23.68C189.27 23.93 189.01 24.09 188.65 24.18L189.47 25.79H188.59L187.8 24.26H187.67L187.44 25.79H186.56L187.21 21.54ZM187.98 22.29L187.8 23.49L187.98 23.5C188.2 23.5 188.39 23.44 188.54 23.32C188.69 23.2 188.77 23.05 188.77 22.87C188.77 22.67 188.71 22.52 188.58 22.44C188.45 22.33 188.25 22.29 187.98 22.29Z" fill="white"/>
<path d="M190.65 21.54H192.94L192.83 22.29H191.41L191.27 23.23H192.61L192.49 23.99H191.15L191 25.02H192.37L192.26 25.77H190.01L190.65 21.54Z" fill="white"/>
<path d="M195.64 21.99L195.17 22.61C195.01 22.5 194.87 22.41 194.77 22.35C194.66 22.29 194.56 22.26 194.45 22.26C194.29 22.26 194.16 22.31 194.05 22.4C193.95 22.49 193.9 22.61 193.9 22.76C193.9 22.89 193.96 23 194.07 23.09C194.18 23.18 194.37 23.29 194.64 23.41C194.86 23.55 195 23.65 195.08 23.72C195.16 23.79 195.23 23.9 195.3 24.04C195.37 24.18 195.4 24.34 195.4 24.51C195.4 24.88 195.26 25.19 194.99 25.44C194.72 25.7 194.38 25.83 194 25.83C193.53 25.83 193.08 25.65 192.65 25.28L193.15 24.67C193.26 24.75 193.39 24.83 193.53 24.93C193.67 25.02 193.82 25.07 193.96 25.07C194.11 25.07 194.25 25.02 194.36 24.92C194.47 24.82 194.52 24.69 194.52 24.55C194.52 24.42 194.47 24.3 194.36 24.2C194.25 24.1 194.09 24.01 193.87 23.92C193.65 23.83 193.5 23.75 193.41 23.68C193.32 23.61 193.23 23.5 193.14 23.35C193.05 23.2 193 23.01 193 22.79C193 22.41 193.14 22.1 193.41 21.85C193.68 21.6 194.03 21.48 194.45 21.48C194.88 21.48 195.27 21.65 195.64 21.99Z" fill="white"/>
<path d="M196.19 21.54H197.07C198.13 21.54 198.66 21.99 198.66 22.88C198.66 23.11 198.61 23.33 198.5 23.53C198.39 23.73 198.26 23.89 198.1 23.99C197.94 24.09 197.77 24.16 197.6 24.19C197.43 24.22 197.12 24.23 196.68 24.24L196.45 25.78H195.57L196.19 21.54ZM196.97 22.29L196.79 23.48H197.03C197.24 23.48 197.41 23.42 197.55 23.29C197.69 23.17 197.76 23.01 197.76 22.83C197.76 22.68 197.7 22.55 197.59 22.44C197.47 22.34 197.33 22.28 197.16 22.28H196.97V22.29Z" fill="white"/>
<path d="M201.36 21.47C202.01 21.47 202.5 21.65 202.85 22.02C203.2 22.39 203.37 22.9 203.37 23.56C203.37 24.24 203.15 24.79 202.72 25.2C202.28 25.62 201.71 25.83 201.01 25.83C200.39 25.83 199.9 25.64 199.54 25.27C199.18 24.9 199 24.39 199 23.75C199 23.1 199.22 22.56 199.66 22.13C200.11 21.69 200.67 21.47 201.36 21.47ZM202.51 23.57C202.51 23.17 202.4 22.85 202.17 22.6C201.95 22.35 201.65 22.23 201.28 22.23C200.9 22.23 200.58 22.38 200.3 22.67C200.02 22.97 199.89 23.32 199.89 23.73C199.89 24.12 200 24.44 200.23 24.69C200.46 24.94 200.75 25.07 201.1 25.07C201.48 25.07 201.82 24.92 202.09 24.63C202.37 24.34 202.51 23.98 202.51 23.57Z" fill="white"/>
<path d="M204.33 21.54H205.23L206.59 24.38L207.01 21.54H207.88L207.26 25.78H206.45L205.03 22.84L204.6 25.78H203.73L204.33 21.54Z" fill="white"/>
<path d="M210.71 21.99L210.24 22.61C210.08 22.5 209.94 22.41 209.84 22.35C209.73 22.29 209.63 22.26 209.52 22.26C209.36 22.26 209.23 22.31 209.12 22.4C209.02 22.49 208.97 22.61 208.97 22.76C208.97 22.89 209.03 23 209.14 23.09C209.25 23.18 209.44 23.29 209.71 23.41C209.92 23.55 210.07 23.65 210.15 23.72C210.23 23.79 210.3 23.9 210.37 24.04C210.44 24.18 210.47 24.34 210.47 24.51C210.47 24.88 210.33 25.19 210.06 25.44C209.79 25.7 209.45 25.83 209.07 25.83C208.6 25.83 208.15 25.65 207.72 25.28L208.22 24.67C208.33 24.75 208.46 24.83 208.6 24.93C208.74 25.02 208.89 25.07 209.03 25.07C209.18 25.07 209.32 25.02 209.43 24.92C209.54 24.82 209.59 24.69 209.59 24.55C209.59 24.42 209.54 24.3 209.43 24.2C209.32 24.1 209.16 24.01 208.94 23.92C208.72 23.83 208.57 23.75 208.48 23.68C208.39 23.61 208.3 23.5 208.21 23.35C208.12 23.2 208.07 23.01 208.07 22.79C208.07 22.41 208.21 22.1 208.48 21.85C208.75 21.6 209.1 21.48 209.52 21.48C209.94 21.48 210.34 21.65 210.71 21.99Z" fill="white"/>
<path d="M212.82 21.54H213.43L214.51 25.78H213.69L213.48 24.93H211.91L211.45 25.78H210.55L212.82 21.54ZM212.97 22.93L212.3 24.18H213.28L212.97 22.93Z" fill="white"/>
<path d="M215.55 21.54H216.55C217.52 21.54 218 21.9 218 22.62C218 23.02 217.8 23.35 217.4 23.6C217.83 23.8 218.05 24.13 218.05 24.56C218.05 24.94 217.89 25.23 217.57 25.45C217.25 25.66 216.81 25.77 216.23 25.77H214.89L215.55 21.54ZM216.07 23.92L215.9 25.07H216.34C216.6 25.07 216.81 25.02 216.97 24.91C217.13 24.81 217.21 24.67 217.21 24.51C217.21 24.35 217.14 24.2 216.99 24.09C216.84 23.98 216.66 23.92 216.44 23.92H216.07ZM216.32 22.24L216.17 23.25H216.5C216.71 23.25 216.88 23.2 217.02 23.11C217.16 23.02 217.22 22.9 217.22 22.76C217.22 22.6 217.16 22.48 217.05 22.38C216.93 22.29 216.78 22.24 216.58 22.24H216.32Z" fill="white"/>
<path d="M219.05 21.54H219.92L219.41 25.02H220.81L220.7 25.77H218.42L219.05 21.54Z" fill="white"/>
<path d="M221.88 21.54H224.17L224.06 22.29H222.64L222.5 23.23H223.84L223.72 23.99H222.38L222.22 25.03H223.59L223.48 25.78H221.23L221.88 21.54Z" fill="white"/>
<path d="M189.57 15.93L189.1 16.55C188.94 16.44 188.8 16.35 188.7 16.29C188.59 16.23 188.49 16.2 188.38 16.2C188.22 16.2 188.09 16.25 187.98 16.34C187.88 16.43 187.83 16.55 187.83 16.7C187.83 16.83 187.89 16.94 188 17.03C188.11 17.12 188.3 17.23 188.57 17.35C188.79 17.49 188.93 17.59 189.01 17.66C189.09 17.73 189.16 17.84 189.23 17.98C189.3 18.12 189.33 18.28 189.33 18.45C189.33 18.82 189.19 19.13 188.92 19.38C188.65 19.64 188.31 19.77 187.92 19.77C187.45 19.77 187 19.59 186.57 19.22L187.07 18.61C187.18 18.69 187.31 18.77 187.45 18.87C187.59 18.96 187.74 19.01 187.88 19.01C188.03 19.01 188.17 18.96 188.28 18.86C188.39 18.76 188.44 18.63 188.44 18.49C188.44 18.36 188.39 18.24 188.28 18.14C188.17 18.04 188.01 17.95 187.79 17.86C187.57 17.77 187.42 17.69 187.33 17.62C187.24 17.55 187.15 17.44 187.06 17.29C186.97 17.14 186.92 16.96 186.92 16.73C186.92 16.35 187.06 16.04 187.33 15.79C187.6 15.54 187.95 15.42 188.37 15.42C188.8 15.42 189.2 15.59 189.57 15.93Z" fill="white"/>
<path d="M192.13 15.42C192.78 15.42 193.27 15.6 193.62 15.97C193.97 16.34 194.14 16.85 194.14 17.51C194.14 18.19 193.92 18.74 193.49 19.16C193.05 19.58 192.48 19.79 191.78 19.79C191.16 19.79 190.67 19.6 190.31 19.23C189.95 18.86 189.77 18.35 189.77 17.71C189.77 17.06 189.99 16.52 190.43 16.09C190.87 15.63 191.44 15.42 192.13 15.42ZM193.27 17.52C193.27 17.12 193.16 16.8 192.93 16.55C192.71 16.3 192.41 16.18 192.04 16.18C191.66 16.18 191.34 16.33 191.06 16.62C190.78 16.92 190.65 17.27 190.65 17.68C190.65 18.07 190.76 18.39 190.99 18.64C191.22 18.89 191.51 19.02 191.86 19.02C192.24 19.02 192.58 18.87 192.85 18.58C193.13 18.28 193.27 17.93 193.27 17.52Z" fill="white"/>
<path d="M198.21 15.77L198.1 16.54C197.82 16.31 197.49 16.19 197.12 16.19C196.7 16.19 196.33 16.34 196.01 16.65C195.69 16.96 195.54 17.32 195.54 17.73C195.54 18.1 195.65 18.39 195.88 18.62C196.11 18.85 196.4 18.96 196.76 18.96C197.09 18.96 197.45 18.86 197.83 18.65L197.7 19.51C197.35 19.69 197 19.78 196.64 19.78C196.01 19.78 195.52 19.58 195.17 19.19C194.82 18.79 194.64 18.32 194.64 17.78C194.64 17.06 194.88 16.48 195.35 16.05C195.83 15.62 196.35 15.41 196.91 15.41C197.43 15.42 197.86 15.54 198.21 15.77Z" fill="white"/>
<path d="M198.81 15.48H199.68L199.05 19.72H198.18L198.81 15.48Z" fill="white"/>
<path d="M201.79 15.48H202.4L203.48 19.72H202.66L202.45 18.87H200.88L200.42 19.72H199.52L201.79 15.48ZM201.95 16.88L201.28 18.13H202.26L201.95 16.88Z" fill="white"/>
<path d="M204.52 15.48H205.39L204.88 18.96H206.28L206.17 19.71H203.89L204.52 15.48Z" fill="white"/>
<path d="M207.86 15.48H208.67L209.11 17.86L210.3 15.48H211.11V19.72H210.33V17.19L209.04 19.72H208.63L208.15 17.08L207.26 19.72H206.43L207.86 15.48Z" fill="white"/>
<path d="M212.23 15.48H214.52L214.41 16.23H213L212.86 17.17H214.2L214.08 17.93H212.74L212.58 18.97H213.95L213.84 19.72H211.59L212.23 15.48Z" fill="white"/>
<path d="M215.04 15.48H215.94L217.3 18.32L217.72 15.48H218.59L217.97 19.72H217.16L215.74 16.78L215.31 19.72H214.44L215.04 15.48Z" fill="white"/>
<path d="M219.01 15.48H221.61L221.5 16.23H220.63L220.12 19.72H219.26L219.76 16.23H218.91L219.01 15.48Z" fill="white"/>
<path d="M222.07 15.48H224.36L224.25 16.23H222.83L222.69 17.17H224.03L223.91 17.93H222.57L222.41 18.97H223.78L223.67 19.72H221.42L222.07 15.48Z" fill="white"/>
<path d="M4.58772 6.24152L0.597717 6.25864L0.642339 16.6586L4.63234 16.6415L4.58772 6.24152Z" fill="white"/>
<path d="M8.58 12.22C6.63 11.92 5.82 10.76 5.81 9.30001C5.8 6.60001 8.36 5.86001 11.64 5.85001C16.14 5.83001 17.99 7.03001 18.14 9.23001L13.5 9.25001C13.5 8.83001 13.26 8.57001 12.89 8.42001C12.54 8.26001 12.08 8.21001 11.64 8.21001C10.45 8.22001 10.04 8.52001 10.05 8.96001C10.05 9.25001 10.18 9.44001 10.58 9.50001L15.35 10.21C17.36 10.51 18.61 11.46 18.62 13.23C18.63 15.76 16.63 16.97 12.15 16.99C9.08 17 5.73 16.58 5.7 13.52L10.51 13.5C10.53 13.85 10.65 14.08 10.94 14.24C11.24 14.38 11.68 14.46 12.3 14.45C13.54 14.44 13.88 14.09 13.88 13.6C13.88 13.29 13.69 12.99 13.16 12.9L8.58 12.22Z" fill="white"/>
<path d="M26.58 14.29C28.21 14.28 29.23 13.45 29.23 11.34C29.23 9.23 28.18 8.4 26.56 8.41C24.93 8.42 23.91 9.25 23.92 11.36C23.93 13.47 24.95 14.3 26.58 14.29ZM26.54 5.79C28.96 5.78 33.44 5.94 33.46 11.33C33.48 16.72 29 16.91 26.58 16.92C24.16 16.93 19.68 16.77 19.66 11.38C19.64 5.99 24.12 5.8 26.54 5.79Z" fill="white"/>
<path d="M1.18001 20.42C1.18001 20.99 1.47001 21.53 2.08001 21.52C2.70001 21.52 3.00001 20.99 3.00001 20.41C3.00001 19.84 2.69001 19.33 2.07001 19.34C1.46001 19.34 1.18001 19.85 1.18001 20.42ZM1.28001 22.67C1.32001 23.1 1.60001 23.39 2.03001 23.39C2.94001 23.39 3.03001 22.27 3.08001 21.58L3.07001 21.56C2.85001 21.97 2.44001 22.2 1.97001 22.2C1.00001 22.2 0.350006 21.51 0.350006 20.43C0.350006 19.4 0.990006 18.63 2.10001 18.62C3.55001 18.61 3.91001 19.83 3.92001 21.37C3.93001 22.63 3.45001 24.1 2.00001 24.11C1.19001 24.11 0.500006 23.54 0.450006 22.68L1.28001 22.67Z" fill="white"/>
<path d="M7.43 21.34C7.43 20.24 7.22 19.31 6.48 19.32C5.75 19.32 5.55 20.25 5.55 21.35C5.55 22.45 5.76 23.38 6.49 23.37C7.23 23.37 7.43 22.44 7.43 21.34ZM8.26 21.34C8.27 22.54 7.97 24.08 6.5 24.09C5.03 24.1 4.72 22.55 4.72 21.35C4.71 20.15 5.01 18.61 6.48 18.6C7.95 18.6 8.26 20.14 8.26 21.34Z" fill="white"/>
<path d="M11.64 21.33C11.64 20.23 11.43 19.3 10.7 19.31C9.97 19.31 9.77 20.24 9.77 21.34C9.77 22.44 9.98 23.37 10.72 23.36C11.44 23.35 11.64 22.43 11.64 21.33ZM12.47 21.32C12.48 22.52 12.18 24.06 10.71 24.07C9.24 24.08 8.93 22.53 8.93 21.33C8.92 20.13 9.22 18.59 10.69 18.58C12.16 18.58 12.47 20.12 12.47 21.32Z" fill="white"/>
<path d="M12.96 19.56C13.66 19.56 14.33 19.31 14.45 18.68H15.13L15.15 23.96H14.24L14.22 20.24L12.96 20.25V19.56Z" fill="white"/>
<path d="M16.28 22.93H17.3V23.95H16.28V22.93ZM16.27 20.13H17.29V21.15H16.27V20.13Z" fill="white"/>
<path d="M21.45 23.92L17.95 23.94C17.95 23.07 18.38 22.42 19.07 21.94C19.73 21.44 20.59 21.02 20.61 20.2C20.61 19.82 20.46 19.27 19.74 19.27C19.08 19.27 18.89 19.85 18.87 20.59H18.04C18.03 19.42 18.65 18.55 19.79 18.55C21.04 18.54 21.44 19.48 21.44 20.16C21.44 21 20.89 21.52 20.31 21.94C19.72 22.36 19.1 22.69 18.95 23.16L21.44 23.15L21.45 23.92Z" fill="white"/>
<path d="M25.28 21.27C25.28 20.17 25.07 19.24 24.33 19.25C23.6 19.25 23.4 20.18 23.4 21.28C23.4 22.38 23.61 23.31 24.34 23.3C25.08 23.3 25.28 22.37 25.28 21.27ZM26.11 21.26C26.12 22.46 25.82 24 24.35 24.01C22.88 24.02 22.57 22.47 22.57 21.27C22.56 20.07 22.86 18.53 24.33 18.52C25.8 18.52 26.1 20.06 26.11 21.26Z" fill="white"/>
<path d="M26.6 19.5C27.3 19.5 27.97 19.25 28.09 18.62H28.77L28.79 23.9H27.88L27.86 20.18L26.6 20.19V19.5Z" fill="white"/>
<path d="M30.15 18.61L32.8 18.6V19.37L30.77 19.38L30.51 20.72L30.52 20.73C30.75 20.47 31.12 20.33 31.46 20.33C32.48 20.33 33.07 21.08 33.07 22.09C33.07 22.93 32.57 23.98 31.31 23.99C30.32 23.99 29.55 23.45 29.51 22.39H30.34C30.39 22.96 30.75 23.28 31.29 23.28C32 23.28 32.24 22.76 32.24 22.12C32.24 21.54 31.93 21.02 31.26 21.02C30.91 21.02 30.56 21.14 30.44 21.51H29.61L30.15 18.61Z" fill="white"/>
<path d="M2.52001 27.94C2.44001 27.61 2.12001 27.44 1.74001 27.45C1.08001 27.45 0.800008 27.91 0.800008 28.4C0.800008 28.93 1.08001 29.38 1.75001 29.37C2.24001 29.37 2.52001 29.08 2.55001 28.69H2.92001C2.85001 29.27 2.42001 29.63 1.72001 29.63C0.850008 29.63 0.430008 29.1 0.430008 28.42C0.430008 27.74 0.890008 27.19 1.74001 27.19C2.32001 27.19 2.80001 27.45 2.89001 27.94H2.52001Z" fill="white"/>
<path d="M5.09 27.23L5.1 29.56L7.03 29.55V29.29L5.47 29.3L5.46 28.49H6.91V28.22L5.46 28.23V27.49L7.01 27.48V27.22L5.09 27.23Z" fill="white"/>
<path d="M10.34 28.28C10.69 28.28 10.98 28.2 10.98 27.86C10.98 27.63 10.83 27.46 10.48 27.46H9.56V28.27L10.34 28.28ZM9.19 27.21L10.5 27.2C11.02 27.2 11.35 27.43 11.35 27.81C11.35 28.09 11.2 28.32 10.87 28.4V28.41C11.19 28.46 11.26 28.66 11.29 28.89C11.31 29.12 11.3 29.37 11.46 29.53H11.05C10.94 29.43 11 29.18 10.95 28.95C10.91 28.72 10.84 28.53 10.48 28.53H9.58V29.53H9.21L9.19 27.21Z" fill="white"/>
<path d="M13.21 27.19V27.45H14.14L14.15 29.52H14.52L14.51 27.45L15.44 27.44V27.18L13.21 27.19Z" fill="white"/>
<path d="M17.8452 27.1695L17.4752 27.1711L17.4852 29.5011L17.8552 29.4995L17.8452 27.1695Z" fill="white"/>
<path d="M20.19 27.16L20.2 29.5H20.57V28.43L21.85 28.42V28.16H20.57L20.56 27.42H22.02V27.16H20.19Z" fill="white"/>
<path d="M24.5353 27.1395L24.1653 27.1411L24.1752 29.4711L24.5453 29.4695L24.5353 27.1395Z" fill="white"/>
<path d="M26.88 27.13L26.89 29.47L28.82 29.46V29.2L27.26 29.21L27.25 28.4L28.7 28.39V28.13L27.25 28.14V27.39H28.8V27.13H26.88Z" fill="white"/>
<path d="M31.36 29.19H31.98C32.23 29.19 32.92 29.13 32.91 28.27C32.91 27.72 32.66 27.38 31.98 27.38H31.36V29.19ZM30.98 27.12H31.94C32.8 27.12 33.28 27.47 33.28 28.23C33.28 29.01 32.87 29.46 31.95 29.46H30.99L30.98 27.12Z" fill="white"/>
<path d="M33.8495 25.7777L-0.000488281 25.9229L0.000755964 26.2129L33.8508 26.0677L33.8495 25.7777Z" fill="white"/>
<path d="M271.62 11.52C268.95 11.74 266.33 11.06 267.3 7.76C267.55 6.9 268.17 8.66 268.37 8.7C269.95 9 274.74 8.75 277.9 8.75C278.94 8.76 280.72 10.93 279.44 11.19C278.16 11.46 274.22 11.31 271.62 11.52ZM274.96 13.96C276.09 13.55 277.03 12.72 276.39 11.97C275.74 11.23 274.94 13.15 273.99 12.36C272.26 10.9 272.2 12.8 272.96 13.42C273.73 14.02 274.57 14.1 274.96 13.96ZM256.74 15.11C260.1 14.55 262.68 14.14 266.96 13.06C267.04 13.04 266.91 10.24 266.77 10.23C263.31 10.01 259.81 9.97 256.4 10.04C254.8 10.08 255.14 15.38 256.74 15.11ZM271.89 17.03C272.33 16.75 273.21 16.09 273.76 15.12C272.46 14.34 271.7 13.68 271.45 12.04C270.39 12 269.49 11.99 268.67 12.04C267.57 13.8 270.25 16.92 271.89 17.03ZM273.94 17.76C277.39 17.05 283.55 16.13 284.24 16.08C284.93 16.03 284.68 16.7 285.68 16.6C285.72 15.03 286.04 13.38 284.33 13C282.41 12.57 280.4 12.29 278.42 12.22C276.71 13.46 274.94 15.55 273.26 17.19C272.84 17.61 273.3 17.88 273.94 17.76ZM270.6 20.76C273.25 19.95 275.9 19.14 278.56 18.32C278.56 17.64 276.78 18.27 276.12 18.25C274.15 18.22 270.37 18.55 270.09 20.76C270.07 20.89 270.47 20.76 270.6 20.76ZM258.62 20.89C259.72 20.74 267.58 16.62 268.07 16.3C268.57 15.98 267.66 14.24 267.38 14.25C265.4 14.29 260.1 15.88 257.51 16.33C257.25 16.38 256.72 16.51 256.59 16.76C255.98 18.01 257.52 21.05 258.62 20.89ZM264.7 23.82C265.77 23.75 270.58 18.58 270.47 18.41C270.07 17.79 269.25 16.71 268.5 17.13C265.76 18.62 261.85 20.52 259.05 22.31C258.66 22.55 259.36 23.57 259.8 23.73C260.73 24.03 263.64 23.88 264.7 23.82ZM285.08 0H255.97C254.22 0 252.79 1.4 252.79 3.15V32.26C252.79 34.01 254.23 35.42 255.97 35.42H285.08C286.83 35.42 288.2 34.01 288.2 32.26V3.15C288.2 1.4 286.82 0 285.08 0ZM254.12 1.33C254.59 0.86 255.25 0.58 255.96 0.58H285.07C285.78 0.58 286.41 0.86 286.88 1.33C287.35 1.8 287.62 2.44 287.62 3.15V25.81H253.35V3.15C253.35 2.44 253.65 1.8 254.12 1.33ZM256.84 33.55L256.96 32.96L257.04 32.56L257.3 31.36L257.87 28.71H259.49L260.14 31.07L260.8 28.71H262.48L263.03 31.36L263.28 32.55L263.36 32.94L263.48 33.5H261.9L261.47 31.36L261.4 31.02L261.04 32.29L260.68 33.56H259.65L259.29 32.29L258.92 31.04L258.85 31.4L258.42 33.56H256.84V33.55ZM265.46 28.61C265.62 28.58 265.78 28.56 265.94 28.56C265.96 28.56 265.99 28.56 266.01 28.56C266.06 28.56 266.12 28.56 266.17 28.56C266.29 28.56 266.38 28.58 266.48 28.59C267.72 28.79 268.4 29.75 268.4 31.2V31.38L266.43 31.41H266.16H265.77H265.09C265.09 31.41 265.09 31.48 265.09 31.52C265.1 31.62 265.11 31.71 265.14 31.79C265.16 31.85 265.18 31.91 265.21 31.96C265.37 32.27 265.68 32.44 266.11 32.44H266.12C266.45 32.44 266.69 32.31 266.86 32V31.99H268.37C268.12 33.14 267.13 33.63 266.12 33.63C265.93 33.63 265.75 33.62 265.57 33.59C264.97 33.49 264.45 33.23 264.08 32.8C263.72 32.38 263.51 31.82 263.51 31.11C263.53 29.72 264.31 28.82 265.46 28.61ZM265.32 27.8L266.71 26.57L267.55 27.62L266.73 28.06L266.36 28.26L266.08 28.41L265.95 28.48L265.77 28.28L265.32 27.8ZM271.89 31.93L272.85 33.55H271.14L270.92 33.1L270.46 32.23L270 33.08L269.78 33.49H268.07L269.03 31.9L269.51 31.1L269.02 30.28L268.07 28.7H269.78L270 29.12L270.46 29.98L270.92 29.12L271.14 28.69L272.76 28.68H272.85L271.9 30.27L271.41 31.11L271.89 31.93ZM273.16 28.68H273.57H274.72V32.51V33.56H273.16V28.68ZM278.89 30.1L278.83 30.08C278.46 29.96 278.01 29.91 277.72 29.96C277.07 30.07 276.71 30.46 276.71 31.07C276.71 31.33 276.78 31.56 276.91 31.73C276.92 31.74 277.09 31.93 277.18 31.98C277.33 32.08 277.52 32.15 277.73 32.18C278.02 32.23 278.47 32.17 278.84 32.06L278.9 32.04C278.9 32.04 278.99 32.4 279.08 32.74C279.15 33 279.21 33.24 279.24 33.34C278.95 33.47 278.61 33.6 277.88 33.59C277.12 33.57 276.47 33.35 275.99 32.96L275.87 32.86C275.58 32.62 275.41 32.27 275.27 31.98H275.28C275.25 31.98 275.2 31.74 275.2 31.73C275.15 31.52 275.12 31.3 275.12 31.07C275.12 31.07 275.12 31.07 275.12 31.06C275.13 29.59 276.24 28.55 277.88 28.55C278.38 28.55 278.81 28.62 279.17 28.77C279.11 29 278.89 30.1 278.89 30.1ZM279.25 30.3C279.27 30.25 279.29 30.19 279.31 30.14C279.68 29.2 280.61 28.54 281.69 28.54C282.21 28.54 282.7 28.69 283.1 28.96C283.4 29.15 283.65 29.4 283.84 29.7C283.99 29.92 284.1 30.17 284.17 30.44C284.2 30.57 284.23 30.7 284.24 30.83C284.25 30.91 284.25 30.98 284.25 31.06C284.25 31.39 284.19 31.7 284.07 31.98C284 32.16 283.9 32.34 283.79 32.49C283.71 32.61 283.61 32.72 283.51 32.82C283.5 32.83 283.5 32.83 283.49 32.84C283.03 33.29 282.39 33.56 281.69 33.56C281.23 33.56 280.81 33.44 280.44 33.24C280.22 33.12 280.03 32.97 279.86 32.8C279.64 32.58 279.47 32.32 279.34 32.04C279.26 31.85 279.2 31.64 279.16 31.43C279.15 31.36 279.14 31.3 279.14 31.23C279.14 31.17 279.13 31.12 279.13 31.06C279.13 31.02 279.13 30.99 279.13 30.95C279.15 30.72 279.19 30.5 279.25 30.3ZM280.61 31.24C280.6 31.18 280.59 31.11 280.59 31.05C280.59 30.99 280.6 30.94 280.6 30.89C280.64 30.6 280.8 30.34 281.02 30.17C281.2 30.03 281.43 29.95 281.68 29.95C281.76 29.95 281.85 29.96 281.92 29.98C282.18 30.04 282.41 30.19 282.56 30.4C282.69 30.58 282.77 30.81 282.77 31.06C282.77 31.38 282.64 31.67 282.42 31.87C282.31 31.97 282.18 32.06 282.03 32.11C281.92 32.15 281.8 32.17 281.67 32.17C281.37 32.17 281.09 32.05 280.89 31.84C280.87 31.82 280.86 31.8 280.84 31.78C280.73 31.62 280.64 31.44 280.61 31.24ZM265.13 30.4C265.2 30.01 265.45 29.77 265.78 29.69C265.87 29.67 265.96 29.65 266.06 29.65C266.48 29.65 266.87 29.97 266.95 30.4H265.86H265.52H265.13ZM262.67 2.72H263.53V5.73H262.67V4.59H261.81V5.74H260.95V2.72H261.81V3.87H262.67V2.72ZM264.68 5.02H265.83V5.74H263.82V2.72H265.83V3.58H264.68V3.87H265.68V4.59H264.68V5.02ZM266.87 4.28C266.87 4.78 267.15 5.07 267.63 5.07C267.82 5.07 268 5.03 268.1 4.99L268.23 4.94L268.36 5.64L268.28 5.68C268.16 5.74 267.89 5.81 267.53 5.81C266.6 5.81 265.99 5.22 265.99 4.32C265.99 3.38 266.63 2.75 267.59 2.75C267.93 2.75 268.19 2.82 268.31 2.89L268.39 2.93L268.21 3.64L268.09 3.59C267.94 3.53 267.78 3.5 267.62 3.5C267.15 3.49 266.87 3.78 266.87 4.28ZM270.27 2.72H271.13V5.73H270.27V4.59H269.41V5.74H268.55V2.72H269.41V3.87H270.27V2.72ZM272.83 2.75C271.98 2.75 271.38 3.39 271.38 4.3C271.38 5.19 271.96 5.81 272.78 5.81C273.67 5.81 274.24 5.2 274.24 4.25C274.25 3.35 273.68 2.75 272.83 2.75ZM272.81 3.46C273.19 3.46 273.36 3.87 273.36 4.27C273.36 4.65 273.22 5.09 272.81 5.09C272.47 5.09 272.25 4.77 272.25 4.28C272.26 3.91 272.4 3.46 272.81 3.46ZM276.15 5.02H277.3V5.74H275.29V2.72H277.3V3.58H276.15V3.87H277.15V4.59H276.15V5.02ZM280.03 2.72V5.73H279.26L278.66 4.63C278.6 4.52 278.52 4.35 278.41 4.15C278.41 4.37 278.45 4.59 278.45 4.83V5.74H277.59V2.72H278.5L279.1 3.82C279.17 3.94 279.24 4.11 279.31 4.25C279.3 4.08 279.31 3.9 279.31 3.7V2.72H280.03Z" fill="white"/>
<path d="M72.14 4.49001C67.52 4.49001 65.88 11.62 64.36 17.36C63.81 16.81 62.12 15.14 62.11 15.14C61.77 14.81 61.38 14.91 61.14 15.15C60.9 15.39 60.87 15.83 61.14 16.1C61.15 16.11 63.43 18.37 64.22 19.15C64.44 19.36 64.75 19.48 65.06 19.3C65.39 19.1 65.43 18.75 65.44 18.75C68.14 6.74001 70.56 5.85001 72.13 5.85001C73.45 5.85001 74.97 6.82001 74.97 8.75001C76.94 8.75001 78.17 11.31 76.59 12.89C77.9 13.52 78.49 14.29 78.49 15.27C78.49 16.25 77.66 17.25 76.46 17.25C75.26 17.25 74.65 16.48 73.72 16.48C73.3 16.48 73.04 16.82 73.04 17.15V19.58H71.28V17.16C71.28 16.78 70.99 16.49 70.65 16.49C70.64 16.49 70.5 16.49 70.5 16.5L68.14 16.79C67.85 16.83 67.59 17.14 67.59 17.46C67.59 17.83 67.9 18.14 68.32 18.13C68.37 18.13 68.44 18.13 68.44 18.12C68.43 18.12 69.93 17.93 69.93 17.93C69.93 17.93 69.93 20.31 69.93 20.32C69.93 20.62 70.28 20.92 70.59 20.92H73.73C74.09 20.92 74.41 20.61 74.41 20.24V18.06C75.07 18.46 75.98 18.61 76.45 18.61C78.21 18.61 79.89 17.24 79.88 15.23C79.87 13.4 78.47 12.49 78.47 12.49C79.3 10.31 77.96 8.21001 76.23 7.62001C75.58 5.36001 73.64 4.49001 72.14 4.49001Z" fill="white"/>
<path d="M72.14 4.49001C67.52 4.49001 65.88 11.62 64.36 17.36C63.81 16.81 62.12 15.14 62.11 15.14C61.77 14.81 61.38 14.91 61.14 15.15C60.9 15.39 60.87 15.83 61.14 16.1C61.15 16.11 63.43 18.37 64.22 19.15C64.44 19.36 64.75 19.48 65.06 19.3C65.39 19.1 65.43 18.75 65.44 18.75C68.14 6.74001 70.56 5.85001 72.13 5.85001C73.45 5.85001 74.97 6.82001 74.97 8.75001C76.94 8.75001 78.17 11.31 76.59 12.89C77.9 13.52 78.49 14.29 78.49 15.27C78.49 16.25 77.66 17.25 76.46 17.25C75.26 17.25 74.65 16.48 73.72 16.48C73.3 16.48 73.04 16.82 73.04 17.15V19.58H71.28V17.16C71.28 16.78 70.99 16.49 70.65 16.49C70.64 16.49 70.5 16.49 70.5 16.5L68.14 16.79C67.85 16.83 67.59 17.14 67.59 17.46C67.59 17.83 67.9 18.14 68.32 18.13C68.37 18.13 68.44 18.13 68.44 18.12C68.43 18.12 69.93 17.93 69.93 17.93C69.93 17.93 69.93 20.31 69.93 20.32C69.93 20.62 70.28 20.92 70.59 20.92H73.73C74.09 20.92 74.41 20.61 74.41 20.24V18.06C75.07 18.46 75.98 18.61 76.45 18.61C78.21 18.61 79.89 17.24 79.88 15.23C79.87 13.4 78.47 12.49 78.47 12.49C79.3 10.31 77.96 8.21001 76.23 7.62001C75.58 5.36001 73.64 4.49001 72.14 4.49001Z" fill="white"/>
<path d="M70.17 23.58C70.17 24.15 70.8 24.48 71.85 24.98C72.68 25.37 73.16 25.77 73.16 26.1C73.16 26.63 72.59 26.82 72.05 26.82C71.22 26.82 70.73 26.49 70.45 25.75L70.43 25.68H70.36C70.21 25.68 70.09 25.69 70.03 25.77C69.97 25.84 69.99 25.94 70.01 26.04L70.19 26.8C70.24 26.99 70.3 27.02 70.6 27.07C70.73 27.09 71.4 27.21 71.97 27.21C73.56 27.21 74.27 26.57 74.27 25.93C74.27 25.47 73.81 25.02 72.81 24.53L72.36 24.31C71.68 23.99 71.27 23.79 71.27 23.45C71.27 23.12 71.7 22.89 72.31 22.89C73.1 22.89 73.32 23.33 73.42 23.71L73.44 23.78H73.52C73.7 23.78 73.81 23.77 73.87 23.7C73.91 23.66 73.92 23.61 73.92 23.54L73.85 22.88C73.83 22.67 73.67 22.64 73.45 22.6C73.18 22.55 72.86 22.5 72.38 22.5C70.99 22.51 70.17 22.91 70.17 23.58Z" fill="white"/>
<path d="M74.75 24.91C74.75 26.05 75.75 27.21 77.66 27.21C78.62 27.21 79.17 26.99 79.57 26.78L79.68 26.72L79.5 26.53L79.51 26.54C79.47 26.48 79.43 26.47 79.37 26.47L79.28 26.5C79.13 26.57 78.69 26.77 77.89 26.77C76.9 26.77 75.84 26.13 75.84 24.72C75.84 23.38 76.99 22.91 77.98 22.91C78.69 22.91 79.07 23.16 79.14 23.68L79.15 23.76H79.24C79.32 23.76 79.55 23.76 79.55 23.59V22.81C79.55 22.62 79.33 22.59 79.23 22.58L79.14 22.57C78.91 22.54 78.69 22.51 78.12 22.51C76.16 22.51 74.75 23.52 74.75 24.91Z" fill="white"/>
<path d="M67.54 22.56L65.82 22.58L64.67 22.56L64.5 22.55C64.4 22.55 64.33 22.62 64.33 22.73C64.33 22.78 64.33 22.93 64.52 22.93C65.21 22.93 65.24 22.99 65.25 23.25V23.42L65.26 24.12V25.63C65.26 25.88 65.25 26.28 65.24 26.6C65.24 26.69 65.23 26.78 64.62 26.78C64.45 26.78 64.35 26.81 64.35 26.98C64.35 27.03 64.35 27.16 64.51 27.16H64.55C64.62 27.16 64.82 27.15 65.78 27.15C66.8 27.15 67.01 27.16 67.07 27.16H67.11C67.24 27.16 67.36 27.14 67.36 26.98C67.36 26.79 67.2 26.78 66.95 26.78C66.33 26.78 66.33 26.69 66.33 26.6C66.32 26.3 66.3 25.9 66.3 25.62C66.3 25.62 66.3 25.21 66.3 25.08C66.44 25.08 66.82 25.08 66.82 25.08C67.61 25.08 67.7 25.1 67.81 25.7C67.84 25.83 67.95 25.85 68.04 25.85C68.22 25.85 68.24 25.75 68.24 25.7L68.23 25.47C68.22 25.34 68.2 25.18 68.2 24.96V24.03C68.2 23.89 68.03 23.89 67.94 23.89C67.79 23.89 67.75 23.98 67.66 24.42C67.62 24.59 67.29 24.68 66.77 24.68C66.77 24.68 66.44 24.68 66.31 24.68C66.31 24.51 66.31 23.32 66.31 23.32C66.31 22.95 66.38 22.95 66.46 22.94C66.76 22.93 67.49 22.9 67.71 22.9C67.92 22.9 68.11 22.95 68.24 23.03C68.63 23.27 68.83 23.43 68.95 23.53C69.07 23.63 69.13 23.68 69.23 23.68C69.29 23.68 69.45 23.68 69.45 23.54C69.45 23.5 69.44 23.47 69.38 23.36C69.32 23.22 69.21 22.99 69.07 22.64C69.03 22.53 68.9 22.53 68.66 22.53L67.54 22.56Z" fill="white"/>
<path d="M64.79 31.33L64.32 29.83H64.59L64.84 30.7L64.93 31.02C64.93 31.01 64.96 30.9 65.01 30.71L65.25 29.83H65.51L65.74 30.7L65.81 30.99L65.9 30.7L66.17 29.83H66.42L65.94 31.33H65.68L65.45 30.43L65.39 30.17L65.08 31.33H64.79Z" fill="white"/>
<path d="M66.95 31.33L66.49 29.83H66.76L67 30.69L67.09 31.01C67.09 31 67.12 30.89 67.17 30.7L67.41 29.82H67.67L67.89 30.69L67.96 30.98L68.05 30.69L68.32 29.82H68.57L68.08 31.32H67.82L67.58 30.42L67.52 30.16L67.21 31.32L66.95 31.33Z" fill="white"/>
<path d="M69.12 31.33L68.65 29.83H68.92L69.17 30.7L69.26 31.02C69.26 31.01 69.29 30.9 69.34 30.71L69.58 29.83H69.84L70.06 30.7L70.13 30.99L70.22 30.7L70.49 29.83H70.74L70.25 31.33H69.99L69.75 30.43L69.69 30.17L69.38 31.33H69.12Z" fill="white"/>
<path d="M70.79 31.33V31.04H71.08V31.33H70.79Z" fill="white"/>
<path d="M71.52 31.33V30.02H71.3V29.82H71.52V29.66C71.52 29.56 71.53 29.48 71.55 29.43C71.57 29.36 71.62 29.31 71.68 29.27C71.74 29.23 71.83 29.21 71.94 29.21C72.01 29.21 72.09 29.22 72.18 29.23L72.14 29.45C72.08 29.44 72.04 29.43 71.99 29.43C71.91 29.43 71.85 29.45 71.82 29.48C71.79 29.51 71.77 29.57 71.77 29.66V29.8H72.07V30H71.77V31.31H71.52V31.33Z" fill="white"/>
<path d="M72.2 30.87L72.46 30.84C72.47 30.94 72.51 31.02 72.58 31.07C72.65 31.12 72.73 31.15 72.85 31.15C72.97 31.15 73.06 31.13 73.11 31.08C73.17 31.03 73.2 30.97 73.2 30.91C73.2 30.85 73.18 30.81 73.13 30.77C73.09 30.75 73.01 30.72 72.87 30.69C72.68 30.64 72.56 30.6 72.48 30.57C72.41 30.53 72.35 30.49 72.31 30.43C72.27 30.37 72.25 30.3 72.25 30.23C72.25 30.16 72.27 30.1 72.3 30.04C72.33 29.98 72.37 29.93 72.43 29.9C72.47 29.87 72.52 29.85 72.59 29.83C72.66 29.81 72.73 29.8 72.81 29.8C72.93 29.8 73.03 29.82 73.12 29.85C73.21 29.88 73.27 29.93 73.32 29.99C73.36 30.05 73.39 30.13 73.41 30.22L73.16 30.25C73.15 30.17 73.12 30.11 73.06 30.07C73 30.02 72.92 30 72.82 30C72.7 30 72.62 30.02 72.57 30.06C72.52 30.1 72.5 30.14 72.5 30.2C72.5 30.23 72.51 30.26 72.53 30.29C72.55 30.32 72.58 30.34 72.63 30.36C72.65 30.37 72.73 30.39 72.85 30.43C73.03 30.48 73.15 30.52 73.23 30.55C73.3 30.58 73.36 30.63 73.4 30.68C73.44 30.74 73.46 30.81 73.46 30.9C73.46 30.99 73.44 31.06 73.39 31.14C73.34 31.21 73.27 31.27 73.18 31.31C73.09 31.35 72.98 31.37 72.86 31.37C72.67 31.37 72.52 31.33 72.41 31.25C72.3 31.16 72.23 31.04 72.2 30.87Z" fill="white"/>
<path d="M74.73 30.78L74.98 30.81C74.95 30.98 74.88 31.12 74.77 31.21C74.66 31.31 74.52 31.36 74.36 31.36C74.15 31.36 73.99 31.29 73.86 31.16C73.73 31.02 73.67 30.83 73.67 30.58C73.67 30.42 73.7 30.27 73.75 30.15C73.8 30.03 73.89 29.94 74 29.88C74.11 29.82 74.23 29.79 74.36 29.79C74.52 29.79 74.66 29.83 74.76 29.91C74.87 29.99 74.93 30.11 74.96 30.27L74.71 30.3C74.69 30.2 74.64 30.12 74.58 30.07C74.52 30.03 74.45 30 74.37 30C74.24 30 74.14 30.04 74.06 30.14C73.98 30.23 73.94 30.38 73.94 30.58C73.94 30.78 73.98 30.93 74.06 31.02C74.14 31.11 74.24 31.16 74.36 31.16C74.46 31.16 74.54 31.13 74.61 31.07C74.67 31 74.71 30.91 74.73 30.78Z" fill="white"/>
<path d="M75.25 31.33V31.04H75.55V31.33H75.25Z" fill="white"/>
<path d="M75.78 30.58C75.78 30.3 75.86 30.1 76.01 29.96C76.14 29.85 76.3 29.79 76.49 29.79C76.7 29.79 76.87 29.86 77 29.99C77.13 30.13 77.2 30.31 77.2 30.55C77.2 30.74 77.17 30.9 77.11 31C77.05 31.11 76.97 31.2 76.86 31.26C76.75 31.32 76.63 31.35 76.5 31.35C76.29 31.35 76.12 31.28 75.98 31.15C75.85 31.02 75.78 30.83 75.78 30.58ZM76.05 30.58C76.05 30.77 76.09 30.92 76.18 31.01C76.26 31.11 76.37 31.15 76.5 31.15C76.63 31.15 76.74 31.1 76.82 31.01C76.91 30.92 76.95 30.77 76.95 30.57C76.95 30.38 76.91 30.24 76.82 30.15C76.73 30.05 76.62 30 76.49 30C76.36 30 76.25 30.05 76.17 30.14C76.09 30.24 76.05 30.38 76.05 30.58Z" fill="white"/>
<path d="M77.5 31.33V29.83H77.73V30.06C77.79 29.95 77.84 29.88 77.89 29.85C77.94 29.81 78 29.8 78.06 29.8C78.15 29.8 78.24 29.83 78.32 29.88L78.23 30.11C78.17 30.08 78.11 30.06 78.04 30.06C77.99 30.06 77.94 30.08 77.89 30.11C77.85 30.14 77.82 30.19 77.8 30.25C77.77 30.34 77.76 30.44 77.76 30.55V31.34L77.5 31.33Z" fill="white"/>
<path d="M78.4 31.45L78.66 31.48C78.67 31.56 78.7 31.61 78.75 31.65C78.81 31.7 78.9 31.72 79.01 31.72C79.13 31.72 79.22 31.7 79.29 31.65C79.35 31.6 79.4 31.54 79.42 31.45C79.43 31.4 79.44 31.29 79.44 31.12C79.33 31.25 79.19 31.32 79.02 31.32C78.81 31.32 78.65 31.25 78.54 31.1C78.42 30.95 78.37 30.77 78.37 30.56C78.37 30.42 78.39 30.29 78.45 30.16C78.5 30.04 78.58 29.95 78.68 29.88C78.78 29.81 78.9 29.78 79.03 29.78C79.21 29.78 79.36 29.86 79.48 30V29.81H79.71V31.11C79.71 31.34 79.69 31.51 79.64 31.61C79.6 31.7 79.52 31.78 79.41 31.84C79.31 31.9 79.18 31.92 79.02 31.92C78.84 31.92 78.69 31.88 78.58 31.8C78.45 31.74 78.39 31.61 78.4 31.45ZM78.61 30.55C78.61 30.75 78.65 30.89 78.73 30.98C78.81 31.07 78.91 31.11 79.03 31.11C79.15 31.11 79.25 31.07 79.33 30.98C79.41 30.89 79.45 30.75 79.45 30.55C79.45 30.37 79.41 30.23 79.32 30.14C79.24 30.05 79.14 30 79.02 30C78.91 30 78.81 30.05 78.73 30.14C78.65 30.23 78.61 30.37 78.61 30.55Z" fill="white"/>
<path d="M78.32 4.91C78.62 4.91 78.87 5.02 79.09 5.23C79.3 5.44 79.41 5.7 79.41 6C79.41 6.3 79.3 6.55 79.09 6.76C78.88 6.97 78.62 7.08 78.32 7.08C78.02 7.08 77.76 6.97 77.55 6.76C77.34 6.55 77.23 6.29 77.23 5.99C77.23 5.69 77.34 5.44 77.55 5.23C77.76 5.01 78.02 4.91 78.32 4.91ZM78.32 6.89C78.57 6.89 78.78 6.8 78.96 6.62C79.14 6.44 79.23 6.23 79.23 5.98C79.23 5.73 79.14 5.52 78.96 5.34C78.78 5.16 78.57 5.07 78.32 5.07C78.07 5.07 77.86 5.16 77.68 5.33C77.5 5.51 77.41 5.72 77.41 5.97C77.41 6.22 77.5 6.43 77.68 6.61C77.85 6.8 78.06 6.89 78.32 6.89ZM78.82 6.59H78.59C78.44 6.33 78.35 6.18 78.3 6.14C78.26 6.11 78.2 6.09 78.13 6.09H78.02V6.59H77.83V5.42H78.24C78.36 5.42 78.45 5.43 78.52 5.45C78.59 5.47 78.64 5.5 78.68 5.56C78.72 5.62 78.74 5.67 78.74 5.74C78.74 5.82 78.71 5.89 78.65 5.96C78.59 6.03 78.51 6.06 78.4 6.07V6.08C78.47 6.1 78.56 6.19 78.67 6.37L78.82 6.59ZM78.03 5.93H78.26C78.37 5.93 78.44 5.91 78.48 5.88C78.52 5.85 78.54 5.81 78.54 5.75C78.54 5.7 78.52 5.65 78.48 5.62C78.44 5.59 78.36 5.57 78.24 5.57H78.02V5.93H78.03Z" fill="white"/>
<path d="M78.32 4.91C78.62 4.91 78.87 5.02 79.09 5.23C79.3 5.44 79.41 5.7 79.41 6C79.41 6.3 79.3 6.55 79.09 6.76C78.88 6.97 78.62 7.08 78.32 7.08C78.02 7.08 77.76 6.97 77.55 6.76C77.34 6.55 77.23 6.29 77.23 5.99C77.23 5.69 77.34 5.44 77.55 5.23C77.76 5.01 78.02 4.91 78.32 4.91ZM78.32 6.89C78.57 6.89 78.78 6.8 78.96 6.62C79.14 6.44 79.23 6.23 79.23 5.98C79.23 5.73 79.14 5.52 78.96 5.34C78.78 5.16 78.57 5.07 78.32 5.07C78.07 5.07 77.86 5.16 77.68 5.33C77.5 5.51 77.41 5.72 77.41 5.97C77.41 6.22 77.5 6.43 77.68 6.61C77.85 6.8 78.06 6.89 78.32 6.89ZM78.82 6.59H78.59C78.44 6.33 78.35 6.18 78.3 6.14C78.26 6.11 78.2 6.09 78.13 6.09H78.02V6.59H77.83V5.42H78.24C78.36 5.42 78.45 5.43 78.52 5.45C78.59 5.47 78.64 5.5 78.68 5.56C78.72 5.62 78.74 5.67 78.74 5.74C78.74 5.82 78.71 5.89 78.65 5.96C78.59 6.03 78.51 6.06 78.4 6.07V6.08C78.47 6.1 78.56 6.19 78.67 6.37L78.82 6.59ZM78.03 5.93H78.26C78.37 5.93 78.44 5.91 78.48 5.88C78.52 5.85 78.54 5.81 78.54 5.75C78.54 5.7 78.52 5.65 78.48 5.62C78.44 5.59 78.36 5.57 78.24 5.57H78.02V5.93H78.03Z" stroke="white" stroke-width="0.1147"/>
<path d="M93.02 15.64H91.45V13.15H91.78V15.35H93.02V15.64Z" fill="white" stroke="white" stroke-width="0.0793"/>
<path d="M93.02 15.64H91.45V13.15H91.78V15.35H93.02V15.64Z" fill="white" stroke="white" stroke-width="0.0793"/>
<path d="M95.08 15.64H94.75C94.72 15.58 94.7 15.51 94.69 15.42C94.48 15.6 94.26 15.69 94.02 15.69C93.83 15.69 93.68 15.64 93.57 15.55C93.46 15.45 93.4 15.33 93.4 15.17C93.4 15.02 93.45 14.9 93.56 14.8C93.67 14.7 93.85 14.64 94.12 14.61L94.41 14.57C94.52 14.55 94.61 14.53 94.68 14.51C94.68 14.42 94.68 14.35 94.67 14.32C94.67 14.28 94.65 14.24 94.62 14.2C94.59 14.16 94.55 14.13 94.49 14.1C94.43 14.08 94.34 14.06 94.24 14.06C94.11 14.06 94 14.08 93.92 14.13C93.84 14.18 93.79 14.27 93.76 14.4L93.46 14.36C93.49 14.17 93.58 14.04 93.72 13.94C93.86 13.85 94.04 13.8 94.28 13.8C94.5 13.8 94.66 13.83 94.76 13.9C94.86 13.96 94.93 14.04 94.95 14.13C94.97 14.22 94.99 14.34 94.99 14.48V14.89C94.99 15.14 94.99 15.31 95 15.39C95.01 15.48 95.04 15.56 95.08 15.64ZM94.68 14.85V14.74C94.52 14.79 94.32 14.84 94.09 14.87C93.86 14.9 93.74 15 93.74 15.16C93.74 15.24 93.77 15.31 93.83 15.37C93.89 15.42 93.98 15.45 94.1 15.45C94.25 15.45 94.39 15.4 94.5 15.31C94.62 15.22 94.68 15.07 94.68 14.85Z" fill="white" stroke="white" stroke-width="0.0793"/>
<path d="M95.08 15.64H94.75C94.72 15.58 94.7 15.51 94.69 15.42C94.48 15.6 94.26 15.69 94.02 15.69C93.83 15.69 93.68 15.64 93.57 15.55C93.46 15.45 93.4 15.33 93.4 15.17C93.4 15.02 93.45 14.9 93.56 14.8C93.67 14.7 93.85 14.64 94.12 14.61L94.41 14.57C94.52 14.55 94.61 14.53 94.68 14.51C94.68 14.42 94.68 14.35 94.67 14.32C94.67 14.28 94.65 14.24 94.62 14.2C94.59 14.16 94.55 14.13 94.49 14.1C94.43 14.08 94.34 14.06 94.24 14.06C94.11 14.06 94 14.08 93.92 14.13C93.84 14.18 93.79 14.27 93.76 14.4L93.46 14.36C93.49 14.17 93.58 14.04 93.72 13.94C93.86 13.85 94.04 13.8 94.28 13.8C94.5 13.8 94.66 13.83 94.76 13.9C94.86 13.96 94.93 14.04 94.95 14.13C94.97 14.22 94.99 14.34 94.99 14.48V14.89C94.99 15.14 94.99 15.31 95 15.39C95.01 15.48 95.04 15.56 95.08 15.64ZM94.68 14.85V14.74C94.52 14.79 94.32 14.84 94.09 14.87C93.86 14.9 93.74 15 93.74 15.16C93.74 15.24 93.77 15.31 93.83 15.37C93.89 15.42 93.98 15.45 94.1 15.45C94.25 15.45 94.39 15.41 94.5 15.32C94.62 15.22 94.68 15.07 94.68 14.85Z" fill="white" stroke="white" stroke-width="0.0793"/>
<path d="M99.18 15.64H98.87V14.5C98.87 14.42 98.86 14.34 98.85 14.29C98.84 14.23 98.81 14.18 98.76 14.13C98.71 14.08 98.64 14.06 98.54 14.06C98.42 14.06 98.31 14.1 98.23 14.19C98.14 14.27 98.1 14.41 98.1 14.6V15.65H97.79V14.48C97.79 14.32 97.76 14.22 97.71 14.16C97.66 14.1 97.58 14.07 97.47 14.07C97.34 14.07 97.23 14.11 97.14 14.21C97.06 14.3 97.01 14.47 97.01 14.72V15.66H96.7V13.86H96.98V14.11H96.99C97.11 13.92 97.3 13.82 97.54 13.82C97.67 13.82 97.78 13.85 97.87 13.9C97.96 13.95 98.02 14.03 98.06 14.14C98.19 13.93 98.38 13.82 98.62 13.82C98.81 13.82 98.95 13.87 99.05 13.97C99.14 14.07 99.19 14.22 99.19 14.42V15.64H99.18Z" fill="white" stroke="white" stroke-width="0.0793"/>
<path d="M99.18 15.64H98.87V14.5C98.87 14.42 98.86 14.34 98.85 14.29C98.84 14.23 98.81 14.18 98.76 14.13C98.71 14.08 98.64 14.06 98.54 14.06C98.42 14.06 98.31 14.1 98.23 14.19C98.14 14.27 98.1 14.41 98.1 14.6V15.65H97.79V14.48C97.79 14.32 97.76 14.22 97.71 14.16C97.66 14.1 97.58 14.07 97.47 14.07C97.34 14.07 97.23 14.11 97.14 14.2C97.06 14.29 97.01 14.46 97.01 14.71V15.65H96.7V13.85H96.98V14.1H96.99C97.11 13.91 97.3 13.81 97.54 13.81C97.67 13.81 97.78 13.84 97.87 13.89C97.96 13.94 98.02 14.02 98.06 14.13C98.19 13.92 98.38 13.81 98.62 13.81C98.81 13.81 98.95 13.86 99.05 13.96C99.14 14.06 99.19 14.21 99.19 14.41V15.64H99.18Z" fill="white" stroke="white" stroke-width="0.0793"/>
<path d="M101.35 15.64H101.03C101 15.58 100.98 15.51 100.97 15.42C100.76 15.6 100.54 15.69 100.3 15.69C100.11 15.69 99.96 15.64 99.84 15.55C99.73 15.45 99.67 15.33 99.67 15.17C99.67 15.02 99.72 14.9 99.83 14.8C99.94 14.7 100.12 14.64 100.39 14.61L100.68 14.57C100.79 14.55 100.88 14.53 100.95 14.51C100.95 14.42 100.95 14.35 100.94 14.32C100.93 14.28 100.92 14.24 100.89 14.2C100.86 14.16 100.82 14.13 100.76 14.1C100.7 14.08 100.61 14.06 100.51 14.06C100.38 14.06 100.27 14.08 100.2 14.13C100.12 14.18 100.07 14.27 100.04 14.4L99.74 14.36C99.77 14.17 99.86 14.04 99.99 13.94C100.13 13.85 100.32 13.8 100.56 13.8C100.78 13.8 100.94 13.83 101.04 13.9C101.14 13.96 101.2 14.04 101.23 14.13C101.25 14.22 101.27 14.34 101.27 14.48V14.89C101.27 15.14 101.27 15.31 101.28 15.39C101.28 15.48 101.31 15.56 101.35 15.64ZM100.95 14.85V14.74C100.79 14.79 100.59 14.84 100.36 14.87C100.13 14.9 100.01 15 100.01 15.16C100.01 15.24 100.04 15.31 100.1 15.37C100.16 15.42 100.25 15.45 100.37 15.45C100.52 15.45 100.66 15.4 100.77 15.31C100.89 15.22 100.94 15.07 100.95 14.85Z" fill="white" stroke="white" stroke-width="0.0793"/>
<path d="M101.35 15.64H101.03C101 15.58 100.98 15.51 100.97 15.42C100.76 15.6 100.54 15.69 100.3 15.69C100.11 15.69 99.96 15.64 99.84 15.55C99.73 15.45 99.67 15.33 99.67 15.17C99.67 15.02 99.72 14.9 99.83 14.8C99.94 14.7 100.12 14.64 100.39 14.61L100.68 14.57C100.79 14.55 100.88 14.53 100.95 14.51C100.95 14.42 100.95 14.35 100.94 14.32C100.93 14.28 100.92 14.24 100.89 14.2C100.86 14.16 100.82 14.13 100.76 14.1C100.7 14.08 100.61 14.06 100.51 14.06C100.38 14.06 100.27 14.08 100.2 14.13C100.12 14.18 100.07 14.27 100.04 14.4L99.74 14.36C99.77 14.17 99.86 14.04 99.99 13.94C100.13 13.85 100.32 13.8 100.56 13.8C100.78 13.8 100.94 13.83 101.04 13.9C101.14 13.96 101.2 14.04 101.23 14.13C101.25 14.22 101.27 14.34 101.27 14.48V14.89C101.27 15.14 101.27 15.31 101.28 15.39C101.28 15.48 101.31 15.56 101.35 15.64ZM100.95 14.85V14.74C100.79 14.79 100.59 14.84 100.36 14.87C100.13 14.9 100.01 15 100.01 15.16C100.01 15.24 100.04 15.31 100.1 15.37C100.16 15.42 100.25 15.45 100.37 15.45C100.52 15.45 100.66 15.41 100.77 15.32C100.89 15.22 100.94 15.07 100.95 14.85Z" fill="white" stroke="white" stroke-width="0.0793"/>
<path d="M102.85 13.9L102.74 14.18C102.66 14.14 102.59 14.11 102.51 14.11C102.4 14.11 102.31 14.16 102.25 14.26C102.19 14.36 102.16 14.51 102.16 14.69V15.64H101.85V13.84H102.13V14.11H102.14C102.24 13.9 102.37 13.79 102.53 13.79C102.64 13.8 102.74 13.83 102.85 13.9Z" fill="white" stroke="white" stroke-width="0.0793"/>
<path d="M102.85 13.9L102.74 14.18C102.66 14.13 102.59 14.11 102.51 14.11C102.4 14.11 102.31 14.16 102.25 14.26C102.19 14.36 102.16 14.51 102.16 14.69V15.64H101.85V13.84H102.13V14.11H102.14C102.24 13.9 102.37 13.8 102.53 13.8C102.64 13.8 102.74 13.83 102.85 13.9Z" fill="white" stroke="white" stroke-width="0.0793"/>
<path d="M104.67 15.02C104.63 15.25 104.54 15.42 104.4 15.52C104.26 15.63 104.1 15.68 103.91 15.68C103.65 15.68 103.44 15.59 103.3 15.42C103.16 15.25 103.08 15.02 103.08 14.74C103.08 14.51 103.12 14.32 103.2 14.18C103.28 14.04 103.39 13.94 103.51 13.88C103.64 13.82 103.77 13.79 103.9 13.79C104.09 13.79 104.25 13.84 104.38 13.94C104.51 14.04 104.59 14.18 104.63 14.37L104.33 14.42C104.3 14.3 104.25 14.21 104.18 14.15C104.11 14.09 104.02 14.06 103.91 14.06C103.74 14.06 103.61 14.12 103.52 14.24C103.43 14.36 103.39 14.53 103.39 14.75C103.39 14.97 103.43 15.14 103.52 15.27C103.61 15.39 103.73 15.45 103.9 15.45C104.03 15.45 104.14 15.41 104.21 15.34C104.28 15.26 104.33 15.15 104.35 15L104.67 15.02Z" fill="white" stroke="white" stroke-width="0.0793"/>
<path d="M104.67 15.02C104.63 15.25 104.54 15.42 104.4 15.52C104.26 15.63 104.1 15.68 103.91 15.68C103.65 15.68 103.44 15.59 103.3 15.42C103.16 15.25 103.08 15.02 103.08 14.74C103.08 14.51 103.12 14.32 103.2 14.18C103.28 14.04 103.39 13.94 103.51 13.88C103.64 13.82 103.77 13.79 103.9 13.79C104.09 13.79 104.25 13.84 104.38 13.94C104.51 14.04 104.59 14.18 104.63 14.37L104.33 14.42C104.3 14.3 104.25 14.21 104.18 14.15C104.11 14.09 104.02 14.06 103.91 14.06C103.74 14.06 103.61 14.12 103.52 14.24C103.43 14.36 103.39 14.53 103.39 14.75C103.39 14.97 103.43 15.14 103.52 15.27C103.61 15.39 103.73 15.45 103.9 15.45C104.03 15.45 104.14 15.41 104.21 15.34C104.28 15.26 104.33 15.15 104.35 15L104.67 15.02Z" fill="white" stroke="white" stroke-width="0.0793"/>
<path d="M106.65 15.64H106.33C106.3 15.58 106.28 15.51 106.27 15.42C106.06 15.6 105.84 15.69 105.6 15.69C105.41 15.69 105.26 15.64 105.15 15.55C105.04 15.45 104.98 15.33 104.98 15.17C104.98 15.02 105.03 14.9 105.14 14.8C105.25 14.7 105.43 14.64 105.7 14.61L105.99 14.57C106.1 14.55 106.19 14.53 106.26 14.51C106.26 14.42 106.26 14.35 106.25 14.32C106.24 14.28 106.23 14.24 106.2 14.2C106.17 14.16 106.13 14.13 106.07 14.1C106.01 14.08 105.92 14.06 105.82 14.06C105.69 14.06 105.58 14.08 105.51 14.13C105.43 14.18 105.38 14.27 105.35 14.4L105.05 14.36C105.08 14.17 105.17 14.04 105.3 13.94C105.44 13.85 105.63 13.8 105.87 13.8C106.09 13.8 106.25 13.83 106.35 13.9C106.45 13.96 106.51 14.04 106.54 14.13C106.56 14.22 106.58 14.34 106.58 14.48V14.89C106.58 15.14 106.58 15.31 106.59 15.39C106.57 15.48 106.6 15.56 106.65 15.64ZM106.24 14.85V14.74C106.08 14.79 105.88 14.84 105.65 14.87C105.42 14.9 105.3 15 105.3 15.16C105.3 15.24 105.33 15.31 105.39 15.37C105.45 15.42 105.54 15.45 105.66 15.45C105.81 15.45 105.95 15.4 106.06 15.31C106.18 15.22 106.24 15.07 106.24 14.85Z" fill="white" stroke="white" stroke-width="0.0793"/>
<path d="M106.65 15.64H106.33C106.3 15.58 106.28 15.51 106.27 15.42C106.06 15.6 105.84 15.69 105.6 15.69C105.41 15.69 105.26 15.64 105.15 15.55C105.04 15.45 104.98 15.33 104.98 15.17C104.98 15.02 105.03 14.9 105.14 14.8C105.25 14.7 105.43 14.64 105.7 14.61L105.99 14.57C106.1 14.55 106.19 14.53 106.26 14.51C106.26 14.42 106.26 14.35 106.25 14.32C106.24 14.28 106.23 14.24 106.2 14.2C106.17 14.16 106.13 14.13 106.07 14.1C106.01 14.08 105.92 14.06 105.82 14.06C105.69 14.06 105.58 14.08 105.51 14.13C105.43 14.18 105.38 14.27 105.35 14.4L105.05 14.36C105.08 14.17 105.17 14.04 105.3 13.94C105.44 13.85 105.63 13.8 105.87 13.8C106.09 13.8 106.25 13.83 106.35 13.9C106.45 13.96 106.51 14.04 106.54 14.13C106.56 14.22 106.58 14.34 106.58 14.48V14.89C106.58 15.14 106.58 15.31 106.59 15.39C106.57 15.48 106.6 15.56 106.65 15.64ZM106.24 14.85V14.74C106.08 14.79 105.88 14.84 105.65 14.87C105.42 14.9 105.3 15 105.3 15.16C105.3 15.24 105.33 15.31 105.39 15.37C105.45 15.42 105.54 15.45 105.66 15.45C105.81 15.45 105.95 15.41 106.06 15.32C106.18 15.22 106.24 15.07 106.24 14.85Z" fill="white" stroke="white" stroke-width="0.0793"/>
<path d="M109.75 15.64H109.46V15.41H109.45C109.34 15.59 109.17 15.68 108.95 15.68C108.73 15.68 108.54 15.59 108.39 15.42C108.24 15.24 108.17 15.02 108.17 14.74C108.17 14.45 108.24 14.22 108.38 14.05C108.52 13.88 108.71 13.8 108.94 13.8C109.16 13.8 109.32 13.88 109.44 14.05H109.45V13.16H109.76V15.64H109.75ZM108.98 15.43C109.11 15.43 109.23 15.38 109.32 15.27C109.41 15.16 109.46 14.99 109.46 14.77C109.46 14.55 109.42 14.37 109.33 14.24C109.24 14.11 109.12 14.05 108.96 14.05C108.8 14.05 108.68 14.11 108.6 14.24C108.52 14.37 108.48 14.54 108.48 14.74C108.48 14.89 108.5 15.02 108.55 15.12C108.59 15.22 108.66 15.3 108.73 15.36C108.81 15.41 108.9 15.44 108.98 15.43Z" fill="white" stroke="white" stroke-width="0.0793"/>
<path d="M109.75 15.64H109.46V15.41H109.45C109.34 15.59 109.17 15.68 108.95 15.68C108.73 15.68 108.54 15.59 108.39 15.42C108.24 15.24 108.17 15.02 108.17 14.74C108.17 14.45 108.24 14.22 108.38 14.05C108.52 13.88 108.71 13.8 108.94 13.8C109.16 13.8 109.32 13.88 109.44 14.05H109.45V13.16H109.76V15.64H109.75ZM108.98 15.43C109.11 15.43 109.23 15.38 109.32 15.27C109.41 15.16 109.46 14.99 109.46 14.77C109.46 14.55 109.42 14.37 109.33 14.24C109.24 14.11 109.12 14.05 108.96 14.05C108.8 14.05 108.68 14.11 108.6 14.24C108.52 14.37 108.48 14.53 108.48 14.74C108.48 14.89 108.5 15.02 108.55 15.12C108.59 15.22 108.66 15.3 108.73 15.36C108.81 15.41 108.9 15.44 108.98 15.43Z" fill="white" stroke="white" stroke-width="0.0793"/>
<path d="M111.95 14.82H110.59C110.6 15.02 110.66 15.17 110.76 15.28C110.86 15.39 110.99 15.44 111.14 15.44C111.26 15.44 111.36 15.41 111.44 15.35C111.52 15.29 111.58 15.19 111.62 15.07L111.94 15.11C111.89 15.3 111.79 15.44 111.66 15.54C111.52 15.64 111.35 15.69 111.14 15.69C110.87 15.69 110.65 15.61 110.5 15.44C110.35 15.27 110.27 15.05 110.27 14.76C110.27 14.47 110.34 14.24 110.49 14.07C110.64 13.89 110.85 13.8 111.12 13.8C111.25 13.8 111.38 13.83 111.5 13.89C111.62 13.95 111.72 14.05 111.81 14.18C111.91 14.32 111.95 14.53 111.95 14.82ZM111.63 14.57C111.62 14.39 111.56 14.25 111.46 14.17C111.36 14.09 111.25 14.05 111.12 14.05C110.97 14.05 110.85 14.1 110.76 14.19C110.67 14.29 110.61 14.41 110.6 14.56H111.63V14.57Z" fill="white" stroke="white" stroke-width="0.0793"/>
<path d="M111.95 14.82H110.59C110.6 15.02 110.66 15.17 110.76 15.28C110.86 15.39 110.99 15.44 111.14 15.44C111.26 15.44 111.36 15.41 111.44 15.35C111.52 15.29 111.58 15.19 111.62 15.07L111.94 15.11C111.89 15.3 111.79 15.44 111.66 15.54C111.52 15.64 111.35 15.69 111.14 15.69C110.87 15.69 110.65 15.61 110.5 15.44C110.35 15.27 110.27 15.05 110.27 14.76C110.27 14.47 110.34 14.24 110.49 14.07C110.64 13.89 110.85 13.8 111.12 13.8C111.25 13.8 111.38 13.83 111.5 13.89C111.62 13.95 111.72 14.05 111.81 14.19C111.91 14.32 111.95 14.53 111.95 14.82ZM111.63 14.57C111.62 14.39 111.56 14.26 111.46 14.17C111.36 14.09 111.25 14.05 111.12 14.05C110.97 14.05 110.85 14.1 110.76 14.19C110.67 14.29 110.61 14.41 110.6 14.56H111.63V14.57Z" fill="white" stroke="white" stroke-width="0.0793"/>
<path d="M112.77 13.15H112.46V15.64H112.77V13.15Z" fill="white" stroke="white" stroke-width="0.0793"/>
<path d="M112.77 13.15H112.46V15.64H112.77V13.15Z" fill="white" stroke="white" stroke-width="0.0793"/>
<path d="M116.96 15.64H116.65V14.5C116.65 14.42 116.64 14.34 116.63 14.29C116.62 14.23 116.59 14.18 116.54 14.13C116.49 14.08 116.42 14.06 116.32 14.06C116.2 14.06 116.1 14.1 116.01 14.19C115.92 14.27 115.88 14.41 115.88 14.6V15.65H115.57V14.48C115.57 14.32 115.54 14.22 115.49 14.16C115.44 14.1 115.36 14.07 115.25 14.07C115.12 14.07 115.01 14.11 114.92 14.21C114.84 14.3 114.79 14.47 114.79 14.72V15.66H114.48V13.86H114.76V14.11H114.77C114.89 13.92 115.08 13.82 115.31 13.82C115.44 13.82 115.55 13.85 115.64 13.9C115.73 13.95 115.79 14.03 115.83 14.14C115.96 13.93 116.15 13.82 116.39 13.82C116.58 13.82 116.72 13.87 116.81 13.97C116.9 14.07 116.95 14.22 116.95 14.42V15.64H116.96Z" fill="white" stroke="white" stroke-width="0.0793"/>
<path d="M116.96 15.64H116.65V14.5C116.65 14.42 116.64 14.34 116.63 14.29C116.62 14.23 116.59 14.18 116.54 14.13C116.49 14.08 116.42 14.06 116.32 14.06C116.2 14.06 116.1 14.1 116.01 14.19C115.92 14.27 115.88 14.41 115.88 14.6V15.65H115.57V14.48C115.57 14.32 115.54 14.22 115.49 14.16C115.44 14.1 115.36 14.07 115.25 14.07C115.12 14.07 115.01 14.11 114.92 14.2C114.84 14.29 114.79 14.46 114.79 14.71V15.65H114.48V13.85H114.76V14.1H114.77C114.89 13.91 115.08 13.81 115.31 13.81C115.44 13.81 115.55 13.84 115.64 13.89C115.73 13.94 115.79 14.02 115.83 14.13C115.96 13.92 116.15 13.81 116.39 13.81C116.58 13.81 116.72 13.86 116.81 13.96C116.9 14.06 116.95 14.21 116.95 14.41V15.64H116.96Z" fill="white" stroke="white" stroke-width="0.0793"/>
<path d="M119.13 15.64H118.81C118.78 15.58 118.76 15.51 118.75 15.42C118.54 15.6 118.32 15.69 118.08 15.69C117.89 15.69 117.74 15.64 117.63 15.55C117.52 15.45 117.46 15.33 117.46 15.17C117.46 15.02 117.51 14.9 117.62 14.8C117.73 14.7 117.91 14.64 118.18 14.61L118.47 14.57C118.58 14.55 118.67 14.53 118.74 14.51C118.74 14.42 118.74 14.35 118.73 14.32C118.72 14.28 118.71 14.24 118.68 14.2C118.65 14.16 118.61 14.13 118.54 14.1C118.48 14.08 118.39 14.06 118.29 14.06C118.16 14.06 118.05 14.08 117.98 14.13C117.9 14.18 117.85 14.27 117.82 14.4L117.52 14.36C117.55 14.17 117.64 14.04 117.77 13.94C117.91 13.85 118.1 13.8 118.34 13.8C118.56 13.8 118.72 13.83 118.82 13.9C118.92 13.96 118.98 14.04 119.01 14.13C119.03 14.22 119.05 14.34 119.05 14.48V14.89C119.05 15.14 119.05 15.31 119.06 15.39C119.06 15.48 119.09 15.56 119.13 15.64ZM118.73 14.85V14.74C118.57 14.79 118.37 14.84 118.14 14.87C117.91 14.9 117.79 15 117.79 15.16C117.79 15.24 117.82 15.31 117.89 15.37C117.95 15.42 118.04 15.45 118.16 15.45C118.31 15.45 118.45 15.4 118.56 15.31C118.67 15.22 118.73 15.07 118.73 14.85Z" fill="white" stroke="white" stroke-width="0.0793"/>
<path d="M119.13 15.64H118.81C118.78 15.58 118.76 15.51 118.75 15.42C118.54 15.6 118.32 15.69 118.08 15.69C117.89 15.69 117.74 15.64 117.63 15.55C117.52 15.45 117.46 15.33 117.46 15.17C117.46 15.02 117.51 14.9 117.62 14.8C117.73 14.7 117.91 14.64 118.18 14.61L118.47 14.57C118.58 14.55 118.67 14.53 118.74 14.51C118.74 14.42 118.74 14.35 118.73 14.32C118.72 14.28 118.71 14.24 118.68 14.2C118.65 14.16 118.61 14.13 118.54 14.1C118.48 14.08 118.39 14.06 118.29 14.06C118.16 14.06 118.05 14.08 117.98 14.13C117.9 14.18 117.85 14.27 117.82 14.4L117.52 14.36C117.55 14.17 117.64 14.04 117.77 13.94C117.91 13.85 118.1 13.8 118.34 13.8C118.56 13.8 118.72 13.83 118.82 13.9C118.92 13.96 118.98 14.04 119.01 14.13C119.03 14.22 119.05 14.34 119.05 14.48V14.89C119.05 15.14 119.05 15.31 119.06 15.39C119.06 15.48 119.09 15.56 119.13 15.64ZM118.73 14.85V14.74C118.57 14.79 118.37 14.84 118.14 14.87C117.91 14.9 117.79 15 117.79 15.16C117.79 15.24 117.82 15.31 117.89 15.37C117.95 15.42 118.04 15.45 118.16 15.45C118.31 15.45 118.45 15.41 118.56 15.32C118.67 15.22 118.73 15.07 118.73 14.85Z" fill="white" stroke="white" stroke-width="0.0793"/>
<path d="M121.14 15.64H120.83V14.54C120.83 14.36 120.8 14.23 120.73 14.16C120.66 14.09 120.57 14.06 120.45 14.06C120.36 14.06 120.27 14.08 120.19 14.13C120.11 14.18 120.05 14.24 120.01 14.32C119.98 14.4 119.96 14.52 119.96 14.66V15.65H119.65V13.85H119.93V14.1H119.94C120.01 14 120.08 13.93 120.18 13.88C120.27 13.83 120.38 13.81 120.51 13.8C120.61 13.8 120.7 13.82 120.8 13.85C120.89 13.88 120.97 13.94 121.02 14C121.07 14.07 121.11 14.14 121.12 14.22C121.14 14.3 121.14 14.4 121.14 14.53V15.64Z" fill="white" stroke="white" stroke-width="0.0793"/>
<path d="M121.14 15.64H120.83V14.54C120.83 14.36 120.8 14.23 120.73 14.16C120.66 14.09 120.57 14.06 120.45 14.06C120.36 14.06 120.27 14.08 120.19 14.13C120.11 14.18 120.05 14.24 120.01 14.32C119.98 14.4 119.96 14.52 119.96 14.66V15.65H119.65V13.85H119.93V14.1H119.94C120.01 14 120.08 13.93 120.18 13.88C120.27 13.83 120.38 13.81 120.51 13.8C120.61 13.8 120.7 13.82 120.8 13.85C120.89 13.88 120.97 13.94 121.02 14C121.07 14.07 121.11 14.14 121.12 14.22C121.14 14.3 121.14 14.4 121.14 14.53V15.64Z" fill="white" stroke="white" stroke-width="0.0793"/>
<path d="M123.32 14.82H121.96C121.97 15.02 122.03 15.17 122.13 15.28C122.23 15.39 122.36 15.44 122.52 15.44C122.64 15.44 122.74 15.41 122.81 15.35C122.89 15.29 122.95 15.19 123 15.07L123.32 15.11C123.27 15.3 123.17 15.44 123.04 15.54C122.9 15.64 122.73 15.69 122.53 15.69C122.26 15.69 122.04 15.61 121.89 15.44C121.74 15.27 121.66 15.05 121.66 14.76C121.66 14.47 121.73 14.24 121.88 14.07C122.03 13.89 122.24 13.8 122.51 13.8C122.64 13.8 122.77 13.83 122.89 13.89C123.01 13.95 123.12 14.05 123.2 14.18C123.28 14.32 123.32 14.53 123.32 14.82ZM123.01 14.57C123 14.39 122.94 14.25 122.84 14.17C122.74 14.09 122.63 14.05 122.5 14.05C122.35 14.05 122.23 14.1 122.14 14.19C122.05 14.29 121.99 14.41 121.98 14.56H123.01V14.57Z" fill="white" stroke="white" stroke-width="0.0793"/>
<path d="M123.32 14.82H121.96C121.97 15.02 122.03 15.17 122.13 15.28C122.23 15.39 122.36 15.44 122.52 15.44C122.64 15.44 122.74 15.41 122.81 15.35C122.89 15.29 122.95 15.19 123 15.07L123.32 15.11C123.27 15.3 123.17 15.44 123.04 15.54C122.9 15.64 122.73 15.69 122.53 15.69C122.26 15.69 122.04 15.61 121.89 15.44C121.74 15.27 121.66 15.05 121.66 14.76C121.66 14.47 121.73 14.24 121.88 14.07C122.03 13.89 122.24 13.8 122.51 13.8C122.64 13.8 122.77 13.83 122.89 13.89C123.01 13.95 123.12 14.05 123.2 14.19C123.28 14.32 123.32 14.53 123.32 14.82ZM123.01 14.57C123 14.39 122.94 14.26 122.84 14.17C122.74 14.09 122.63 14.05 122.5 14.05C122.35 14.05 122.23 14.1 122.14 14.19C122.05 14.29 121.99 14.41 121.98 14.56H123.01V14.57Z" fill="white" stroke="white" stroke-width="0.0793"/>
<path d="M124.14 15.74C124.14 15.86 124.13 15.96 124.12 16.05C124.1 16.14 124.06 16.21 124 16.28C123.93 16.35 123.83 16.38 123.69 16.38C123.61 16.38 123.53 16.37 123.45 16.35L123.51 16.09C123.57 16.11 123.62 16.11 123.65 16.11C123.72 16.11 123.76 16.09 123.79 16.04C123.82 16 123.83 15.89 123.83 15.73V13.84H124.14V15.74ZM124.14 13.5H123.83V13.15H124.14V13.5Z" fill="white" stroke="white" stroke-width="0.0793"/>
<path d="M124.14 15.74C124.14 15.86 124.13 15.96 124.12 16.05C124.1 16.14 124.06 16.21 124 16.28C123.93 16.35 123.83 16.38 123.69 16.38C123.61 16.38 123.53 16.37 123.45 16.35L123.51 16.09C123.57 16.11 123.62 16.12 123.65 16.12C123.72 16.12 123.76 16.1 123.79 16.05C123.82 16.01 123.83 15.9 123.83 15.74V13.85H124.14V15.74ZM124.14 13.5H123.83V13.15H124.14V13.5Z" fill="white" stroke="white" stroke-width="0.0793"/>
<path d="M125.49 13.8C125.74 13.8 125.94 13.88 126.1 14.04C126.26 14.2 126.34 14.43 126.34 14.72C126.34 15.08 126.25 15.33 126.08 15.47C125.9 15.62 125.71 15.69 125.49 15.69C125.26 15.69 125.06 15.62 124.89 15.46C124.72 15.31 124.64 15.07 124.64 14.74C124.64 14.42 124.72 14.19 124.89 14.03C125.05 13.88 125.25 13.8 125.49 13.8ZM125.49 15.43C125.67 15.43 125.8 15.37 125.89 15.24C125.98 15.11 126.03 14.94 126.03 14.73C126.03 14.5 125.98 14.33 125.87 14.22C125.77 14.1 125.64 14.05 125.49 14.05C125.33 14.05 125.2 14.11 125.1 14.22C125 14.33 124.95 14.51 124.95 14.74C124.95 14.97 125 15.14 125.1 15.26C125.21 15.38 125.34 15.43 125.49 15.43Z" fill="white" stroke="white" stroke-width="0.0793"/>
<path d="M125.49 13.8C125.74 13.8 125.94 13.88 126.1 14.04C126.26 14.2 126.34 14.43 126.34 14.72C126.34 15.08 126.25 15.33 126.08 15.47C125.9 15.62 125.71 15.69 125.49 15.69C125.26 15.69 125.06 15.62 124.89 15.46C124.72 15.31 124.64 15.07 124.64 14.74C124.64 14.42 124.72 14.19 124.89 14.03C125.05 13.88 125.25 13.8 125.49 13.8ZM125.49 15.43C125.67 15.43 125.8 15.37 125.89 15.24C125.98 15.11 126.03 14.94 126.03 14.73C126.03 14.5 125.98 14.33 125.87 14.22C125.77 14.11 125.64 14.05 125.49 14.05C125.33 14.05 125.2 14.11 125.1 14.22C125 14.33 124.95 14.51 124.95 14.74C124.95 14.97 125 15.14 125.1 15.26C125.21 15.38 125.34 15.43 125.49 15.43Z" fill="white" stroke="white" stroke-width="0.0793"/>
<path d="M92.79 17.13L92.74 17.4C92.68 17.39 92.62 17.38 92.56 17.38C92.49 17.38 92.43 17.4 92.38 17.43C92.33 17.46 92.31 17.54 92.31 17.66V17.83H92.66V18.07H92.31V19.64H92V18.07H91.73V17.83H92V17.63C92 17.54 92.01 17.46 92.02 17.38C92.04 17.31 92.08 17.24 92.15 17.18C92.22 17.12 92.34 17.09 92.49 17.09C92.59 17.1 92.69 17.11 92.79 17.13Z" fill="white" stroke="white" stroke-width="0.0793"/>
<path d="M92.79 17.13L92.74 17.4C92.68 17.39 92.62 17.38 92.56 17.38C92.49 17.38 92.43 17.4 92.38 17.43C92.33 17.46 92.31 17.54 92.31 17.66V17.83H92.66V18.07H92.31V19.64H92V18.07H91.73V17.83H92V17.63C92 17.54 92.01 17.46 92.02 17.38C92.04 17.31 92.08 17.24 92.15 17.18C92.22 17.12 92.34 17.09 92.49 17.09C92.59 17.1 92.69 17.11 92.79 17.13Z" fill="white" stroke="white" stroke-width="0.0793"/>
<path d="M93.79 17.79C94.04 17.79 94.24 17.87 94.4 18.03C94.56 18.19 94.64 18.41 94.64 18.71C94.64 19.07 94.55 19.32 94.38 19.46C94.2 19.61 94.01 19.68 93.79 19.68C93.56 19.68 93.36 19.6 93.19 19.45C93.02 19.3 92.94 19.06 92.94 18.73C92.94 18.41 93.02 18.18 93.19 18.02C93.34 17.87 93.54 17.79 93.79 17.79ZM93.79 19.43C93.97 19.43 94.1 19.36 94.19 19.24C94.28 19.11 94.33 18.94 94.33 18.73C94.33 18.51 94.28 18.33 94.17 18.22C94.07 18.11 93.94 18.05 93.79 18.05C93.63 18.05 93.5 18.11 93.4 18.22C93.3 18.34 93.25 18.51 93.25 18.74C93.25 18.97 93.3 19.14 93.4 19.26C93.5 19.37 93.63 19.42 93.79 19.43Z" fill="white" stroke="white" stroke-width="0.0793"/>
<path d="M93.79 17.79C94.03 17.79 94.24 17.87 94.4 18.03C94.56 18.19 94.64 18.41 94.64 18.71C94.64 19.07 94.55 19.32 94.38 19.46C94.2 19.61 94.01 19.68 93.79 19.68C93.56 19.68 93.36 19.6 93.19 19.45C93.02 19.3 92.94 19.06 92.94 18.73C92.94 18.41 93.02 18.18 93.19 18.02C93.34 17.87 93.54 17.79 93.79 17.79ZM93.79 19.43C93.97 19.43 94.1 19.36 94.19 19.24C94.28 19.11 94.33 18.94 94.33 18.73C94.33 18.5 94.28 18.33 94.17 18.22C94.07 18.11 93.94 18.05 93.79 18.05C93.63 18.05 93.5 18.11 93.4 18.22C93.3 18.33 93.25 18.51 93.25 18.74C93.25 18.97 93.3 19.14 93.4 19.26C93.5 19.37 93.63 19.42 93.79 19.43Z" fill="white" stroke="white" stroke-width="0.0793"/>
<path d="M96.12 17.89L96.01 18.17C95.93 18.13 95.86 18.1 95.78 18.1C95.67 18.1 95.58 18.15 95.52 18.25C95.46 18.35 95.43 18.5 95.43 18.68V19.63H95.12V17.82H95.4V18.09H95.41C95.51 17.88 95.64 17.78 95.8 17.78C95.9 17.79 96.01 17.82 96.12 17.89Z" fill="white" stroke="white" stroke-width="0.0793"/>
<path d="M96.12 17.89L96.01 18.17C95.93 18.13 95.86 18.1 95.78 18.1C95.67 18.1 95.58 18.15 95.52 18.25C95.46 18.35 95.43 18.5 95.43 18.68V19.63H95.12V17.82H95.4V18.09H95.41C95.51 17.88 95.64 17.78 95.8 17.78C95.9 17.79 96.01 17.82 96.12 17.89Z" fill="white" stroke="white" stroke-width="0.0793"/>
<path d="M98.03 18.81H96.67C96.68 19.01 96.74 19.16 96.84 19.27C96.94 19.38 97.07 19.43 97.23 19.43C97.35 19.43 97.45 19.4 97.53 19.34C97.61 19.28 97.67 19.18 97.71 19.06L98.03 19.1C97.98 19.29 97.88 19.43 97.75 19.53C97.61 19.63 97.44 19.68 97.24 19.68C96.97 19.68 96.75 19.6 96.6 19.43C96.44 19.27 96.37 19.04 96.37 18.75C96.37 18.47 96.44 18.23 96.59 18.06C96.74 17.88 96.95 17.79 97.22 17.79C97.35 17.79 97.48 17.82 97.6 17.88C97.72 17.94 97.83 18.04 97.91 18.18C97.98 18.31 98.03 18.52 98.03 18.81ZM97.71 18.56C97.7 18.38 97.64 18.24 97.54 18.16C97.44 18.08 97.33 18.04 97.2 18.04C97.06 18.04 96.94 18.09 96.84 18.18C96.74 18.27 96.69 18.4 96.68 18.55H97.71V18.56Z" fill="white" stroke="white" stroke-width="0.0793"/>
<path d="M98.03 18.81H96.67C96.68 19.01 96.74 19.16 96.84 19.27C96.94 19.38 97.07 19.43 97.23 19.43C97.35 19.43 97.45 19.4 97.53 19.34C97.61 19.28 97.67 19.18 97.71 19.06L98.03 19.1C97.98 19.29 97.88 19.43 97.75 19.53C97.61 19.63 97.44 19.68 97.24 19.68C96.97 19.68 96.75 19.6 96.6 19.43C96.44 19.27 96.37 19.04 96.37 18.75C96.37 18.47 96.44 18.23 96.59 18.06C96.74 17.88 96.95 17.79 97.22 17.79C97.35 17.79 97.48 17.82 97.6 17.88C97.72 17.94 97.83 18.04 97.91 18.17C97.98 18.31 98.03 18.52 98.03 18.81ZM97.71 18.56C97.7 18.38 97.64 18.24 97.54 18.16C97.44 18.08 97.33 18.04 97.2 18.04C97.06 18.04 96.94 18.09 96.84 18.18C96.75 18.28 96.69 18.4 96.68 18.55H97.71V18.56Z" fill="white" stroke="white" stroke-width="0.0793"/>
<path d="M99.55 18.33C99.54 18.23 99.5 18.16 99.43 18.11C99.36 18.06 99.27 18.04 99.15 18.04C99.03 18.04 98.94 18.06 98.86 18.1C98.79 18.14 98.75 18.2 98.75 18.27C98.75 18.34 98.78 18.39 98.84 18.42C98.9 18.45 99.01 18.49 99.18 18.53C99.37 18.58 99.52 18.62 99.61 18.66C99.7 18.7 99.78 18.75 99.83 18.82C99.88 18.89 99.91 18.98 99.91 19.1C99.91 19.26 99.84 19.4 99.71 19.51C99.58 19.62 99.4 19.68 99.18 19.68C98.95 19.68 98.77 19.63 98.64 19.53C98.51 19.44 98.43 19.29 98.4 19.09L98.71 19.04C98.73 19.17 98.77 19.26 98.85 19.32C98.93 19.38 99.04 19.41 99.18 19.41C99.31 19.41 99.42 19.38 99.49 19.33C99.56 19.27 99.6 19.21 99.6 19.12C99.6 19.07 99.58 19.02 99.55 18.99C99.52 18.96 99.48 18.93 99.43 18.92C99.38 18.9 99.27 18.87 99.09 18.83C98.83 18.77 98.66 18.7 98.58 18.61C98.5 18.52 98.46 18.42 98.46 18.3C98.46 18.15 98.52 18.03 98.64 17.93C98.76 17.83 98.92 17.78 99.13 17.78C99.35 17.78 99.52 17.82 99.64 17.91C99.76 17.99 99.83 18.12 99.86 18.29L99.55 18.33Z" fill="white" stroke="white" stroke-width="0.0793"/>
<path d="M99.55 18.34C99.54 18.24 99.5 18.17 99.43 18.12C99.36 18.07 99.27 18.05 99.15 18.05C99.03 18.05 98.94 18.07 98.86 18.11C98.79 18.15 98.75 18.21 98.75 18.28C98.75 18.35 98.78 18.4 98.84 18.43C98.9 18.46 99.01 18.5 99.18 18.54C99.37 18.59 99.52 18.63 99.61 18.67C99.7 18.71 99.78 18.76 99.83 18.83C99.88 18.9 99.91 18.99 99.91 19.11C99.91 19.27 99.84 19.4 99.71 19.52C99.58 19.63 99.4 19.69 99.18 19.69C98.95 19.69 98.77 19.64 98.64 19.54C98.51 19.45 98.43 19.3 98.4 19.1L98.71 19.05C98.73 19.18 98.77 19.27 98.85 19.33C98.93 19.39 99.04 19.42 99.18 19.42C99.31 19.42 99.42 19.39 99.49 19.34C99.56 19.28 99.6 19.22 99.6 19.13C99.6 19.08 99.58 19.03 99.55 19C99.52 18.97 99.48 18.94 99.43 18.93C99.38 18.91 99.27 18.88 99.09 18.84C98.83 18.78 98.66 18.71 98.58 18.62C98.5 18.53 98.46 18.43 98.46 18.31C98.46 18.16 98.52 18.04 98.64 17.94C98.76 17.84 98.92 17.79 99.13 17.79C99.35 17.79 99.52 17.83 99.64 17.92C99.76 18 99.83 18.13 99.86 18.3L99.55 18.34Z" fill="white" stroke="white" stroke-width="0.0793"/>
<path d="M101.14 19.63C101.05 19.65 100.97 19.66 100.91 19.66C100.78 19.66 100.68 19.64 100.61 19.59C100.55 19.55 100.51 19.48 100.5 19.41C100.49 19.34 100.48 19.24 100.48 19.11V18.07H100.26V17.83H100.48V17.38L100.79 17.2V17.83H101.1V18.07H100.79V19.13C100.79 19.22 100.8 19.29 100.82 19.32C100.84 19.36 100.89 19.38 100.96 19.38C101 19.38 101.05 19.38 101.1 19.37L101.14 19.63Z" fill="white" stroke="white" stroke-width="0.0793"/>
<path d="M101.14 19.63C101.05 19.65 100.97 19.66 100.91 19.66C100.78 19.66 100.68 19.64 100.61 19.59C100.55 19.54 100.51 19.48 100.5 19.41C100.49 19.34 100.48 19.24 100.48 19.11V18.07H100.26V17.83H100.48V17.38L100.79 17.2V17.84H101.1V18.08H100.79V19.14C100.79 19.23 100.8 19.3 100.82 19.33C100.84 19.37 100.89 19.39 100.96 19.39C101 19.39 101.05 19.39 101.1 19.38L101.14 19.63Z" fill="white" stroke="white" stroke-width="0.0793"/>
<path d="M103.12 19.64H102.8C102.77 19.58 102.75 19.51 102.74 19.42C102.53 19.6 102.31 19.69 102.07 19.69C101.88 19.69 101.73 19.64 101.62 19.55C101.51 19.46 101.45 19.33 101.45 19.17C101.45 19.02 101.5 18.9 101.61 18.8C101.72 18.71 101.9 18.64 102.17 18.61L102.46 18.57C102.57 18.55 102.66 18.53 102.73 18.51C102.73 18.42 102.73 18.35 102.72 18.32C102.71 18.28 102.7 18.24 102.67 18.2C102.64 18.16 102.6 18.13 102.54 18.1C102.48 18.08 102.39 18.06 102.29 18.06C102.16 18.06 102.05 18.08 101.98 18.13C101.9 18.18 101.85 18.27 101.82 18.4L101.52 18.36C101.55 18.18 101.64 18.04 101.77 17.94C101.91 17.85 102.1 17.8 102.34 17.8C102.56 17.8 102.72 17.83 102.82 17.89C102.92 17.95 102.98 18.03 103.01 18.12C103.03 18.21 103.05 18.33 103.05 18.47V18.88C103.05 19.13 103.05 19.3 103.06 19.38C103.05 19.47 103.07 19.55 103.12 19.64ZM102.71 18.84V18.73C102.55 18.78 102.35 18.82 102.12 18.86C101.89 18.89 101.77 18.99 101.77 19.15C101.77 19.23 101.8 19.3 101.86 19.36C101.92 19.41 102.01 19.44 102.13 19.44C102.28 19.44 102.42 19.4 102.53 19.31C102.65 19.21 102.71 19.06 102.71 18.84Z" fill="white" stroke="white" stroke-width="0.0793"/>
<path d="M103.12 19.64H102.8C102.77 19.58 102.75 19.51 102.74 19.42C102.53 19.6 102.31 19.69 102.07 19.69C101.88 19.69 101.73 19.64 101.62 19.55C101.51 19.46 101.45 19.33 101.45 19.17C101.45 19.02 101.5 18.9 101.61 18.8C101.72 18.71 101.9 18.64 102.17 18.61L102.46 18.57C102.57 18.55 102.66 18.53 102.73 18.51C102.73 18.42 102.73 18.35 102.72 18.32C102.71 18.28 102.7 18.24 102.67 18.2C102.64 18.16 102.6 18.13 102.54 18.1C102.48 18.07 102.39 18.06 102.29 18.06C102.16 18.06 102.05 18.08 101.98 18.13C101.9 18.18 101.85 18.27 101.82 18.4L101.52 18.36C101.55 18.18 101.64 18.04 101.77 17.94C101.91 17.85 102.1 17.8 102.34 17.8C102.56 17.8 102.72 17.83 102.82 17.89C102.92 17.95 102.98 18.03 103.01 18.12C103.03 18.21 103.05 18.33 103.05 18.47V18.88C103.05 19.13 103.05 19.3 103.06 19.38C103.05 19.47 103.07 19.55 103.12 19.64ZM102.71 18.84V18.73C102.55 18.78 102.35 18.82 102.12 18.86C101.89 18.89 101.77 18.99 101.77 19.15C101.77 19.23 101.8 19.3 101.86 19.35C101.92 19.4 102.01 19.43 102.13 19.43C102.28 19.43 102.42 19.38 102.53 19.3C102.65 19.21 102.71 19.06 102.71 18.84Z" fill="white" stroke="white" stroke-width="0.0793"/>
<path d="M103.95 17.14H103.64V19.64H103.95V17.14Z" fill="white" stroke="white" stroke-width="0.0793"/>
<path d="M103.95 17.14H103.64V19.64H103.95V17.14Z" fill="white" stroke="white" stroke-width="0.0793"/>
<path d="M106.65 17.89L106.54 18.17C106.46 18.13 106.39 18.1 106.32 18.1C106.21 18.1 106.12 18.15 106.06 18.25C106 18.35 105.97 18.5 105.97 18.68V19.63H105.66V17.82H105.94V18.09H105.95C106.05 17.88 106.18 17.78 106.34 17.78C106.44 17.79 106.54 17.82 106.65 17.89Z" fill="white" stroke="white" stroke-width="0.0793"/>
<path d="M106.65 17.89L106.54 18.17C106.46 18.13 106.39 18.1 106.32 18.1C106.21 18.1 106.12 18.15 106.06 18.25C106 18.35 105.97 18.5 105.97 18.68V19.63H105.66V17.82H105.94V18.09H105.95C106.05 17.88 106.18 17.78 106.34 17.78C106.44 17.79 106.54 17.82 106.65 17.89Z" fill="white" stroke="white" stroke-width="0.0793"/>
<path d="M108.56 18.81H107.19C107.2 19.01 107.26 19.16 107.36 19.27C107.46 19.38 107.59 19.43 107.75 19.43C107.87 19.43 107.97 19.4 108.05 19.34C108.13 19.28 108.19 19.18 108.23 19.06L108.55 19.1C108.5 19.29 108.4 19.43 108.27 19.53C108.13 19.63 107.96 19.68 107.76 19.68C107.49 19.68 107.27 19.6 107.12 19.43C106.97 19.27 106.89 19.04 106.89 18.75C106.89 18.47 106.96 18.23 107.11 18.06C107.26 17.88 107.47 17.79 107.74 17.79C107.87 17.79 108 17.82 108.12 17.88C108.24 17.94 108.35 18.04 108.43 18.18C108.51 18.31 108.56 18.52 108.56 18.81ZM108.24 18.56C108.23 18.38 108.17 18.24 108.07 18.16C107.97 18.08 107.86 18.04 107.73 18.04C107.58 18.04 107.46 18.09 107.37 18.18C107.28 18.28 107.22 18.4 107.21 18.55H108.24V18.56Z" fill="white" stroke="white" stroke-width="0.0793"/>
<path d="M108.56 18.81H107.19C107.2 19.01 107.26 19.16 107.36 19.27C107.46 19.38 107.59 19.43 107.75 19.43C107.87 19.43 107.97 19.4 108.05 19.34C108.13 19.28 108.19 19.18 108.23 19.06L108.55 19.1C108.5 19.29 108.4 19.43 108.27 19.53C108.13 19.63 107.96 19.68 107.76 19.68C107.49 19.68 107.27 19.6 107.12 19.43C106.97 19.27 106.89 19.04 106.89 18.75C106.89 18.47 106.96 18.23 107.11 18.06C107.26 17.88 107.47 17.79 107.74 17.79C107.87 17.79 108 17.82 108.12 17.88C108.24 17.94 108.35 18.04 108.43 18.17C108.51 18.31 108.56 18.52 108.56 18.81ZM108.24 18.56C108.23 18.38 108.17 18.24 108.07 18.16C107.97 18.08 107.86 18.04 107.73 18.04C107.58 18.04 107.46 18.09 107.37 18.18C107.28 18.28 107.22 18.4 107.21 18.55H108.24V18.56Z" fill="white" stroke="white" stroke-width="0.0793"/>
<path d="M110.08 18.33C110.07 18.23 110.03 18.16 109.96 18.11C109.89 18.06 109.8 18.04 109.68 18.04C109.56 18.04 109.47 18.06 109.39 18.1C109.32 18.14 109.28 18.2 109.28 18.27C109.28 18.34 109.31 18.39 109.37 18.42C109.43 18.45 109.54 18.49 109.71 18.53C109.9 18.58 110.05 18.62 110.14 18.66C110.23 18.7 110.31 18.75 110.36 18.82C110.41 18.89 110.44 18.98 110.44 19.1C110.44 19.26 110.37 19.4 110.24 19.51C110.11 19.62 109.93 19.68 109.71 19.68C109.48 19.68 109.3 19.63 109.17 19.53C109.04 19.44 108.96 19.29 108.93 19.09L109.24 19.04C109.26 19.17 109.3 19.26 109.38 19.32C109.46 19.38 109.57 19.41 109.71 19.41C109.85 19.41 109.95 19.38 110.02 19.33C110.09 19.27 110.13 19.21 110.13 19.12C110.13 19.07 110.11 19.02 110.08 18.99C110.05 18.96 110.01 18.93 109.96 18.92C109.91 18.9 109.8 18.87 109.62 18.83C109.36 18.77 109.19 18.7 109.11 18.61C109.03 18.52 108.99 18.42 108.99 18.3C108.99 18.15 109.05 18.03 109.17 17.93C109.29 17.83 109.46 17.78 109.66 17.78C109.88 17.78 110.05 17.82 110.16 17.91C110.28 17.99 110.35 18.12 110.38 18.29L110.08 18.33Z" fill="white" stroke="white" stroke-width="0.0793"/>
<path d="M110.08 18.34C110.07 18.24 110.03 18.17 109.96 18.12C109.89 18.07 109.8 18.05 109.68 18.05C109.56 18.05 109.47 18.07 109.39 18.11C109.32 18.15 109.28 18.21 109.28 18.28C109.28 18.35 109.31 18.4 109.37 18.43C109.43 18.46 109.54 18.5 109.71 18.54C109.9 18.59 110.05 18.63 110.14 18.67C110.23 18.71 110.31 18.76 110.36 18.83C110.41 18.9 110.44 18.99 110.44 19.11C110.44 19.27 110.37 19.4 110.24 19.52C110.11 19.63 109.93 19.69 109.71 19.69C109.48 19.69 109.3 19.64 109.17 19.54C109.04 19.45 108.96 19.3 108.93 19.1L109.24 19.05C109.26 19.18 109.3 19.27 109.38 19.33C109.46 19.39 109.57 19.42 109.71 19.42C109.85 19.42 109.95 19.39 110.02 19.34C110.09 19.28 110.13 19.22 110.13 19.13C110.13 19.08 110.11 19.03 110.08 19C110.05 18.97 110.01 18.94 109.96 18.93C109.91 18.91 109.8 18.88 109.62 18.84C109.36 18.78 109.19 18.71 109.11 18.62C109.03 18.53 108.99 18.43 108.99 18.31C108.99 18.16 109.05 18.04 109.17 17.94C109.29 17.84 109.46 17.79 109.66 17.79C109.88 17.79 110.05 17.83 110.16 17.92C110.28 18 110.35 18.13 110.38 18.3L110.08 18.34Z" fill="white" stroke="white" stroke-width="0.0793"/>
<path d="M111.25 18.06C111.37 17.88 111.54 17.79 111.77 17.79C112.01 17.79 112.2 17.88 112.33 18.05C112.47 18.22 112.54 18.44 112.54 18.72C112.54 19.02 112.46 19.25 112.31 19.42C112.16 19.59 111.97 19.68 111.75 19.68C111.55 19.68 111.4 19.6 111.28 19.45H111.27V20.33H110.96V17.83H111.24L111.25 18.06ZM111.73 19.43C111.87 19.43 111.99 19.37 112.09 19.25C112.18 19.13 112.23 18.96 112.23 18.72C112.23 18.5 112.19 18.33 112.09 18.21C112 18.09 111.88 18.03 111.74 18.03C111.59 18.03 111.47 18.1 111.38 18.23C111.29 18.36 111.24 18.53 111.24 18.75C111.24 18.97 111.28 19.14 111.37 19.26C111.47 19.37 111.59 19.43 111.73 19.43Z" fill="white" stroke="white" stroke-width="0.0793"/>
<path d="M111.25 18.06C111.37 17.88 111.54 17.79 111.77 17.79C112.01 17.79 112.2 17.88 112.33 18.05C112.47 18.22 112.54 18.44 112.54 18.72C112.54 19.01 112.46 19.25 112.31 19.42C112.16 19.59 111.97 19.68 111.75 19.68C111.55 19.68 111.4 19.6 111.28 19.45H111.27V20.33H110.96V17.83H111.24L111.25 18.06ZM111.73 19.43C111.87 19.43 111.99 19.37 112.09 19.25C112.18 19.13 112.23 18.96 112.23 18.72C112.23 18.5 112.19 18.33 112.09 18.21C112 18.09 111.88 18.03 111.74 18.03C111.59 18.03 111.47 18.1 111.38 18.23C111.29 18.36 111.24 18.53 111.24 18.75C111.24 18.97 111.28 19.14 111.37 19.26C111.47 19.37 111.59 19.43 111.73 19.43Z" fill="white" stroke="white" stroke-width="0.0793"/>
<path d="M113.79 17.79C114.04 17.79 114.24 17.87 114.4 18.03C114.56 18.19 114.64 18.41 114.64 18.71C114.64 19.07 114.55 19.32 114.38 19.46C114.21 19.61 114.01 19.68 113.79 19.68C113.56 19.68 113.36 19.6 113.19 19.45C113.02 19.3 112.94 19.06 112.94 18.73C112.94 18.41 113.02 18.18 113.19 18.02C113.35 17.87 113.55 17.79 113.79 17.79ZM113.79 19.43C113.97 19.43 114.1 19.36 114.19 19.24C114.28 19.11 114.33 18.94 114.33 18.73C114.33 18.51 114.28 18.33 114.17 18.22C114.07 18.11 113.94 18.05 113.78 18.05C113.62 18.05 113.5 18.11 113.39 18.22C113.29 18.34 113.24 18.51 113.24 18.74C113.24 18.97 113.29 19.14 113.39 19.26C113.51 19.37 113.64 19.42 113.79 19.43Z" fill="white" stroke="white" stroke-width="0.0793"/>
<path d="M113.79 17.79C114.04 17.79 114.24 17.87 114.4 18.03C114.56 18.19 114.64 18.41 114.64 18.71C114.64 19.07 114.55 19.32 114.38 19.46C114.21 19.61 114.01 19.68 113.79 19.68C113.56 19.68 113.36 19.6 113.19 19.45C113.02 19.3 112.94 19.06 112.94 18.73C112.94 18.41 113.02 18.18 113.19 18.02C113.35 17.87 113.55 17.79 113.79 17.79ZM113.79 19.43C113.97 19.43 114.1 19.36 114.19 19.24C114.28 19.11 114.33 18.94 114.33 18.73C114.33 18.5 114.28 18.33 114.17 18.22C114.07 18.11 113.94 18.05 113.78 18.05C113.62 18.05 113.5 18.11 113.39 18.22C113.29 18.33 113.24 18.51 113.24 18.74C113.24 18.97 113.29 19.14 113.39 19.26C113.51 19.37 113.64 19.42 113.79 19.43Z" fill="white" stroke="white" stroke-width="0.0793"/>
<path d="M116.63 19.64H116.32V18.54C116.32 18.36 116.29 18.23 116.22 18.16C116.15 18.09 116.06 18.06 115.94 18.06C115.85 18.06 115.76 18.08 115.68 18.13C115.6 18.17 115.54 18.24 115.51 18.32C115.47 18.4 115.46 18.51 115.46 18.66V19.65H115.15V17.84H115.43V18.09H115.44C115.51 17.99 115.59 17.92 115.68 17.87C115.77 17.82 115.89 17.8 116.01 17.8C116.1 17.8 116.2 17.82 116.29 17.85C116.38 17.89 116.46 17.94 116.51 18C116.56 18.07 116.6 18.14 116.61 18.22C116.62 18.3 116.63 18.4 116.63 18.53V19.64Z" fill="white" stroke="white" stroke-width="0.0793"/>
<path d="M116.63 19.64H116.32V18.54C116.32 18.36 116.29 18.23 116.22 18.16C116.15 18.09 116.06 18.06 115.94 18.06C115.85 18.06 115.76 18.08 115.68 18.13C115.6 18.17 115.54 18.24 115.51 18.32C115.47 18.4 115.46 18.51 115.46 18.66V19.65H115.15V17.84H115.43V18.09H115.44C115.51 17.99 115.59 17.92 115.68 17.87C115.77 17.82 115.89 17.8 116.01 17.8C116.1 17.8 116.2 17.82 116.29 17.85C116.38 17.89 116.46 17.94 116.51 18C116.56 18.07 116.6 18.14 116.61 18.22C116.62 18.3 116.63 18.4 116.63 18.53V19.64Z" fill="white" stroke="white" stroke-width="0.0793"/>
<path d="M118.25 18.33C118.24 18.23 118.2 18.16 118.13 18.11C118.06 18.06 117.97 18.04 117.85 18.04C117.73 18.04 117.64 18.06 117.56 18.1C117.49 18.14 117.45 18.2 117.45 18.27C117.45 18.34 117.48 18.39 117.54 18.42C117.6 18.45 117.71 18.49 117.88 18.53C118.07 18.58 118.22 18.62 118.31 18.66C118.4 18.7 118.48 18.75 118.53 18.82C118.58 18.89 118.61 18.98 118.61 19.1C118.61 19.26 118.54 19.4 118.41 19.51C118.28 19.62 118.1 19.68 117.88 19.68C117.65 19.68 117.47 19.63 117.34 19.53C117.21 19.44 117.13 19.29 117.1 19.09L117.41 19.04C117.43 19.17 117.47 19.26 117.55 19.32C117.63 19.38 117.74 19.41 117.88 19.41C118.02 19.41 118.12 19.38 118.19 19.33C118.26 19.27 118.3 19.21 118.3 19.12C118.3 19.07 118.28 19.02 118.25 18.99C118.22 18.96 118.18 18.93 118.13 18.92C118.08 18.9 117.97 18.87 117.79 18.83C117.53 18.77 117.36 18.7 117.28 18.61C117.2 18.52 117.15 18.42 117.15 18.3C117.15 18.15 117.21 18.03 117.33 17.93C117.45 17.83 117.61 17.78 117.82 17.78C118.04 17.78 118.21 17.82 118.33 17.91C118.45 17.99 118.52 18.12 118.55 18.29L118.25 18.33Z" fill="white" stroke="white" stroke-width="0.0793"/>
<path d="M118.25 18.34C118.24 18.24 118.2 18.17 118.13 18.12C118.06 18.07 117.97 18.05 117.85 18.05C117.73 18.05 117.64 18.07 117.56 18.11C117.49 18.15 117.45 18.21 117.45 18.28C117.45 18.35 117.48 18.4 117.54 18.43C117.6 18.46 117.71 18.5 117.88 18.54C118.07 18.59 118.22 18.63 118.31 18.67C118.4 18.71 118.48 18.76 118.53 18.83C118.58 18.9 118.61 18.99 118.61 19.11C118.61 19.27 118.54 19.4 118.41 19.52C118.28 19.63 118.1 19.69 117.88 19.69C117.65 19.69 117.47 19.64 117.34 19.54C117.21 19.45 117.13 19.3 117.1 19.1L117.41 19.05C117.43 19.18 117.47 19.27 117.55 19.33C117.63 19.39 117.74 19.42 117.88 19.42C118.02 19.42 118.12 19.39 118.19 19.34C118.26 19.28 118.3 19.22 118.3 19.13C118.3 19.08 118.28 19.03 118.25 19C118.22 18.97 118.18 18.94 118.13 18.93C118.08 18.91 117.97 18.88 117.79 18.84C117.53 18.78 117.36 18.71 117.28 18.62C117.2 18.53 117.15 18.43 117.15 18.31C117.15 18.16 117.21 18.04 117.33 17.94C117.45 17.84 117.61 17.79 117.82 17.79C118.04 17.79 118.21 17.83 118.33 17.92C118.45 18 118.52 18.13 118.55 18.3L118.25 18.34Z" fill="white" stroke="white" stroke-width="0.0793"/>
<path d="M120.71 19.64H120.39C120.36 19.58 120.34 19.51 120.32 19.42C120.11 19.6 119.89 19.69 119.65 19.69C119.46 19.69 119.31 19.64 119.2 19.55C119.09 19.46 119.04 19.33 119.04 19.17C119.04 19.02 119.09 18.9 119.2 18.8C119.31 18.71 119.49 18.64 119.76 18.61L120.05 18.57C120.16 18.55 120.25 18.53 120.32 18.51C120.32 18.42 120.32 18.35 120.31 18.32C120.31 18.28 120.29 18.24 120.26 18.2C120.23 18.16 120.19 18.13 120.13 18.1C120.07 18.08 119.98 18.06 119.88 18.06C119.75 18.06 119.64 18.08 119.56 18.13C119.48 18.18 119.43 18.27 119.4 18.4L119.1 18.36C119.13 18.18 119.22 18.04 119.36 17.94C119.5 17.85 119.69 17.8 119.92 17.8C120.14 17.8 120.3 17.83 120.4 17.89C120.5 17.95 120.56 18.03 120.59 18.12C120.61 18.21 120.63 18.33 120.63 18.47V18.88C120.63 19.13 120.63 19.3 120.65 19.38C120.63 19.47 120.66 19.55 120.71 19.64ZM120.3 18.84V18.73C120.14 18.78 119.94 18.82 119.71 18.86C119.48 18.89 119.36 18.99 119.36 19.15C119.36 19.23 119.39 19.3 119.45 19.36C119.51 19.41 119.6 19.44 119.72 19.44C119.87 19.44 120.01 19.4 120.12 19.31C120.24 19.21 120.3 19.06 120.3 18.84Z" fill="white" stroke="white" stroke-width="0.0793"/>
<path d="M120.71 19.64H120.39C120.36 19.58 120.34 19.51 120.32 19.42C120.11 19.6 119.89 19.69 119.65 19.69C119.46 19.69 119.31 19.64 119.2 19.55C119.09 19.46 119.04 19.33 119.04 19.17C119.04 19.02 119.09 18.9 119.2 18.8C119.31 18.71 119.49 18.64 119.76 18.61L120.05 18.57C120.16 18.55 120.25 18.53 120.32 18.51C120.32 18.42 120.32 18.35 120.31 18.32C120.31 18.28 120.29 18.24 120.26 18.2C120.23 18.16 120.19 18.13 120.13 18.1C120.07 18.07 119.98 18.06 119.88 18.06C119.75 18.06 119.64 18.08 119.56 18.13C119.48 18.18 119.43 18.27 119.4 18.4L119.1 18.36C119.13 18.18 119.22 18.04 119.36 17.94C119.5 17.85 119.69 17.8 119.92 17.8C120.14 17.8 120.3 17.83 120.4 17.89C120.5 17.95 120.56 18.03 120.59 18.12C120.61 18.21 120.63 18.33 120.63 18.47V18.88C120.63 19.13 120.63 19.3 120.65 19.38C120.63 19.47 120.66 19.55 120.71 19.64ZM120.3 18.84V18.73C120.14 18.78 119.94 18.82 119.71 18.86C119.48 18.89 119.36 18.99 119.36 19.15C119.36 19.23 119.39 19.3 119.45 19.35C119.51 19.4 119.6 19.43 119.72 19.43C119.87 19.43 120.01 19.38 120.12 19.3C120.24 19.21 120.3 19.06 120.3 18.84Z" fill="white" stroke="white" stroke-width="0.0793"/>
<path d="M121.54 18.03C121.65 17.87 121.82 17.79 122.03 17.79C122.27 17.79 122.45 17.87 122.59 18.04C122.73 18.21 122.8 18.43 122.8 18.7C122.8 19.02 122.72 19.26 122.57 19.42C122.41 19.59 122.23 19.67 122.02 19.67C121.81 19.67 121.64 19.58 121.52 19.4H121.51V19.63H121.22V17.13H121.53L121.54 18.03ZM121.99 19.43C122.13 19.43 122.25 19.37 122.34 19.25C122.43 19.13 122.48 18.96 122.48 18.74C122.48 18.53 122.44 18.36 122.35 18.24C122.26 18.12 122.14 18.05 121.99 18.05C121.84 18.05 121.72 18.11 121.63 18.24C121.54 18.37 121.49 18.53 121.49 18.73C121.49 18.92 121.51 19.06 121.55 19.14C121.59 19.22 121.64 19.29 121.72 19.35C121.81 19.4 121.9 19.43 121.99 19.43Z" fill="white" stroke="white" stroke-width="0.0793"/>
<path d="M121.54 18.03C121.65 17.87 121.82 17.79 122.03 17.79C122.27 17.79 122.45 17.87 122.59 18.04C122.73 18.21 122.8 18.43 122.8 18.7C122.8 19.01 122.72 19.26 122.57 19.42C122.41 19.59 122.23 19.67 122.02 19.67C121.81 19.67 121.64 19.58 121.52 19.4H121.51V19.63H121.22V17.13H121.53L121.54 18.03ZM121.99 19.43C122.13 19.43 122.25 19.37 122.34 19.25C122.43 19.13 122.48 18.96 122.48 18.74C122.48 18.53 122.44 18.36 122.35 18.24C122.26 18.12 122.14 18.05 121.99 18.05C121.84 18.05 121.72 18.11 121.63 18.24C121.54 18.37 121.49 18.53 121.49 18.73C121.49 18.92 121.51 19.06 121.55 19.14C121.59 19.22 121.64 19.29 121.72 19.35C121.81 19.4 121.9 19.43 121.99 19.43Z" fill="white" stroke="white" stroke-width="0.0793"/>
<path d="M123.62 17.14H123.31V19.64H123.62V17.14Z" fill="white" stroke="white" stroke-width="0.0793"/>
<path d="M123.62 17.14H123.31V19.64H123.62V17.14Z" fill="white" stroke="white" stroke-width="0.0793"/>
<path d="M125.82 18.81H124.46C124.47 19.01 124.53 19.16 124.63 19.27C124.73 19.38 124.86 19.43 125.02 19.43C125.14 19.43 125.24 19.4 125.32 19.34C125.4 19.28 125.46 19.18 125.5 19.06L125.82 19.1C125.77 19.29 125.67 19.43 125.54 19.53C125.41 19.63 125.23 19.68 125.03 19.68C124.76 19.68 124.54 19.6 124.39 19.43C124.24 19.27 124.16 19.04 124.16 18.75C124.16 18.47 124.23 18.23 124.38 18.06C124.53 17.88 124.74 17.79 125.01 17.79C125.14 17.79 125.27 17.82 125.39 17.88C125.51 17.94 125.62 18.04 125.7 18.18C125.77 18.31 125.82 18.52 125.82 18.81ZM125.5 18.56C125.49 18.38 125.43 18.24 125.33 18.16C125.23 18.08 125.12 18.04 124.99 18.04C124.85 18.04 124.73 18.09 124.63 18.18C124.54 18.28 124.48 18.4 124.47 18.55H125.5V18.56Z" fill="white" stroke="white" stroke-width="0.0793"/>
<path d="M125.82 18.81H124.46C124.47 19.01 124.53 19.16 124.63 19.27C124.73 19.38 124.86 19.43 125.02 19.43C125.14 19.43 125.24 19.4 125.32 19.34C125.4 19.28 125.46 19.18 125.5 19.06L125.82 19.1C125.77 19.29 125.67 19.43 125.54 19.53C125.41 19.63 125.23 19.68 125.03 19.68C124.76 19.68 124.54 19.6 124.39 19.43C124.24 19.27 124.16 19.04 124.16 18.75C124.16 18.47 124.23 18.23 124.38 18.06C124.53 17.88 124.74 17.79 125.01 17.79C125.14 17.79 125.27 17.82 125.39 17.88C125.51 17.94 125.62 18.04 125.7 18.17C125.77 18.31 125.82 18.52 125.82 18.81ZM125.5 18.56C125.49 18.38 125.43 18.24 125.33 18.16C125.23 18.08 125.12 18.04 124.99 18.04C124.85 18.04 124.73 18.09 124.63 18.18C124.54 18.28 124.48 18.4 124.47 18.55H125.5V18.56Z" fill="white" stroke="white" stroke-width="0.0793"/>
<path d="M97.67 24.35H96.3V25.12H97.48V25.42H96.3V26.55H95.97V24.05H97.67V24.35Z" fill="white" stroke="white" stroke-width="0.0793"/>
<path d="M97.67 24.35H96.3V25.12H97.48V25.42H96.3V26.55H95.97V24.06H97.67V24.35Z" fill="white" stroke="white" stroke-width="0.0793"/>
<path d="M99.74 24.79C99.73 24.63 99.67 24.51 99.57 24.43C99.47 24.35 99.32 24.31 99.13 24.31C98.96 24.31 98.82 24.34 98.71 24.41C98.6 24.47 98.55 24.57 98.55 24.69C98.55 24.8 98.59 24.88 98.67 24.93C98.75 24.98 98.91 25.03 99.15 25.09C99.36 25.13 99.53 25.18 99.66 25.23C99.79 25.28 99.9 25.35 100 25.45C100.09 25.55 100.14 25.68 100.14 25.86C100.14 26.07 100.05 26.25 99.88 26.39C99.71 26.53 99.48 26.6 99.2 26.6C98.85 26.6 98.58 26.52 98.41 26.36C98.24 26.2 98.14 26 98.13 25.75L98.45 25.72C98.47 25.92 98.54 26.06 98.68 26.15C98.82 26.24 98.99 26.29 99.19 26.29C99.38 26.29 99.53 26.25 99.64 26.18C99.76 26.1 99.81 26 99.81 25.87C99.81 25.74 99.75 25.64 99.63 25.57C99.51 25.51 99.31 25.45 99.02 25.38C98.74 25.32 98.53 25.24 98.41 25.12C98.28 25.01 98.22 24.87 98.22 24.69C98.22 24.49 98.3 24.33 98.46 24.19C98.62 24.06 98.83 23.99 99.11 23.99C99.39 23.99 99.61 24.06 99.78 24.18C99.95 24.31 100.04 24.5 100.05 24.73L99.74 24.79Z" fill="white" stroke="white" stroke-width="0.0793"/>
<path d="M99.74 24.79C99.73 24.63 99.67 24.51 99.57 24.43C99.47 24.35 99.32 24.31 99.13 24.31C98.96 24.31 98.82 24.34 98.71 24.41C98.6 24.47 98.55 24.57 98.55 24.69C98.55 24.8 98.59 24.88 98.67 24.93C98.75 24.98 98.91 25.03 99.15 25.09C99.36 25.14 99.53 25.18 99.66 25.23C99.79 25.28 99.9 25.35 100 25.45C100.09 25.55 100.14 25.68 100.14 25.86C100.14 26.07 100.05 26.25 99.88 26.39C99.71 26.53 99.48 26.6 99.2 26.6C98.85 26.6 98.58 26.52 98.41 26.36C98.24 26.2 98.14 26 98.13 25.75L98.45 25.72C98.47 25.92 98.54 26.06 98.68 26.15C98.82 26.24 98.99 26.29 99.19 26.29C99.38 26.29 99.53 26.25 99.64 26.18C99.76 26.1 99.81 26 99.81 25.87C99.81 25.73 99.75 25.64 99.63 25.57C99.51 25.51 99.31 25.45 99.02 25.39C98.74 25.33 98.53 25.25 98.41 25.13C98.28 25.02 98.22 24.88 98.22 24.7C98.22 24.5 98.3 24.34 98.46 24.2C98.62 24.07 98.83 24 99.11 24C99.39 24 99.61 24.07 99.78 24.19C99.95 24.32 100.04 24.5 100.05 24.74L99.74 24.79Z" fill="white" stroke="white" stroke-width="0.0793"/>
<path d="M102.86 25.76C102.79 26.04 102.66 26.25 102.48 26.39C102.3 26.53 102.08 26.6 101.82 26.6C101.41 26.6 101.11 26.47 100.92 26.22C100.73 25.96 100.64 25.66 100.64 25.29C100.64 24.89 100.75 24.58 100.97 24.36C101.19 24.14 101.48 24.02 101.83 24.02C102.08 24.02 102.28 24.08 102.46 24.2C102.63 24.32 102.75 24.51 102.82 24.74L102.49 24.82C102.44 24.65 102.35 24.52 102.24 24.43C102.13 24.34 101.99 24.3 101.82 24.3C101.55 24.3 101.34 24.39 101.2 24.57C101.06 24.75 100.99 24.99 100.99 25.29C100.99 25.64 101.06 25.89 101.21 26.06C101.36 26.23 101.55 26.31 101.8 26.31C102 26.31 102.16 26.26 102.28 26.15C102.4 26.04 102.49 25.88 102.54 25.67L102.86 25.76Z" fill="white" stroke="white" stroke-width="0.0793"/>
<path d="M102.86 25.76C102.79 26.04 102.66 26.25 102.48 26.39C102.3 26.53 102.08 26.6 101.82 26.6C101.41 26.6 101.11 26.47 100.92 26.22C100.73 25.96 100.64 25.65 100.64 25.29C100.64 24.89 100.75 24.58 100.97 24.36C101.19 24.14 101.48 24.02 101.83 24.02C102.08 24.02 102.28 24.08 102.46 24.2C102.63 24.32 102.75 24.51 102.82 24.74L102.49 24.82C102.44 24.65 102.35 24.52 102.24 24.43C102.13 24.34 101.99 24.3 101.82 24.3C101.55 24.3 101.34 24.39 101.2 24.57C101.06 24.75 100.99 24.99 100.99 25.29C100.99 25.64 101.06 25.89 101.21 26.06C101.36 26.23 101.55 26.31 101.8 26.31C102 26.31 102.16 26.26 102.28 26.15C102.4 26.04 102.49 25.88 102.54 25.67L102.86 25.76Z" fill="white" stroke="white" stroke-width="0.0793"/>
<path d="M104.36 24.04C104.54 24.04 104.69 24.1 104.81 24.23C104.94 24.36 105 24.51 105 24.68C105 24.86 104.93 25.01 104.81 25.13C104.68 25.26 104.53 25.32 104.36 25.32C104.18 25.32 104.03 25.26 103.9 25.13C103.77 25 103.71 24.85 103.71 24.68C103.71 24.5 103.77 24.35 103.9 24.23C104.02 24.11 104.18 24.04 104.36 24.04ZM104.35 25.22C104.5 25.22 104.62 25.17 104.73 25.06C104.84 24.96 104.89 24.83 104.89 24.68C104.89 24.53 104.84 24.41 104.73 24.3C104.62 24.2 104.5 24.14 104.35 24.14C104.2 24.14 104.07 24.19 103.97 24.3C103.86 24.4 103.81 24.53 103.81 24.68C103.81 24.83 103.86 24.95 103.97 25.06C104.08 25.17 104.21 25.22 104.35 25.22ZM104.66 25.04H104.52C104.43 24.88 104.38 24.79 104.35 24.78C104.32 24.76 104.29 24.75 104.25 24.75H104.18V25.05H104.07V24.36H104.31C104.38 24.36 104.44 24.37 104.48 24.38C104.52 24.39 104.55 24.41 104.57 24.45C104.59 24.48 104.61 24.52 104.61 24.56C104.61 24.61 104.59 24.65 104.56 24.69C104.53 24.73 104.48 24.75 104.41 24.76C104.45 24.77 104.5 24.83 104.57 24.93L104.66 25.04ZM104.18 24.65H104.32C104.38 24.65 104.43 24.64 104.45 24.62C104.47 24.6 104.49 24.58 104.49 24.54C104.49 24.51 104.48 24.48 104.45 24.46C104.43 24.44 104.38 24.43 104.31 24.43H104.18V24.65Z" fill="white" stroke="white" stroke-width="0.0793"/>
<path d="M104.36 24.04C104.54 24.04 104.69 24.1 104.81 24.23C104.94 24.36 105 24.51 105 24.69C105 24.87 104.93 25.02 104.81 25.14C104.68 25.27 104.53 25.33 104.36 25.33C104.18 25.33 104.03 25.27 103.9 25.14C103.77 25.01 103.71 24.86 103.71 24.68C103.71 24.5 103.77 24.35 103.9 24.23C104.02 24.11 104.18 24.04 104.36 24.04ZM104.35 25.22C104.5 25.22 104.62 25.17 104.73 25.06C104.84 24.96 104.89 24.83 104.89 24.68C104.89 24.53 104.84 24.41 104.73 24.3C104.62 24.2 104.5 24.14 104.35 24.14C104.2 24.14 104.07 24.19 103.97 24.3C103.86 24.4 103.81 24.53 103.81 24.68C103.81 24.83 103.86 24.95 103.97 25.06C104.08 25.17 104.21 25.22 104.35 25.22ZM104.66 25.04H104.52C104.43 24.88 104.38 24.79 104.35 24.78C104.32 24.76 104.29 24.75 104.25 24.75H104.18V25.04H104.07V24.35H104.31C104.38 24.35 104.44 24.36 104.48 24.37C104.52 24.38 104.55 24.4 104.57 24.44C104.59 24.47 104.61 24.51 104.61 24.55C104.61 24.6 104.59 24.64 104.56 24.68C104.53 24.72 104.48 24.74 104.41 24.75C104.45 24.76 104.5 24.82 104.57 24.92L104.66 25.04ZM104.18 24.65H104.32C104.38 24.65 104.43 24.64 104.45 24.62C104.47 24.6 104.49 24.58 104.49 24.54C104.49 24.51 104.48 24.48 104.45 24.46C104.43 24.44 104.38 24.43 104.31 24.43H104.18V24.65Z" fill="white" stroke="white" stroke-width="0.0793"/>
<path d="M109.26 25.76C109.19 26.04 109.06 26.25 108.88 26.39C108.7 26.53 108.48 26.6 108.22 26.6C107.81 26.6 107.51 26.47 107.32 26.22C107.13 25.96 107.04 25.66 107.04 25.29C107.04 24.89 107.15 24.58 107.37 24.36C107.59 24.14 107.87 24.02 108.22 24.02C108.47 24.02 108.68 24.08 108.85 24.2C109.03 24.32 109.15 24.51 109.22 24.74L108.89 24.82C108.83 24.65 108.75 24.52 108.64 24.43C108.53 24.34 108.39 24.3 108.22 24.3C107.95 24.3 107.74 24.39 107.59 24.57C107.45 24.75 107.38 24.99 107.38 25.29C107.38 25.64 107.45 25.89 107.6 26.06C107.75 26.23 107.94 26.31 108.19 26.31C108.39 26.31 108.55 26.26 108.67 26.15C108.79 26.04 108.88 25.88 108.93 25.67L109.26 25.76Z" fill="white" stroke="white" stroke-width="0.0793"/>
<path d="M109.26 25.76C109.19 26.04 109.06 26.25 108.88 26.39C108.7 26.53 108.48 26.6 108.22 26.6C107.81 26.6 107.51 26.47 107.32 26.22C107.13 25.96 107.04 25.65 107.04 25.29C107.04 24.89 107.15 24.58 107.37 24.36C107.59 24.14 107.87 24.02 108.22 24.02C108.47 24.02 108.68 24.08 108.85 24.2C109.03 24.32 109.15 24.51 109.22 24.74L108.89 24.82C108.83 24.65 108.75 24.52 108.64 24.43C108.53 24.34 108.39 24.3 108.22 24.3C107.95 24.3 107.74 24.39 107.59 24.57C107.45 24.75 107.38 24.99 107.38 25.29C107.38 25.64 107.45 25.89 107.6 26.06C107.75 26.23 107.94 26.31 108.19 26.31C108.39 26.31 108.55 26.26 108.67 26.15C108.79 26.04 108.88 25.88 108.93 25.67L109.26 25.76Z" fill="white" stroke="white" stroke-width="0.0793"/>
<path d="M110.85 26.55H110.54V24.6C110.38 24.74 110.18 24.87 109.92 24.97V24.67C110.28 24.5 110.52 24.29 110.65 24.04H110.85V26.55Z" fill="white" stroke="white" stroke-width="0.0793"/>
<path d="M110.85 26.55H110.54V24.6C110.38 24.74 110.18 24.87 109.92 24.97V24.67C110.28 24.5 110.52 24.29 110.65 24.04H110.85V26.55Z" fill="white" stroke="white" stroke-width="0.0793"/>
<path d="M112.6 24.05C113.15 24.05 113.42 24.48 113.42 25.32C113.42 25.75 113.35 26.07 113.21 26.28C113.07 26.49 112.87 26.59 112.6 26.6C112.06 26.6 111.78 26.17 111.78 25.33C111.78 24.9 111.85 24.58 111.99 24.37C112.14 24.15 112.34 24.05 112.6 24.05ZM112.6 26.34C112.77 26.34 112.89 26.26 112.98 26.1C113.07 25.94 113.11 25.68 113.11 25.32C113.11 25.07 113.09 24.87 113.05 24.73C113.01 24.59 112.96 24.48 112.88 24.41C112.81 24.34 112.71 24.3 112.6 24.3C112.43 24.3 112.31 24.38 112.23 24.54C112.14 24.7 112.1 24.96 112.1 25.32C112.1 25.57 112.12 25.77 112.16 25.91C112.2 26.05 112.25 26.16 112.33 26.23C112.4 26.31 112.49 26.34 112.6 26.34Z" fill="white" stroke="white" stroke-width="0.0793"/>
<path d="M112.6 24.05C113.15 24.05 113.42 24.48 113.42 25.32C113.42 25.75 113.35 26.07 113.21 26.28C113.07 26.49 112.87 26.59 112.6 26.59C112.06 26.59 111.78 26.16 111.78 25.32C111.78 24.89 111.85 24.57 111.99 24.36C112.14 24.15 112.34 24.05 112.6 24.05ZM112.6 26.34C112.77 26.34 112.89 26.26 112.98 26.1C113.07 25.94 113.11 25.68 113.11 25.32C113.11 25.07 113.09 24.87 113.05 24.73C113.01 24.59 112.96 24.48 112.88 24.41C112.81 24.34 112.71 24.3 112.6 24.3C112.43 24.3 112.31 24.38 112.23 24.54C112.14 24.7 112.1 24.96 112.1 25.32C112.1 25.57 112.12 25.77 112.16 25.91C112.2 26.05 112.25 26.16 112.33 26.23C112.4 26.31 112.49 26.34 112.6 26.34Z" fill="white" stroke="white" stroke-width="0.0793"/>
<path d="M114.18 25.27C114.32 25.05 114.52 24.94 114.79 24.94C115 24.94 115.17 25.01 115.31 25.17C115.45 25.32 115.53 25.51 115.53 25.75C115.53 25.99 115.46 26.19 115.32 26.36C115.18 26.52 114.98 26.61 114.75 26.61C114.51 26.61 114.3 26.52 114.14 26.34C113.97 26.16 113.89 25.85 113.88 25.39C113.88 24.95 113.96 24.61 114.11 24.39C114.26 24.17 114.49 24.05 114.78 24.05C114.97 24.05 115.13 24.1 115.26 24.21C115.39 24.31 115.47 24.47 115.5 24.67L115.19 24.7C115.13 24.43 114.99 24.3 114.76 24.3C114.6 24.3 114.47 24.38 114.35 24.53C114.23 24.69 114.17 24.93 114.18 25.27ZM114.73 26.34C114.87 26.34 114.99 26.28 115.07 26.17C115.16 26.06 115.2 25.92 115.2 25.76C115.2 25.6 115.16 25.47 115.07 25.36C114.98 25.25 114.87 25.2 114.72 25.2C114.58 25.2 114.47 25.25 114.37 25.35C114.27 25.45 114.22 25.58 114.22 25.74C114.22 25.9 114.27 26.05 114.36 26.16C114.46 26.29 114.59 26.34 114.73 26.34Z" fill="white" stroke="white" stroke-width="0.0793"/>
<path d="M114.18 25.27C114.32 25.05 114.52 24.94 114.79 24.94C115 24.94 115.17 25.01 115.31 25.17C115.45 25.32 115.53 25.51 115.53 25.75C115.53 25.99 115.46 26.19 115.32 26.36C115.18 26.52 114.98 26.61 114.75 26.61C114.51 26.61 114.3 26.52 114.14 26.34C113.97 26.16 113.89 25.85 113.88 25.39C113.88 24.95 113.96 24.61 114.11 24.39C114.26 24.17 114.49 24.05 114.78 24.05C114.97 24.05 115.13 24.1 115.26 24.21C115.39 24.31 115.47 24.47 115.5 24.67L115.19 24.7C115.13 24.43 114.99 24.3 114.76 24.3C114.6 24.3 114.47 24.38 114.35 24.53C114.23 24.69 114.17 24.93 114.18 25.27ZM114.73 26.34C114.87 26.34 114.99 26.28 115.07 26.17C115.16 26.06 115.2 25.92 115.2 25.76C115.2 25.6 115.16 25.47 115.07 25.36C114.98 25.25 114.87 25.2 114.72 25.2C114.58 25.2 114.47 25.25 114.37 25.35C114.27 25.45 114.22 25.58 114.22 25.74C114.22 25.9 114.27 26.05 114.36 26.16C114.46 26.29 114.59 26.34 114.73 26.34Z" fill="white" stroke="white" stroke-width="0.0793"/>
<path d="M117.13 26.55H116.82V24.6C116.66 24.74 116.46 24.87 116.2 24.97V24.67C116.56 24.5 116.8 24.29 116.93 24.04H117.13V26.55Z" fill="white" stroke="white" stroke-width="0.0793"/>
<path d="M117.13 26.55H116.82V24.6C116.66 24.74 116.46 24.87 116.2 24.97V24.67C116.56 24.5 116.8 24.29 116.93 24.04H117.13V26.55Z" fill="white" stroke="white" stroke-width="0.0793"/>
<path d="M118.46 25.05C118.62 24.95 118.77 24.89 118.94 24.89C119.15 24.89 119.33 24.96 119.49 25.11C119.65 25.26 119.72 25.45 119.72 25.7C119.72 25.95 119.64 26.16 119.48 26.33C119.32 26.5 119.12 26.59 118.86 26.59C118.65 26.59 118.47 26.53 118.31 26.41C118.16 26.29 118.07 26.12 118.05 25.89L118.37 25.87C118.4 26.03 118.45 26.14 118.54 26.22C118.63 26.3 118.73 26.33 118.86 26.34C119.02 26.34 119.14 26.28 119.24 26.16C119.34 26.04 119.39 25.9 119.39 25.73C119.39 25.56 119.34 25.42 119.24 25.32C119.14 25.22 119.01 25.17 118.85 25.17C118.65 25.17 118.5 25.25 118.39 25.41L118.1 25.38L118.35 24.1H119.6V24.39H118.6L118.46 25.05Z" fill="white" stroke="white" stroke-width="0.0793"/>
<path d="M118.46 25.05C118.62 24.95 118.77 24.89 118.94 24.89C119.15 24.89 119.33 24.96 119.49 25.11C119.65 25.26 119.72 25.45 119.72 25.7C119.72 25.95 119.64 26.16 119.48 26.33C119.32 26.5 119.12 26.59 118.86 26.59C118.65 26.59 118.47 26.53 118.31 26.41C118.16 26.29 118.07 26.12 118.05 25.89L118.37 25.87C118.4 26.03 118.45 26.14 118.54 26.22C118.63 26.3 118.73 26.33 118.86 26.34C119.02 26.34 119.14 26.28 119.24 26.16C119.34 26.04 119.39 25.9 119.39 25.73C119.39 25.56 119.34 25.42 119.24 25.32C119.14 25.22 119.01 25.17 118.85 25.17C118.65 25.17 118.5 25.25 118.39 25.41L118.1 25.38L118.35 24.1H119.6V24.39H118.6L118.46 25.05Z" fill="white" stroke="white" stroke-width="0.0793"/>
<path d="M121.77 26.55H120.1C120.1 26.41 120.15 26.27 120.25 26.12C120.35 25.98 120.53 25.8 120.81 25.58C120.98 25.45 121.12 25.31 121.25 25.17C121.38 25.03 121.45 24.88 121.45 24.73C121.45 24.6 121.41 24.5 121.32 24.42C121.23 24.34 121.12 24.3 120.98 24.29C120.84 24.29 120.73 24.33 120.63 24.42C120.54 24.51 120.49 24.63 120.49 24.8L120.17 24.76C120.19 24.53 120.27 24.35 120.42 24.22C120.57 24.1 120.76 24.03 120.98 24.03C121.23 24.03 121.42 24.1 121.56 24.23C121.7 24.36 121.77 24.53 121.77 24.72C121.77 24.88 121.71 25.04 121.6 25.2C121.49 25.36 121.25 25.58 120.91 25.86C120.73 26 120.61 26.13 120.55 26.23H121.79V26.55H121.77Z" fill="white" stroke="white" stroke-width="0.0793"/>
<path d="M121.77 26.55H120.1C120.1 26.41 120.15 26.27 120.25 26.12C120.35 25.98 120.53 25.8 120.81 25.58C120.98 25.45 121.12 25.31 121.25 25.17C121.38 25.03 121.45 24.88 121.45 24.73C121.45 24.6 121.41 24.5 121.32 24.42C121.23 24.34 121.12 24.3 120.98 24.29C120.84 24.29 120.73 24.33 120.63 24.42C120.54 24.51 120.49 24.63 120.49 24.8L120.17 24.76C120.19 24.53 120.27 24.35 120.42 24.22C120.57 24.1 120.76 24.04 120.98 24.04C121.23 24.04 121.42 24.11 121.56 24.24C121.7 24.37 121.77 24.54 121.77 24.73C121.77 24.89 121.71 25.05 121.6 25.21C121.49 25.37 121.25 25.59 120.91 25.87C120.73 26.01 120.61 26.14 120.55 26.24H121.79V26.55H121.77Z" fill="white" stroke="white" stroke-width="0.0793"/>
</g>
<defs>
<clipPath id="clip0_1718_730">
<rect width="288.2" height="35.42" fill="white"/>
</clipPath>
</defs>
</svg>
