<svg width="31" height="31" viewBox="0 0 31 31" fill="none" xmlns="http://www.w3.org/2000/svg">
<path d="M13.3414 11.6901C14.1414 11.7601 14.9214 11.9701 15.7014 12.1301C19.6814 12.9501 23.6614 13.7801 27.6414 14.6001C28.5114 14.7801 29.0114 15.2601 29.1614 16.0401C29.3014 16.8101 28.9714 17.5001 28.2014 17.9401C27.3414 18.4401 26.4714 18.9201 25.6014 19.4001C25.1514 19.6501 25.1414 19.6801 25.5114 20.0301C26.9814 21.3901 28.4614 22.7501 29.9214 24.1201C30.9314 25.0601 30.9314 26.0901 29.9514 27.0701C29.0814 27.9401 28.2114 28.8101 27.3414 29.6801C26.3714 30.6401 25.3714 30.6501 24.4114 29.6901C22.9514 28.2301 21.5014 26.7801 20.0414 25.3201C19.6914 24.9701 19.7014 24.9801 19.4614 25.4201C18.9514 26.3601 18.4714 27.3101 17.9314 28.2201C17.2514 29.3701 15.8914 29.4801 15.0014 28.4901C14.8114 28.2801 14.7014 28.0301 14.6414 27.7501C13.7514 23.6301 12.8614 19.5101 11.9714 15.3901C11.8614 14.8601 11.7814 14.3201 11.6214 13.8101C11.2714 12.7401 12.4114 11.6201 13.3414 11.6901Z" fill="#F9FCF5"/>
<path d="M21.7514 3.32013C22.8214 3.33013 23.4814 4.38013 23.0314 5.30013C22.9514 5.46013 22.8514 5.61013 22.7314 5.74013C21.8814 6.64013 21.0214 7.54013 20.1514 8.43013C19.5914 9.00013 18.8214 9.03013 18.2614 8.53013C17.6314 7.97013 17.4814 7.09013 18.0314 6.50013C18.9514 5.51013 19.9314 4.57013 20.8914 3.63013C21.1414 3.38013 21.4714 3.30013 21.7514 3.32013Z" fill="#F9FCF5"/>
<path d="M7.49138 8.76012C7.11138 8.76012 6.78138 8.63012 6.51138 8.37012C5.61138 7.48012 4.69138 6.59012 3.82138 5.67012C3.19138 4.99012 3.36138 4.04012 4.15138 3.55012C4.68138 3.22012 5.21138 3.26012 5.67138 3.69012C6.61138 4.58012 7.55138 5.48012 8.49138 6.37012C8.92138 6.78012 9.15138 7.26012 8.92138 7.86012C8.73138 8.34012 8.05138 8.76012 7.49138 8.76012Z" fill="#F9FCF5"/>
<path d="M3.57139 21.6401C3.56139 21.2401 3.71139 20.9101 3.99139 20.6401C4.87139 19.7601 5.74139 18.8801 6.63139 18.0101C7.20139 17.4501 8.08139 17.4601 8.64139 18.0101C9.16139 18.5301 9.17139 19.4001 8.63139 19.9501C7.75139 20.8601 6.85139 21.7601 5.94139 22.6401C5.49139 23.0801 4.94139 23.1501 4.37139 22.8901C3.83139 22.6601 3.57139 22.2201 3.57139 21.6401Z" fill="#F9FCF5"/>
<path d="M14.6414 3.24013C14.6414 3.83013 14.6514 4.43013 14.6414 5.02013C14.6314 5.84013 14.0314 6.48013 13.3014 6.48013C12.5414 6.48013 11.9714 5.87013 11.9614 5.03013C11.9514 3.83013 11.9514 2.62013 11.9614 1.42013C11.9714 0.600125 12.5314 0.0101252 13.2814 0.000125209C14.0514 -0.00987479 14.6314 0.580125 14.6414 1.41013C14.6514 2.02013 14.6414 2.63013 14.6414 3.24013Z" fill="#F9FCF5"/>
<path d="M3.22138 14.4901C2.60138 14.4901 1.98138 14.5001 1.36138 14.4901C0.591382 14.4801 0.0313822 13.9601 0.00138218 13.2601C-0.0286178 12.5001 0.431382 11.9201 1.22138 11.8601C2.55138 11.7601 3.90138 11.7401 5.23138 11.8701C6.29138 11.9701 6.80138 13.1001 6.22138 13.9301C5.97138 14.2901 5.61138 14.4901 5.17138 14.4901C4.52138 14.4901 3.87138 14.4901 3.22138 14.4901Z" fill="#F9FCF5"/>
</svg>
