<svg width="150" height="24" viewBox="0 0 150 24" fill="none" xmlns="http://www.w3.org/2000/svg">
<g clip-path="url(#clip0_1718_265)">
<path d="M12.55 0L16.42 7.86L25.09 9.12L18.82 15.23L20.3 23.87L12.55 19.79L4.79 23.87L6.27 15.23L0 9.12L8.67 7.86L12.55 0Z" fill="#FFDD00"/>
<path d="M43.74 0L47.62 7.86L56.29 9.12L50.02 15.23L51.5 23.87L43.74 19.79L35.99 23.87L37.47 15.23L31.2 9.12L39.87 7.86L43.74 0Z" fill="#FFDD00"/>
<path d="M74.94 0L78.82 7.86L87.49 9.12L81.21 15.23L82.69 23.87L74.94 19.79L67.18 23.87L68.67 15.23L62.39 9.12L71.06 7.86L74.94 0Z" fill="#FFDD00"/>
<path d="M106.14 0L110.01 7.86L118.68 9.12L112.41 15.23L113.89 23.87L106.14 19.79L98.38 23.87L99.86 15.23L93.59 9.12L102.26 7.86L106.14 0Z" fill="#FFDD00"/>
<path d="M137.33 0L141.21 7.86L149.88 9.12L143.6 15.23L145.09 23.87L137.33 19.79L129.58 23.87L131.06 15.23L124.78 9.12L133.45 7.86L137.33 0Z" fill="#FFDD00"/>
</g>
<defs>
<clipPath id="clip0_1718_265">
<rect width="149.88" height="23.87" fill="white"/>
</clipPath>
</defs>
</svg>
