<svg width="203" height="52" viewBox="0 0 203 52" fill="none" xmlns="http://www.w3.org/2000/svg">
<g clip-path="url(#clip0_1698_578)">
<path fill-rule="evenodd" clip-rule="evenodd" d="M55.91 20.35C55.25 20.4 54.57 20.48 53.92 20.48C53.26 20.48 52.62 20.4 51.98 20.35L48.51 38.2H58.44C58.46 37.83 58.46 37.44 58.53 37.07C58.6 36.7 58.76 36.31 58.88 35.94C57.06 36.12 55.09 36.31 52.81 36.31L55.91 20.35Z" fill="white"/>
<path fill-rule="evenodd" clip-rule="evenodd" d="M59.98 38.32C60.65 38.27 61.32 38.19 61.97 38.19C62.62 38.19 63.27 38.27 63.91 38.32L67.4 20.34C66.73 20.39 66.06 20.47 65.41 20.47C64.75 20.47 64.11 20.39 63.47 20.34L59.98 38.32Z" fill="white"/>
<path fill-rule="evenodd" clip-rule="evenodd" d="M77.43 22.21C79.03 22.21 80.54 22.39 82.05 22.58C82.07 22.21 82.06 21.85 82.14 21.45C82.21 21.08 82.36 20.72 82.49 20.35H68.99C68.97 20.72 68.98 21.08 68.91 21.45C68.83 21.84 68.68 22.21 68.56 22.58C69.96 22.4 71.65 22.21 73.51 22.21L70.38 38.33C71.05 38.28 71.72 38.2 72.37 38.2C73.02 38.2 73.66 38.28 74.31 38.33L77.43 22.21Z" fill="white"/>
<path fill-rule="evenodd" clip-rule="evenodd" d="M99.79 29.2C100.55 25.14 99.37 19.87 91.91 19.87C85.38 19.87 80.76 24.09 79.75 29.3C78.6 35.25 81.84 38.66 87.63 38.66C94.05 38.67 98.82 34.32 99.79 29.2ZM91.44 21.45C95.37 21.45 96.19 25.33 95.53 28.71C94.69 33.06 92.09 37.1 88.06 37.1C84.13 37.1 83.28 33.48 83.95 30.08C85.09 24.2 87.8 21.45 91.44 21.45Z" fill="white"/>
<path fill-rule="evenodd" clip-rule="evenodd" d="M104.91 30.44C109.63 30.44 113.23 29.45 114.13 24.78C114.7 21.82 113.02 20.35 109.38 20.35H102.93L99.44 38.33C100.1 38.28 100.78 38.2 101.43 38.2C102.08 38.2 102.73 38.28 103.37 38.33L104.91 30.44ZM106.59 21.76H108.22C109.58 21.76 110.39 23.15 109.98 25.25C109.67 26.85 108.75 28.34 106.96 28.81C106.38 28.94 105.78 28.97 105.19 28.99L106.59 21.76Z" fill="white"/>
<path fill-rule="evenodd" clip-rule="evenodd" d="M113.31 38.32C113.98 38.27 114.65 38.19 115.3 38.19C115.96 38.19 116.6 38.27 117.24 38.32L118.87 29.91H119.05C119.43 30.91 119.93 32.11 120.19 32.82L122.24 38.32C123.04 38.27 123.84 38.19 124.62 38.19C125.43 38.19 126.2 38.27 126.98 38.32L126.27 36.7C125.17 34.26 124.01 31.85 123.06 29.34C125.6 28.81 127.57 27.19 128.06 24.62C128.41 22.84 127.85 21.66 126.51 20.87C125.52 20.29 123.6 20.35 122.37 20.35H116.79L113.31 38.32ZM120.46 21.76C122.06 21.76 124.06 21.55 124.06 23.73C124.06 24.28 124.01 24.67 123.94 25.04C123.42 27.74 121.8 29.05 119.1 28.79L120.46 21.76Z" fill="white"/>
<path fill-rule="evenodd" clip-rule="evenodd" d="M148.16 29.2C148.92 25.14 147.75 19.87 140.28 19.87C133.75 19.87 129.14 24.09 128.12 29.3C126.96 35.25 130.21 38.66 136 38.66C142.42 38.67 147.2 34.32 148.16 29.2ZM139.82 21.45C143.75 21.45 144.57 25.33 143.92 28.71C143.07 33.06 140.48 37.1 136.45 37.1C132.52 37.1 131.68 33.48 132.34 30.08C133.47 24.2 136.17 21.45 139.82 21.45Z" fill="white"/>
<path fill-rule="evenodd" clip-rule="evenodd" d="M163.64 35.13C162.24 36.26 160.19 37.1 158.57 37.1C154.53 37.1 152.94 33.95 153.81 29.47C154.56 25.62 157.12 21.45 161.47 21.45C163.18 21.45 164.66 22.45 165.35 23.86H165.72C166.11 22.94 166.44 22.05 166.85 21.16C165.49 20.32 163.48 19.88 161.75 19.88C156.03 19.88 150.71 23 149.39 29.84C148.35 35.21 151.92 38.67 157.53 38.67C159.29 38.67 161.21 38.36 162.94 37.54L163.95 35.29L163.64 35.13Z" fill="white"/>
<path fill-rule="evenodd" clip-rule="evenodd" d="M168.73 20.35L165.26 38.2H175.25C175.27 37.83 175.27 37.44 175.34 37.07C175.41 36.7 175.57 36.31 175.69 35.94C174.05 36.15 172.24 36.28 169.57 36.31L170.86 29.65H173.59C174.77 29.65 175.82 29.76 176.77 29.89C176.79 29.52 176.79 29.13 176.86 28.76C176.93 28.39 177.09 28 177.21 27.63C176.22 27.76 175.12 27.87 173.94 27.87H171.22L172.31 22.23C174.99 22.18 176.73 22.39 178.29 22.6C178.31 22.23 178.31 21.84 178.38 21.47C178.45 21.1 178.61 20.71 178.73 20.34H168.73V20.35Z" fill="white"/>
<path fill-rule="evenodd" clip-rule="evenodd" d="M188.93 23.73C189.37 22.84 189.8 21.97 190.27 21.14C189.8 20.59 188.26 19.88 186.38 19.88C182.4 19.88 179.84 22.37 179.26 25.38C178.03 31.7 186.14 30.18 185.32 34.37C184.97 36.18 183.35 37.1 181.73 37.1C179.92 37.1 178.72 36.02 178.67 34.22H178.17C177.79 35.35 177.29 36.45 176.76 37.55C177.84 38.34 179.32 38.68 180.76 38.68C184.82 38.68 188.17 36.27 188.82 32.91C189.99 26.91 181.89 27.56 182.58 24.02C182.87 22.53 183.89 21.45 185.96 21.45C187.45 21.45 188.28 22.34 188.53 23.73H188.93Z" fill="white"/>
<path fill-rule="evenodd" clip-rule="evenodd" d="M201.25 23.73C201.69 22.84 202.12 21.97 202.59 21.14C202.12 20.59 200.58 19.88 198.69 19.88C194.71 19.88 192.15 22.37 191.57 25.38C190.34 31.7 198.45 30.18 197.63 34.37C197.28 36.18 195.66 37.1 194.03 37.1C192.22 37.1 191.01 36.02 190.97 34.22H190.47C190.09 35.35 189.59 36.45 189.06 37.55C190.14 38.34 191.62 38.68 193.06 38.68C197.12 38.68 200.47 36.27 201.12 32.91C202.29 26.91 194.19 27.56 194.88 24.02C195.17 22.53 196.19 21.45 198.26 21.45C199.76 21.45 200.58 22.34 200.83 23.73H201.25Z" fill="white"/>
<path fill-rule="evenodd" clip-rule="evenodd" d="M9.03002 0.0600586H47.26L42.8 25.6401H4.58002L9.03002 0.0600586Z" fill="#28307A"/>
<path fill-rule="evenodd" clip-rule="evenodd" d="M4.56999 25.64H42.8L38.34 51.27H0.109985L4.56999 25.64Z" fill="white"/>
<path fill-rule="evenodd" clip-rule="evenodd" d="M23.69 25.63C13.07 25.63 5.95999 17.03 7.80999 6.41C7.80999 6.41 8.52999 2.24 8.92999 0H21.74L20.71 5.91C18.41 18.51 17.78 22.71 23.92 23.8C24.27 23.83 24.83 23.8 24.83 23.8C27.91 23.8 30.84 21.3 31.38 18.23C31.92 15.15 29.87 12.65 26.79 12.65C26.79 12.65 26.22 12.62 25.86 12.65H38.78C42.32 12.65 44.67 15.52 44.05 19.06C43.43 22.6 40.03 25.63 36.49 25.63H23.69Z" fill="white"/>
<path fill-rule="evenodd" clip-rule="evenodd" d="M23.69 25.61C13.07 25.61 2.95999 34.21 1.10999 44.83C1.10999 44.83 0.37999 49 -0.0100098 51.24H12.8L13.83 45.33C15.92 32.73 16.75 28.53 23.27 27.44C23.63 27.41 24.19 27.44 24.19 27.44C27.27 27.44 29.33 29.93 28.79 33.01C28.25 36.09 25.33 38.58 22.25 38.58C22.25 38.58 21.69 38.6 21.32 38.58H34.24C37.78 38.58 41.12 35.71 41.74 32.17C42.35 28.63 40.01 25.6 36.47 25.6H23.69V25.61Z" fill="#28307A"/>
<path d="M95.59 40.91C95.7 40.8 95.84 40.74 96 40.74C96.16 40.74 96.3 40.8 96.41 40.91C96.52 41.03 96.58 41.16 96.58 41.33C96.58 41.49 96.52 41.63 96.41 41.74C96.3 41.86 96.16 41.91 96 41.91C95.84 41.91 95.7 41.85 95.59 41.74C95.48 41.62 95.42 41.49 95.42 41.33C95.41 41.16 95.47 41.02 95.59 40.91ZM95.56 44.39C95.55 44.01 95.52 43.65 95.48 43.32C95.69 43.36 95.87 43.38 96 43.38C96.13 43.38 96.3 43.36 96.52 43.32C96.48 43.65 96.46 44.01 96.44 44.39C96.43 44.77 96.42 45.13 96.42 45.48V46.68C96.42 47.03 96.43 47.39 96.44 47.77C96.45 48.15 96.48 48.49 96.52 48.8C96.34 48.79 96.17 48.78 96 48.78C95.83 48.78 95.66 48.79 95.48 48.8C95.52 48.49 95.54 48.15 95.56 47.77C95.57 47.39 95.58 47.03 95.58 46.68V45.48C95.57 45.13 95.57 44.77 95.56 44.39Z" fill="white"/>
<path d="M98.48 44.3899C98.47 44.0099 98.44 43.65 98.41 43.32C98.63 43.36 98.8 43.38 98.93 43.38C98.99 43.38 99.06 43.37 99.13 43.36C99.2 43.35 99.29 43.34 99.39 43.32C99.37 43.63 99.36 43.94 99.36 44.24H99.38C99.79 43.55 100.36 43.2 101.09 43.2C101.28 43.2 101.47 43.23 101.65 43.29C101.84 43.35 102 43.4299 102.15 43.5299C102.3 43.6299 102.43 43.7499 102.54 43.8899C102.65 44.0299 102.72 44.18 102.76 44.34H102.78C102.97 43.97 103.22 43.69 103.54 43.49C103.86 43.29 104.23 43.2 104.64 43.2C104.89 43.2 105.13 43.2399 105.34 43.2999C105.56 43.3699 105.74 43.4799 105.9 43.6199C106.06 43.7699 106.18 43.95 106.27 44.18C106.36 44.41 106.4 44.6899 106.4 45.0099C106.4 45.1399 106.4 45.28 106.39 45.43C106.38 45.58 106.38 45.7599 106.37 45.9599C106.36 46.1599 106.35 46.39 106.35 46.65C106.34 46.91 106.34 47.2 106.34 47.54C106.34 47.75 106.34 47.9499 106.35 48.1399C106.35 48.3299 106.36 48.5399 106.38 48.7599C106.3 48.7499 106.21 48.74 106.13 48.74H105.89H105.64C105.56 48.74 105.47 48.7499 105.39 48.7599C105.41 48.5699 105.44 48.1799 105.46 47.5999C105.49 47.0199 105.5 46.2 105.5 45.16C105.5 44.97 105.48 44.7899 105.44 44.6199C105.4 44.4499 105.33 44.31 105.24 44.18C105.15 44.06 105.03 43.9599 104.87 43.8899C104.72 43.8199 104.52 43.7799 104.29 43.7799C104.01 43.7799 103.78 43.8299 103.58 43.9399C103.39 44.0499 103.24 44.17 103.13 44.32C103.07 44.41 103.02 44.49 102.99 44.57C102.96 44.65 102.93 44.78 102.91 44.95C102.89 45.12 102.88 45.36 102.87 45.68C102.86 45.99 102.86 46.4199 102.86 46.9599C102.86 47.2899 102.87 47.59 102.88 47.86C102.89 48.13 102.9 48.43 102.92 48.75C102.74 48.74 102.58 48.7299 102.42 48.7299C102.26 48.7299 102.09 48.74 101.92 48.75C101.95 48.33 101.98 47.8999 101.99 47.4599C102 47.0199 102.01 46.5899 102.01 46.1699C102.01 45.8099 102.01 45.53 102 45.32C102 45.12 101.99 44.96 101.97 44.84C101.96 44.72 101.93 44.6199 101.91 44.5499C101.88 44.4699 101.85 44.3899 101.8 44.2999C101.72 44.1499 101.58 44.03 101.4 43.93C101.22 43.83 101.04 43.77 100.84 43.77C100.34 43.77 99.96 43.9299 99.73 44.2599C99.49 44.5899 99.38 45.05 99.38 45.65V46.63C99.38 46.98 99.38 47.34 99.4 47.72C99.41 48.1 99.44 48.44 99.47 48.75C99.29 48.74 99.12 48.7299 98.95 48.7299C98.78 48.7299 98.61 48.74 98.43 48.75C98.47 48.44 98.49 48.1 98.5 47.72C98.51 47.34 98.52 46.98 98.52 46.63V45.43C98.5 45.13 98.49 44.7699 98.48 44.3899Z" fill="white"/>
<path d="M107.93 45.83C107.93 45.52 107.92 45.22 107.91 44.91C107.9 44.61 107.89 44.32 107.88 44.04C107.87 43.76 107.85 43.53 107.84 43.33C108.05 43.37 108.23 43.39 108.36 43.39C108.49 43.39 108.66 43.37 108.88 43.33C108.85 43.53 108.83 43.72 108.81 43.91C108.8 44.09 108.79 44.28 108.79 44.46H108.81C108.86 44.34 108.94 44.2 109.04 44.06C109.14 43.92 109.27 43.78 109.43 43.66C109.59 43.53 109.78 43.43 110 43.34C110.22 43.25 110.47 43.21 110.76 43.21C111.05 43.21 111.34 43.27 111.62 43.38C111.9 43.49 112.16 43.66 112.37 43.89C112.59 44.12 112.76 44.41 112.9 44.77C113.03 45.13 113.1 45.55 113.1 46.04C113.1 46.53 113.03 46.96 112.88 47.32C112.73 47.68 112.55 47.98 112.31 48.22C112.08 48.46 111.81 48.63 111.51 48.74C111.21 48.85 110.91 48.91 110.61 48.91C109.76 48.91 109.16 48.55 108.8 47.82H108.78V48.54C108.78 48.79 108.78 49.06 108.79 49.36C108.8 49.66 108.8 49.96 108.81 50.26C108.82 50.56 108.83 50.85 108.84 51.12C108.85 51.39 108.87 51.63 108.88 51.82C108.66 51.78 108.49 51.76 108.36 51.76C108.23 51.76 108.06 51.78 107.84 51.82C107.86 51.63 107.87 51.39 107.88 51.12C107.89 50.85 107.9 50.56 107.91 50.26C107.92 49.96 107.92 49.66 107.93 49.36C107.93 49.06 107.94 48.78 107.94 48.54V46.68C107.94 46.42 107.93 46.13 107.93 45.83ZM111.95 44.89C111.85 44.59 111.73 44.35 111.58 44.17C111.43 43.99 111.26 43.87 111.07 43.8C110.88 43.73 110.69 43.7 110.51 43.7C110.2 43.7 109.94 43.77 109.72 43.89C109.5 44.02 109.32 44.2 109.19 44.41C109.05 44.63 108.95 44.89 108.89 45.18C108.83 45.48 108.8 45.79 108.8 46.12C108.8 47.72 109.36 48.51 110.48 48.51C110.76 48.51 110.99 48.45 111.2 48.32C111.4 48.19 111.57 48.02 111.71 47.79C111.84 47.56 111.94 47.3 112.01 46.99C112.07 46.69 112.11 46.36 112.11 46.02C112.09 45.57 112.05 45.19 111.95 44.89Z" fill="white"/>
<path d="M116.87 44.14C116.76 44.1 116.65 44.08 116.53 44.08C116.35 44.08 116.18 44.12 116.03 44.21C115.89 44.3 115.76 44.41 115.66 44.55C115.56 44.69 115.48 44.86 115.43 45.06C115.38 45.26 115.35 45.47 115.35 45.69V46.96C115.35 47.47 115.35 47.87 115.36 48.14C115.36 48.41 115.38 48.63 115.4 48.8C115.24 48.79 115.09 48.78 114.94 48.78C114.77 48.78 114.61 48.79 114.46 48.8C114.48 48.54 114.5 48.18 114.5 47.74C114.5 47.29 114.51 46.74 114.51 46.09V45.72C114.51 45.42 114.51 45.08 114.5 44.68C114.5 44.29 114.48 43.84 114.46 43.33C114.54 43.35 114.63 43.36 114.7 43.37C114.78 43.38 114.86 43.39 114.94 43.39C115.01 43.39 115.08 43.38 115.16 43.37C115.24 43.36 115.32 43.35 115.4 43.33C115.37 43.61 115.35 43.82 115.35 43.99C115.35 44.15 115.34 44.31 115.34 44.45L115.36 44.46C115.81 43.63 116.32 43.22 116.88 43.22C116.95 43.22 117.01 43.22 117.06 43.23C117.11 43.24 117.17 43.26 117.25 43.29C117.21 43.38 117.19 43.52 117.18 43.71C117.17 43.9 117.17 44.07 117.17 44.22L117.09 44.28C117.06 44.23 116.99 44.18 116.87 44.14Z" fill="white"/>
<path d="M118.5 44.02C118.95 43.48 119.6 43.21 120.46 43.21C120.87 43.21 121.22 43.27 121.51 43.4C121.81 43.53 122.05 43.7 122.25 43.91C122.45 44.12 122.6 44.37 122.69 44.65C122.79 44.93 122.83 45.24 122.83 45.56C122.83 45.63 122.83 45.71 122.82 45.78C122.82 45.85 122.81 45.93 122.8 46C122.39 45.99 121.97 45.99 121.57 45.98C121.16 45.97 120.75 45.97 120.34 45.97C120.09 45.97 119.84 45.97 119.59 45.98C119.34 45.99 119.09 46 118.84 46C118.83 46.04 118.83 46.1 118.83 46.17V46.32C118.83 46.62 118.87 46.9 118.96 47.16C119.05 47.42 119.18 47.65 119.35 47.83C119.52 48.02 119.73 48.17 119.97 48.28C120.22 48.39 120.5 48.45 120.82 48.45C120.97 48.45 121.13 48.43 121.29 48.39C121.45 48.35 121.61 48.29 121.76 48.22C121.91 48.15 122.06 48.06 122.19 47.96C122.32 47.86 122.44 47.75 122.54 47.64L122.6 47.67L122.53 48.23C122.3 48.41 122.01 48.57 121.67 48.7C121.33 48.83 120.97 48.9 120.6 48.9C120.19 48.9 119.81 48.84 119.47 48.71C119.13 48.58 118.83 48.4 118.58 48.16C118.33 47.92 118.14 47.63 118.01 47.3C117.88 46.97 117.81 46.61 117.81 46.23C117.83 45.3 118.05 44.55 118.5 44.02ZM119.76 43.78C119.57 43.91 119.4 44.07 119.28 44.27C119.15 44.47 119.06 44.68 118.99 44.91C118.92 45.14 118.88 45.37 118.87 45.57C119.11 45.58 119.36 45.59 119.61 45.59C119.87 45.6 120.12 45.6 120.36 45.6C120.61 45.6 120.87 45.6 121.13 45.59C121.39 45.58 121.64 45.58 121.89 45.57C121.89 45.36 121.87 45.14 121.84 44.91C121.81 44.68 121.74 44.46 121.63 44.26C121.53 44.06 121.38 43.9 121.2 43.77C121.02 43.64 120.78 43.57 120.48 43.57C120.2 43.58 119.96 43.65 119.76 43.78Z" fill="white"/>
<path d="M124.17 47.98C124.25 48.07 124.35 48.16 124.46 48.24C124.57 48.32 124.7 48.39 124.84 48.44C124.98 48.49 125.13 48.52 125.29 48.52C125.44 48.52 125.58 48.5 125.71 48.45C125.84 48.4 125.96 48.34 126.07 48.25C126.17 48.17 126.25 48.06 126.32 47.93C126.38 47.8 126.41 47.65 126.41 47.48C126.41 47.24 126.34 47.06 126.21 46.93C126.08 46.8 125.91 46.7 125.71 46.62C125.51 46.54 125.29 46.47 125.06 46.41C124.82 46.35 124.6 46.26 124.4 46.15C124.2 46.04 124.03 45.89 123.9 45.71C123.77 45.53 123.7 45.27 123.7 44.95C123.7 44.7 123.74 44.46 123.83 44.25C123.91 44.04 124.04 43.86 124.2 43.7C124.36 43.55 124.56 43.43 124.8 43.34C125.03 43.25 125.31 43.21 125.62 43.21C125.9 43.21 126.14 43.25 126.34 43.33C126.54 43.41 126.72 43.48 126.9 43.54C126.84 43.66 126.78 43.8 126.73 43.97C126.68 44.14 126.64 44.27 126.63 44.36H126.49C126.43 44.18 126.31 44.01 126.13 43.87C125.95 43.72 125.73 43.65 125.47 43.65C125.36 43.65 125.24 43.67 125.13 43.71C125.01 43.75 124.91 43.81 124.82 43.88C124.73 43.96 124.65 44.06 124.59 44.18C124.53 44.3 124.5 44.45 124.5 44.62C124.5 44.86 124.57 45.05 124.7 45.19C124.83 45.32 125 45.43 125.2 45.51C125.4 45.59 125.62 45.65 125.86 45.71C126.1 45.77 126.32 45.85 126.52 45.95C126.72 46.05 126.89 46.2 127.02 46.38C127.16 46.56 127.22 46.82 127.22 47.14C127.22 47.36 127.17 47.58 127.07 47.8C126.97 48.02 126.84 48.21 126.66 48.38C126.48 48.55 126.26 48.69 126.01 48.78C125.76 48.88 125.47 48.92 125.15 48.92C124.8 48.92 124.5 48.89 124.26 48.82C124.02 48.75 123.82 48.67 123.66 48.58C123.71 48.48 123.75 48.34 123.8 48.17C123.85 48 123.87 47.85 123.87 47.74H124.01C124.03 47.8 124.09 47.88 124.17 47.98Z" fill="white"/>
<path d="M128.31 44.75C128.47 44.39 128.69 44.09 128.96 43.86C129.23 43.63 129.53 43.47 129.86 43.37C130.19 43.27 130.53 43.21 130.86 43.21C131.2 43.21 131.53 43.26 131.86 43.37C132.19 43.47 132.49 43.64 132.76 43.86C133.03 44.09 133.25 44.38 133.41 44.75C133.58 45.11 133.66 45.56 133.66 46.08C133.66 46.6 133.58 47.04 133.41 47.41C133.25 47.77 133.03 48.07 132.76 48.3C132.49 48.53 132.19 48.69 131.86 48.78C131.53 48.87 131.19 48.92 130.86 48.92C130.53 48.92 130.2 48.87 129.86 48.78C129.53 48.69 129.23 48.53 128.96 48.3C128.69 48.07 128.47 47.78 128.31 47.41C128.14 47.04 128.06 46.6 128.06 46.08C128.06 45.56 128.14 45.11 128.31 44.75ZM129.16 47.01C129.22 47.31 129.31 47.58 129.45 47.81C129.59 48.04 129.77 48.23 130 48.37C130.23 48.51 130.51 48.58 130.85 48.58C131.19 48.58 131.47 48.51 131.7 48.37C131.93 48.23 132.11 48.05 132.25 47.81C132.39 47.58 132.49 47.31 132.54 47.01C132.6 46.71 132.63 46.4 132.63 46.08C132.63 45.76 132.6 45.45 132.54 45.15C132.48 44.85 132.39 44.58 132.25 44.35C132.11 44.12 131.93 43.93 131.7 43.79C131.47 43.65 131.18 43.58 130.85 43.58C130.51 43.58 130.23 43.65 130 43.79C129.77 43.93 129.59 44.11 129.45 44.35C129.31 44.58 129.21 44.85 129.16 45.15C129.1 45.45 129.07 45.76 129.07 46.08C129.07 46.4 129.1 46.71 129.16 47.01Z" fill="white"/>
<path d="M135.05 47.98C135.13 48.07 135.23 48.16 135.34 48.24C135.45 48.32 135.58 48.39 135.72 48.44C135.86 48.49 136.01 48.52 136.17 48.52C136.31 48.52 136.46 48.5 136.59 48.45C136.72 48.4 136.84 48.34 136.95 48.25C137.05 48.17 137.14 48.06 137.2 47.93C137.26 47.8 137.29 47.65 137.29 47.48C137.29 47.24 137.22 47.06 137.09 46.93C136.96 46.8 136.79 46.7 136.59 46.62C136.39 46.54 136.17 46.47 135.93 46.41C135.69 46.35 135.47 46.26 135.27 46.15C135.07 46.04 134.9 45.89 134.77 45.71C134.64 45.53 134.57 45.27 134.57 44.95C134.57 44.7 134.61 44.46 134.69 44.25C134.78 44.04 134.9 43.86 135.06 43.7C135.22 43.55 135.42 43.43 135.66 43.34C135.9 43.25 136.17 43.21 136.48 43.21C136.76 43.21 137 43.25 137.2 43.33C137.4 43.41 137.58 43.48 137.76 43.54C137.7 43.66 137.64 43.8 137.59 43.97C137.54 44.14 137.5 44.27 137.49 44.36H137.35C137.29 44.18 137.17 44.01 136.99 43.87C136.82 43.72 136.59 43.65 136.33 43.65C136.21 43.65 136.1 43.67 135.98 43.71C135.87 43.75 135.76 43.81 135.67 43.88C135.58 43.96 135.5 44.06 135.44 44.18C135.38 44.3 135.35 44.45 135.35 44.62C135.35 44.86 135.42 45.05 135.55 45.19C135.68 45.32 135.85 45.43 136.05 45.51C136.25 45.59 136.47 45.65 136.71 45.71C136.95 45.77 137.17 45.85 137.37 45.95C137.57 46.05 137.74 46.2 137.87 46.38C138 46.56 138.07 46.82 138.07 47.14C138.07 47.36 138.02 47.58 137.93 47.8C137.83 48.02 137.69 48.21 137.52 48.38C137.34 48.55 137.12 48.69 136.87 48.78C136.62 48.88 136.33 48.92 136.01 48.92C135.66 48.92 135.36 48.89 135.12 48.82C134.88 48.75 134.68 48.67 134.52 48.58C134.57 48.48 134.62 48.34 134.66 48.17C134.71 48 134.73 47.85 134.73 47.74H134.87C134.91 47.8 134.97 47.88 135.05 47.98Z" fill="white"/>
<path d="M142.32 46.16V44.02H142.8V46.16H144.93V46.64H142.8V48.77H142.32V46.64H140.19V46.16H142.32Z" fill="white"/>
<path d="M147.58 47.98C147.66 48.07 147.76 48.16 147.87 48.24C147.98 48.32 148.11 48.39 148.25 48.44C148.39 48.49 148.54 48.52 148.7 48.52C148.84 48.52 148.99 48.5 149.12 48.45C149.25 48.4 149.37 48.34 149.48 48.25C149.58 48.17 149.67 48.06 149.73 47.93C149.79 47.8 149.82 47.65 149.82 47.48C149.82 47.24 149.75 47.06 149.62 46.93C149.49 46.8 149.32 46.7 149.12 46.62C148.92 46.54 148.7 46.47 148.46 46.41C148.22 46.35 148 46.26 147.81 46.15C147.61 46.04 147.44 45.89 147.31 45.71C147.18 45.53 147.11 45.27 147.11 44.95C147.11 44.7 147.15 44.46 147.23 44.25C147.32 44.04 147.44 43.86 147.6 43.7C147.76 43.55 147.96 43.43 148.2 43.34C148.44 43.25 148.71 43.21 149.02 43.21C149.3 43.21 149.55 43.25 149.74 43.33C149.94 43.41 150.12 43.48 150.3 43.54C150.24 43.66 150.18 43.8 150.13 43.97C150.08 44.14 150.04 44.27 150.03 44.36H149.89C149.83 44.18 149.71 44.01 149.53 43.87C149.35 43.72 149.14 43.65 148.87 43.65C148.76 43.65 148.64 43.67 148.52 43.71C148.41 43.75 148.3 43.81 148.21 43.88C148.12 43.96 148.04 44.06 147.98 44.18C147.92 44.3 147.89 44.45 147.89 44.62C147.89 44.86 147.96 45.05 148.09 45.19C148.22 45.32 148.39 45.43 148.59 45.51C148.79 45.59 149.01 45.65 149.25 45.71C149.49 45.77 149.71 45.85 149.91 45.95C150.11 46.05 150.28 46.2 150.41 46.38C150.54 46.56 150.61 46.82 150.61 47.14C150.61 47.36 150.56 47.58 150.47 47.8C150.37 48.02 150.23 48.21 150.06 48.38C149.88 48.55 149.66 48.69 149.41 48.78C149.16 48.88 148.87 48.92 148.55 48.92C148.2 48.92 147.9 48.89 147.66 48.82C147.42 48.75 147.22 48.67 147.06 48.58C147.11 48.48 147.15 48.34 147.2 48.17C147.25 48 147.27 47.85 147.27 47.74H147.41C147.44 47.8 147.5 47.88 147.58 47.98Z" fill="white"/>
<path d="M151.72 44.75C151.89 44.39 152.1 44.09 152.37 43.86C152.64 43.63 152.94 43.47 153.27 43.37C153.6 43.27 153.94 43.21 154.27 43.21C154.61 43.21 154.94 43.26 155.27 43.37C155.6 43.47 155.9 43.64 156.17 43.86C156.44 44.09 156.65 44.38 156.82 44.75C156.99 45.11 157.07 45.56 157.07 46.08C157.07 46.6 156.99 47.04 156.82 47.41C156.65 47.77 156.44 48.07 156.17 48.3C155.9 48.53 155.6 48.69 155.27 48.78C154.94 48.87 154.6 48.92 154.27 48.92C153.94 48.92 153.61 48.87 153.27 48.78C152.94 48.69 152.64 48.53 152.37 48.3C152.1 48.07 151.88 47.78 151.72 47.41C151.55 47.04 151.47 46.6 151.47 46.08C151.47 45.56 151.55 45.11 151.72 44.75ZM152.57 47.01C152.63 47.31 152.73 47.58 152.86 47.81C153 48.04 153.18 48.23 153.41 48.37C153.64 48.51 153.92 48.58 154.26 48.58C154.6 48.58 154.88 48.51 155.11 48.37C155.34 48.23 155.52 48.05 155.66 47.81C155.8 47.58 155.89 47.31 155.95 47.01C156.01 46.71 156.04 46.4 156.04 46.08C156.04 45.76 156.01 45.45 155.95 45.15C155.89 44.85 155.8 44.58 155.66 44.35C155.52 44.12 155.34 43.93 155.11 43.79C154.88 43.65 154.6 43.58 154.26 43.58C153.92 43.58 153.64 43.65 153.41 43.79C153.18 43.93 153 44.11 152.86 44.35C152.72 44.58 152.62 44.85 152.57 45.15C152.51 45.45 152.48 45.76 152.48 46.08C152.48 46.4 152.51 46.71 152.57 47.01Z" fill="white"/>
<path d="M158.64 42.58C158.64 42.27 158.63 41.97 158.62 41.67C158.61 41.37 158.6 41.08 158.59 40.81C158.58 40.54 158.56 40.31 158.55 40.11C158.76 40.15 158.94 40.17 159.07 40.17C159.2 40.17 159.37 40.15 159.59 40.11C159.57 40.3 159.56 40.53 159.55 40.81C159.54 41.08 159.53 41.37 159.52 41.67C159.51 41.97 159.51 42.27 159.5 42.58C159.5 42.89 159.49 43.17 159.49 43.43V45.51C159.49 45.77 159.49 46.05 159.5 46.36C159.51 46.67 159.51 46.97 159.52 47.27C159.53 47.57 159.54 47.85 159.55 48.12C159.56 48.39 159.57 48.61 159.59 48.79C159.41 48.77 159.24 48.77 159.07 48.77C158.9 48.77 158.73 48.78 158.55 48.79C158.56 48.61 158.58 48.39 158.59 48.12C158.6 47.85 158.61 47.57 158.62 47.27C158.63 46.97 158.63 46.67 158.64 46.36C158.64 46.05 158.64 45.77 158.64 45.51V43.43C158.64 43.17 158.64 42.89 158.64 42.58Z" fill="white"/>
<path d="M161.56 46.0101C161.57 45.7201 161.58 45.4401 161.58 45.1501C161.58 44.8801 161.58 44.5901 161.57 44.2701C161.57 43.9601 161.56 43.6401 161.55 43.3101C161.74 43.3501 161.9 43.3701 162.03 43.3701C162.15 43.3701 162.31 43.3501 162.5 43.3101C162.46 43.7701 162.43 44.2801 162.42 44.8201C162.4 45.3701 162.39 45.9301 162.39 46.5101C162.39 46.9101 162.42 47.2101 162.49 47.4201C162.56 47.6301 162.64 47.7901 162.74 47.9001C162.85 48.0201 162.98 48.1201 163.15 48.2001C163.31 48.2801 163.51 48.3201 163.73 48.3201C164.05 48.3201 164.32 48.2501 164.53 48.1101C164.75 47.9701 164.9 47.7901 165 47.5901C165.05 47.4601 165.1 47.3501 165.13 47.2601C165.16 47.1701 165.19 47.0401 165.21 46.8901C165.23 46.7401 165.24 46.5301 165.24 46.2701C165.24 46.0101 165.25 45.6501 165.25 45.2001V44.2301C165.25 44.0601 165.25 43.9001 165.24 43.7501C165.24 43.6001 165.23 43.4501 165.22 43.3101C165.3 43.3301 165.38 43.3401 165.46 43.3501C165.54 43.3601 165.62 43.3701 165.7 43.3701C165.78 43.3701 165.86 43.3601 165.94 43.3501C166.02 43.3401 166.09 43.3301 166.17 43.3101C166.13 43.9101 166.11 44.4901 166.1 45.0401C166.09 45.6001 166.09 46.1901 166.09 46.8101C166.09 47.1601 166.09 47.4901 166.1 47.8201C166.11 48.1501 166.12 48.4701 166.13 48.7701C165.98 48.7601 165.83 48.7501 165.68 48.7501C165.53 48.7501 165.38 48.7601 165.23 48.7701C165.24 48.7001 165.24 48.6301 165.25 48.5501C165.25 48.4701 165.26 48.3901 165.26 48.3101V47.8201H165.24C165.04 48.1901 164.78 48.4601 164.47 48.6301C164.15 48.8001 163.81 48.8901 163.45 48.8901C162.85 48.8901 162.38 48.7301 162.04 48.4101C161.7 48.0901 161.53 47.6301 161.53 47.0401C161.54 46.6501 161.54 46.3001 161.56 46.0101Z" fill="white"/>
<path d="M167.8 44.79C167.97 44.43 168.19 44.13 168.46 43.9C168.73 43.67 169.05 43.49 169.4 43.38C169.75 43.27 170.11 43.21 170.48 43.21C170.9 43.21 171.28 43.26 171.61 43.37C171.94 43.47 172.18 43.59 172.33 43.72C172.28 43.84 172.23 43.96 172.19 44.08C172.15 44.21 172.11 44.34 172.08 44.48H171.99C171.94 44.38 171.86 44.28 171.77 44.17C171.68 44.07 171.57 43.97 171.44 43.88C171.31 43.79 171.17 43.72 171.02 43.66C170.87 43.6 170.7 43.57 170.51 43.57C170.16 43.57 169.87 43.63 169.62 43.76C169.37 43.89 169.17 44.06 169.01 44.29C168.85 44.51 168.74 44.77 168.67 45.08C168.6 45.38 168.56 45.71 168.56 46.06C168.56 46.85 168.73 47.45 169.07 47.85C169.41 48.25 169.9 48.45 170.56 48.45C170.71 48.45 170.87 48.43 171.03 48.39C171.19 48.35 171.35 48.29 171.5 48.22C171.65 48.15 171.79 48.06 171.93 47.96C172.06 47.86 172.18 47.75 172.28 47.64L172.34 47.67C172.3 47.85 172.28 48.04 172.27 48.23C172.04 48.41 171.75 48.57 171.41 48.7C171.07 48.83 170.71 48.9 170.34 48.9C170.01 48.9 169.68 48.85 169.34 48.76C169.01 48.66 168.71 48.5 168.44 48.28C168.17 48.05 167.96 47.76 167.79 47.4C167.62 47.04 167.54 46.6 167.54 46.08C167.55 45.58 167.63 45.15 167.8 44.79Z" fill="white"/>
<path d="M174.01 40.91C174.12 40.8 174.26 40.74 174.43 40.74C174.59 40.74 174.73 40.8 174.84 40.91C174.96 41.03 175.01 41.16 175.01 41.33C175.01 41.49 174.95 41.63 174.84 41.74C174.72 41.86 174.59 41.91 174.43 41.91C174.27 41.91 174.13 41.85 174.01 41.74C173.9 41.62 173.84 41.49 173.84 41.33C173.83 41.16 173.89 41.02 174.01 40.91ZM173.98 44.39C173.97 44.01 173.94 43.65 173.91 43.32C174.12 43.36 174.3 43.38 174.43 43.38C174.56 43.38 174.73 43.36 174.95 43.32C174.91 43.65 174.89 44.01 174.88 44.39C174.87 44.77 174.86 45.13 174.86 45.48V46.68C174.86 47.03 174.87 47.39 174.88 47.77C174.89 48.15 174.92 48.49 174.95 48.8C174.77 48.79 174.6 48.78 174.43 48.78C174.26 48.78 174.09 48.79 173.91 48.8C173.95 48.49 173.97 48.15 173.98 47.77C173.99 47.39 174 47.03 174 46.68V45.48C174 45.13 173.99 44.77 173.98 44.39Z" fill="white"/>
<path d="M176.67 44.75C176.83 44.39 177.05 44.09 177.32 43.86C177.59 43.63 177.89 43.47 178.22 43.37C178.55 43.27 178.89 43.21 179.22 43.21C179.56 43.21 179.89 43.26 180.22 43.37C180.55 43.47 180.85 43.64 181.12 43.86C181.39 44.09 181.61 44.38 181.77 44.75C181.93 45.11 182.02 45.56 182.02 46.08C182.02 46.6 181.94 47.04 181.77 47.41C181.61 47.77 181.39 48.07 181.12 48.3C180.85 48.53 180.55 48.69 180.22 48.78C179.89 48.87 179.56 48.92 179.22 48.92C178.89 48.92 178.56 48.87 178.22 48.78C177.89 48.69 177.58 48.53 177.32 48.3C177.05 48.07 176.83 47.78 176.67 47.41C176.51 47.04 176.43 46.6 176.43 46.08C176.43 45.56 176.51 45.11 176.67 44.75ZM177.52 47.01C177.58 47.31 177.68 47.58 177.81 47.81C177.95 48.04 178.13 48.23 178.36 48.37C178.59 48.51 178.87 48.58 179.21 48.58C179.55 48.58 179.83 48.51 180.06 48.37C180.29 48.23 180.47 48.05 180.61 47.81C180.75 47.58 180.85 47.31 180.9 47.01C180.96 46.71 180.99 46.4 180.99 46.08C180.99 45.76 180.96 45.45 180.9 45.15C180.84 44.85 180.75 44.58 180.61 44.35C180.47 44.12 180.29 43.93 180.06 43.79C179.83 43.65 179.55 43.58 179.21 43.58C178.87 43.58 178.59 43.65 178.36 43.79C178.13 43.93 177.95 44.11 177.81 44.35C177.67 44.58 177.57 44.85 177.52 45.15C177.46 45.45 177.43 45.76 177.43 46.08C177.44 46.4 177.47 46.71 177.52 47.01Z" fill="white"/>
<path d="M186.72 44.25C186.5 43.95 186.19 43.81 185.8 43.81C185.26 43.81 184.87 43.9699 184.62 44.2999C184.37 44.6299 184.24 45.0899 184.24 45.6899V46.6699C184.24 47.0199 184.25 47.3799 184.26 47.7599C184.27 48.1399 184.3 48.48 184.34 48.79C184.16 48.77 183.99 48.77 183.82 48.77C183.65 48.77 183.48 48.78 183.3 48.79C183.34 48.48 183.36 48.1399 183.37 47.7599C183.38 47.3799 183.39 47.0199 183.39 46.6699V45.47C183.39 45.12 183.38 44.76 183.37 44.38C183.36 44 183.34 43.64 183.3 43.31C183.52 43.35 183.69 43.3699 183.82 43.3699C183.88 43.3699 183.95 43.3599 184.02 43.3499C184.09 43.3399 184.18 43.33 184.28 43.31C184.26 43.62 184.25 43.9299 184.25 44.2299H184.27C184.48 43.8999 184.74 43.64 185.04 43.47C185.34 43.29 185.7 43.2 186.11 43.2C186.33 43.2 186.54 43.23 186.76 43.29C186.98 43.35 187.18 43.46 187.35 43.61C187.53 43.76 187.67 43.96 187.78 44.22C187.89 44.48 187.95 44.8 187.95 45.2C187.95 45.53 187.94 45.87 187.93 46.22C187.92 46.57 187.91 46.94 187.91 47.33V48.08C187.91 48.2 187.91 48.3199 187.92 48.4399C187.92 48.5599 187.93 48.6699 187.93 48.7799C187.77 48.7599 187.61 48.7599 187.44 48.7599C187.27 48.7599 187.12 48.7699 186.96 48.7799C186.98 48.3799 186.99 47.9699 187.01 47.5499C187.03 47.1299 187.04 46.69 187.04 46.25V45.5499C187.05 44.9799 186.94 44.55 186.72 44.25Z" fill="white"/>
<path d="M189.9 44.02C190.35 43.48 191 43.21 191.86 43.21C192.27 43.21 192.62 43.27 192.91 43.4C193.21 43.53 193.45 43.7 193.65 43.91C193.85 44.12 194 44.37 194.09 44.65C194.18 44.93 194.23 45.24 194.23 45.56C194.23 45.63 194.23 45.71 194.22 45.78C194.22 45.85 194.21 45.93 194.2 46C193.79 45.99 193.38 45.99 192.97 45.98C192.56 45.97 192.15 45.97 191.74 45.97C191.49 45.97 191.24 45.97 190.99 45.98C190.74 45.99 190.49 46 190.24 46C190.23 46.04 190.23 46.1 190.23 46.17V46.32C190.23 46.62 190.28 46.9 190.36 47.16C190.45 47.42 190.58 47.65 190.75 47.83C190.92 48.02 191.13 48.17 191.37 48.28C191.62 48.39 191.9 48.45 192.22 48.45C192.37 48.45 192.53 48.43 192.69 48.39C192.85 48.35 193.01 48.29 193.16 48.22C193.31 48.15 193.46 48.06 193.59 47.96C193.72 47.86 193.84 47.75 193.94 47.64L194 47.67L193.93 48.23C193.7 48.41 193.42 48.57 193.07 48.7C192.73 48.83 192.37 48.9 192.01 48.9C191.6 48.9 191.22 48.84 190.88 48.71C190.54 48.58 190.24 48.4 189.99 48.16C189.74 47.92 189.55 47.63 189.41 47.3C189.28 46.97 189.21 46.61 189.21 46.23C189.23 45.3 189.45 44.55 189.9 44.02ZM191.16 43.78C190.96 43.91 190.8 44.07 190.68 44.27C190.55 44.47 190.46 44.68 190.39 44.91C190.32 45.14 190.28 45.37 190.27 45.57C190.51 45.58 190.75 45.59 191.01 45.59C191.27 45.6 191.52 45.6 191.76 45.6C192.01 45.6 192.27 45.6 192.53 45.59C192.79 45.58 193.04 45.58 193.29 45.57C193.29 45.36 193.27 45.14 193.24 44.91C193.21 44.68 193.14 44.46 193.03 44.26C192.93 44.06 192.78 43.9 192.6 43.77C192.42 43.64 192.17 43.57 191.87 43.57C191.6 43.58 191.36 43.65 191.16 43.78Z" fill="white"/>
<path d="M195.57 47.98C195.65 48.07 195.75 48.16 195.86 48.24C195.97 48.32 196.1 48.39 196.24 48.44C196.38 48.49 196.53 48.52 196.69 48.52C196.84 48.52 196.97 48.5 197.11 48.45C197.24 48.4 197.37 48.34 197.47 48.25C197.57 48.17 197.66 48.06 197.72 47.93C197.78 47.8 197.81 47.65 197.81 47.48C197.81 47.24 197.74 47.06 197.61 46.93C197.48 46.8 197.31 46.7 197.11 46.62C196.91 46.54 196.69 46.47 196.45 46.41C196.21 46.35 195.99 46.26 195.79 46.15C195.59 46.04 195.42 45.89 195.29 45.71C195.16 45.53 195.09 45.27 195.09 44.95C195.09 44.7 195.13 44.46 195.22 44.25C195.3 44.04 195.43 43.86 195.59 43.7C195.75 43.55 195.95 43.43 196.19 43.34C196.43 43.25 196.7 43.21 197.01 43.21C197.29 43.21 197.53 43.25 197.73 43.33C197.92 43.41 198.11 43.48 198.29 43.54C198.23 43.66 198.17 43.8 198.12 43.97C198.07 44.14 198.03 44.27 198.02 44.36H197.88C197.82 44.18 197.7 44.01 197.52 43.87C197.34 43.72 197.12 43.65 196.86 43.65C196.74 43.65 196.63 43.67 196.51 43.71C196.39 43.75 196.29 43.81 196.2 43.88C196.11 43.96 196.03 44.06 195.97 44.18C195.91 44.3 195.88 44.45 195.88 44.62C195.88 44.86 195.95 45.05 196.08 45.19C196.21 45.32 196.38 45.43 196.58 45.51C196.78 45.59 197 45.65 197.24 45.71C197.48 45.77 197.7 45.85 197.9 45.95C198.1 46.05 198.27 46.2 198.4 46.38C198.53 46.56 198.6 46.82 198.6 47.14C198.6 47.36 198.55 47.58 198.46 47.8C198.36 48.02 198.23 48.21 198.05 48.38C197.87 48.55 197.65 48.69 197.4 48.78C197.15 48.88 196.86 48.92 196.54 48.92C196.19 48.92 195.89 48.89 195.66 48.82C195.42 48.75 195.22 48.67 195.06 48.58C195.11 48.48 195.15 48.34 195.2 48.17C195.25 48 195.27 47.85 195.27 47.74H195.41C195.43 47.8 195.49 47.88 195.57 47.98Z" fill="white"/>
</g>
<defs>
<clipPath id="clip0_1698_578">
<rect width="202.6" height="51.82" fill="white"/>
</clipPath>
</defs>
</svg>
