<svg width="893" height="166" viewBox="0 0 893 166" fill="none" xmlns="http://www.w3.org/2000/svg">
<path d="M33.43 165.04C13.57 147.92 1 122.59 1 94.32C1 42.78 42.78 1 94.32 1C145.86 1 187.64 42.78 187.64 94.32C187.64 121.71 175.84 146.35 157.04 163.42" stroke="#F9FCF5" stroke-width="0.9308" stroke-miterlimit="10"/>
<path d="M268.43 165.04C248.57 147.92 236 122.59 236 94.32C236 42.78 277.78 1 329.32 1C380.86 1 422.64 42.78 422.64 94.32C422.64 121.71 410.84 146.35 392.04 163.42" stroke="#F9FCF5" stroke-width="0.9308" stroke-miterlimit="10"/>
<path d="M503.43 165.04C483.57 147.92 471 122.59 471 94.32C471 42.78 512.78 1 564.32 1C615.86 1 657.64 42.78 657.64 94.32C657.64 121.71 645.84 146.35 627.04 163.42" stroke="#F9FCF5" stroke-width="0.9308" stroke-miterlimit="10"/>
<path d="M737.43 165.04C717.57 147.92 705 122.59 705 94.32C705 42.78 746.78 1 798.32 1C849.86 1 891.64 42.78 891.64 94.32C891.64 121.71 879.84 146.35 861.04 163.42" stroke="#F9FCF5" stroke-width="0.9308" stroke-miterlimit="10"/>
</svg>
